G04 #@! TF.GenerationSoftware,KiCad,Pcbnew,(5.1.4)-1*
G04 #@! TF.CreationDate,2020-04-26T19:25:09+02:00*
G04 #@! TF.ProjectId,JtagArm20Adapter,4a746167-4172-46d3-9230-416461707465,rev?*
G04 #@! TF.SameCoordinates,Original*
G04 #@! TF.FileFunction,Copper,L1,Top*
G04 #@! TF.FilePolarity,Positive*
%FSLAX46Y46*%
G04 Gerber Fmt 4.6, Leading zero omitted, Abs format (unit mm)*
G04 Created by KiCad (PCBNEW (5.1.4)-1) date 2020-04-26 19:25:09*
%MOMM*%
%LPD*%
G04 APERTURE LIST*
%ADD10C,0.050000*%
%ADD11O,1.700000X1.700000*%
%ADD12R,1.700000X1.700000*%
%ADD13C,0.300000*%
%ADD14C,0.100000*%
%ADD15R,2.400000X0.740000*%
%ADD16C,0.450000*%
%ADD17C,0.090000*%
%ADD18C,0.400000*%
G04 APERTURE END LIST*
D10*
X138430000Y-107950000D02*
X138430000Y-80010000D01*
X161290000Y-107950000D02*
X138430000Y-107950000D01*
X161290000Y-80010000D02*
X161290000Y-107950000D01*
X138430000Y-80010000D02*
X161290000Y-80010000D01*
D11*
X139700000Y-105410000D03*
X142240000Y-105410000D03*
X139700000Y-102870000D03*
X142240000Y-102870000D03*
X139700000Y-100330000D03*
X142240000Y-100330000D03*
X139700000Y-97790000D03*
X142240000Y-97790000D03*
X139700000Y-95250000D03*
X142240000Y-95250000D03*
X139700000Y-92710000D03*
X142240000Y-92710000D03*
X139700000Y-90170000D03*
X142240000Y-90170000D03*
X139700000Y-87630000D03*
X142240000Y-87630000D03*
X139700000Y-85090000D03*
X142240000Y-85090000D03*
X139700000Y-82550000D03*
D12*
X142240000Y-82550000D03*
D13*
X148757300Y-81419700D03*
D14*
G36*
X147757300Y-81419700D02*
G01*
X148257300Y-80669700D01*
X149257300Y-80669700D01*
X149257300Y-82169700D01*
X148257300Y-82169700D01*
X147757300Y-81419700D01*
X147757300Y-81419700D01*
G37*
D13*
X147307300Y-81419700D03*
D14*
G36*
X146807300Y-80669700D02*
G01*
X147957300Y-80669700D01*
X147457300Y-81419700D01*
X147957300Y-82169700D01*
X146807300Y-82169700D01*
X146807300Y-80669700D01*
X146807300Y-80669700D01*
G37*
D11*
X148590000Y-105410000D03*
X148590000Y-102870000D03*
X148590000Y-100330000D03*
X148590000Y-97790000D03*
X148590000Y-95250000D03*
D12*
X148590000Y-92710000D03*
D15*
X155530000Y-81915000D03*
X159430000Y-81915000D03*
X155530000Y-83185000D03*
X159430000Y-83185000D03*
X155530000Y-84455000D03*
X159430000Y-84455000D03*
X155530000Y-85725000D03*
X159430000Y-85725000D03*
X155530000Y-86995000D03*
X159430000Y-86995000D03*
X155530000Y-88265000D03*
X159430000Y-88265000D03*
X155530000Y-89535000D03*
X159430000Y-89535000D03*
X155530000Y-90805000D03*
X159430000Y-90805000D03*
X155530000Y-92075000D03*
X159430000Y-92075000D03*
X155530000Y-93345000D03*
X159430000Y-93345000D03*
X155530000Y-101600000D03*
X159430000Y-101600000D03*
X155530000Y-102870000D03*
X159430000Y-102870000D03*
X155530000Y-104140000D03*
X159430000Y-104140000D03*
X155530000Y-105410000D03*
X159430000Y-105410000D03*
X155530000Y-106680000D03*
X159430000Y-106680000D03*
D16*
X151892000Y-92710000D03*
X151892000Y-101600000D03*
X157353000Y-89535000D03*
X157353000Y-92075000D03*
X157353000Y-88265000D03*
X157353000Y-86995000D03*
X157353000Y-84455000D03*
X157353000Y-83185000D03*
X157353000Y-81915000D03*
X159385000Y-104775000D03*
X160909000Y-107569000D03*
X157099000Y-107569000D03*
X151511000Y-91440000D03*
X151511000Y-102870000D03*
X153035000Y-86360000D03*
X153035000Y-98933000D03*
X153035000Y-104140000D03*
X152273000Y-88900000D03*
X152273000Y-96139000D03*
X152273000Y-105410000D03*
X151130000Y-90170000D03*
X151130000Y-100330000D03*
X151130000Y-106680000D03*
X153797000Y-82550000D03*
X153797000Y-107442000D03*
X153797000Y-83820000D03*
X153797000Y-103505000D03*
X153416000Y-85090000D03*
X153416000Y-101092000D03*
X152654000Y-87630000D03*
X152654000Y-96774000D03*
D17*
X151892000Y-101600000D02*
X155530000Y-101600000D01*
X149860000Y-101600000D02*
X148590000Y-102870000D01*
X151892000Y-101600000D02*
X149860000Y-101600000D01*
X158115000Y-92075000D02*
X159430000Y-92075000D01*
X157480000Y-92710000D02*
X158115000Y-92075000D01*
X151892000Y-92710000D02*
X157480000Y-92710000D01*
X158115000Y-101600000D02*
X159430000Y-101600000D01*
X159430000Y-104140000D02*
X158140000Y-104140000D01*
X157861000Y-101854000D02*
X158115000Y-101600000D01*
X157861000Y-103861000D02*
X157861000Y-101854000D01*
X158140000Y-104140000D02*
X157861000Y-103861000D01*
X158140000Y-90805000D02*
X157505000Y-91440000D01*
X159430000Y-90805000D02*
X158140000Y-90805000D01*
X157505000Y-91440000D02*
X154351998Y-91440000D01*
X154351998Y-91440000D02*
X151511000Y-91440000D01*
X151511000Y-102870000D02*
X155530000Y-102870000D01*
X158140000Y-85725000D02*
X157505000Y-86360000D01*
X159430000Y-85725000D02*
X158140000Y-85725000D01*
X157505000Y-86360000D02*
X153035000Y-86360000D01*
X143383000Y-98933000D02*
X142240000Y-97790000D01*
X153035000Y-98933000D02*
X143383000Y-98933000D01*
X155530000Y-104140000D02*
X153035000Y-104140000D01*
X149860000Y-104140000D02*
X148590000Y-105410000D01*
X153035000Y-104140000D02*
X149860000Y-104140000D01*
X158140000Y-88265000D02*
X157505000Y-88900000D01*
X159430000Y-88265000D02*
X158140000Y-88265000D01*
X157505000Y-88900000D02*
X153670000Y-88900000D01*
X153670000Y-88900000D02*
X152273000Y-88900000D01*
X149479000Y-96139000D02*
X148590000Y-95250000D01*
X152273000Y-96139000D02*
X149479000Y-96139000D01*
X148590000Y-95250000D02*
X147320000Y-95250000D01*
X144780000Y-92710000D02*
X142240000Y-92710000D01*
X147320000Y-95250000D02*
X144780000Y-92710000D01*
X152273000Y-105410000D02*
X155530000Y-105410000D01*
X159430000Y-89535000D02*
X158600000Y-89535000D01*
X150811802Y-100330000D02*
X148590000Y-100330000D01*
X151130000Y-100330000D02*
X150811802Y-100330000D01*
X155530000Y-106680000D02*
X151130000Y-106680000D01*
X151130000Y-90170000D02*
X157480000Y-90170000D01*
X158115000Y-89535000D02*
X159430000Y-89535000D01*
X157480000Y-90170000D02*
X158115000Y-89535000D01*
D18*
X148590000Y-91460000D02*
X148590000Y-92710000D01*
X148590000Y-87650000D02*
X148590000Y-91460000D01*
X143490000Y-82550000D02*
X148590000Y-87650000D01*
X142240000Y-82550000D02*
X143490000Y-82550000D01*
X157830000Y-106680000D02*
X157353000Y-106203000D01*
X159430000Y-106680000D02*
X157830000Y-106680000D01*
X159430000Y-94115000D02*
X159430000Y-93345000D01*
X157353000Y-96192000D02*
X159430000Y-94115000D01*
X157353000Y-106203000D02*
X157353000Y-96192000D01*
X149840000Y-92710000D02*
X148590000Y-92710000D01*
X157353000Y-96192000D02*
X153322000Y-96192000D01*
X153322000Y-96192000D02*
X149840000Y-92710000D01*
D17*
X156708002Y-82550000D02*
X153797000Y-82550000D01*
X157505000Y-82550000D02*
X156708002Y-82550000D01*
X159430000Y-81915000D02*
X158140000Y-81915000D01*
X158140000Y-81915000D02*
X157505000Y-82550000D01*
X144272000Y-107442000D02*
X145669000Y-107442000D01*
X142240000Y-105410000D02*
X144272000Y-107442000D01*
X153797000Y-107442000D02*
X145669000Y-107442000D01*
X153797000Y-103505000D02*
X149733000Y-103505000D01*
X149733000Y-103505000D02*
X149098000Y-104140000D01*
X143510000Y-104140000D02*
X142240000Y-102870000D01*
X149098000Y-104140000D02*
X143510000Y-104140000D01*
X157480000Y-83820000D02*
X153797000Y-83820000D01*
X158115000Y-83185000D02*
X157480000Y-83820000D01*
X159430000Y-83185000D02*
X158115000Y-83185000D01*
X153416000Y-101092000D02*
X149733000Y-101092000D01*
X149733000Y-101092000D02*
X149225000Y-101600000D01*
X143510000Y-101600000D02*
X142240000Y-100330000D01*
X149225000Y-101600000D02*
X143510000Y-101600000D01*
X158115000Y-84455000D02*
X159430000Y-84455000D01*
X153416000Y-85090000D02*
X157480000Y-85090000D01*
X157480000Y-85090000D02*
X158115000Y-84455000D01*
X152654000Y-96774000D02*
X149479000Y-96774000D01*
X149479000Y-96774000D02*
X149225000Y-96520000D01*
X143510000Y-96520000D02*
X142240000Y-95250000D01*
X149225000Y-96520000D02*
X143510000Y-96520000D01*
X158115000Y-86995000D02*
X159430000Y-86995000D01*
X157480000Y-87630000D02*
X158115000Y-86995000D01*
X152654000Y-87630000D02*
X157480000Y-87630000D01*
X149340710Y-83120710D02*
X149340710Y-90946110D01*
X151739600Y-93345000D02*
X155530000Y-93345000D01*
X149340710Y-90946110D02*
X151739600Y-93345000D01*
X149340710Y-82853110D02*
X149340710Y-90946110D01*
X148757300Y-82269700D02*
X149340710Y-82853110D01*
X148757300Y-81419700D02*
X148757300Y-82269700D01*
X140830300Y-81419700D02*
X147307300Y-81419700D01*
X139700000Y-82550000D02*
X140830300Y-81419700D01*
D14*
G36*
X161087001Y-100907276D02*
G01*
X161026475Y-100833525D01*
X160941508Y-100763795D01*
X160844571Y-100711981D01*
X160739387Y-100680074D01*
X160630000Y-100669300D01*
X159773500Y-100672000D01*
X159634000Y-100811500D01*
X159634000Y-101396000D01*
X159654000Y-101396000D01*
X159654000Y-101804000D01*
X159634000Y-101804000D01*
X159634000Y-101824000D01*
X159226000Y-101824000D01*
X159226000Y-101804000D01*
X159206000Y-101804000D01*
X159206000Y-101396000D01*
X159226000Y-101396000D01*
X159226000Y-100811500D01*
X159086500Y-100672000D01*
X158230000Y-100669300D01*
X158120613Y-100680074D01*
X158015429Y-100711981D01*
X157918492Y-100763795D01*
X157833525Y-100833525D01*
X157803000Y-100870720D01*
X157803000Y-96378395D01*
X159732573Y-94448823D01*
X159749737Y-94434737D01*
X159763824Y-94417572D01*
X159763828Y-94417568D01*
X159805971Y-94366217D01*
X159847757Y-94288041D01*
X159847757Y-94288040D01*
X159873489Y-94203215D01*
X159880000Y-94137105D01*
X159880000Y-94137094D01*
X159882176Y-94115000D01*
X159880000Y-94092906D01*
X159880000Y-93966209D01*
X160630000Y-93966209D01*
X160679008Y-93961382D01*
X160726134Y-93947087D01*
X160769564Y-93923873D01*
X160807632Y-93892632D01*
X160838873Y-93854564D01*
X160862087Y-93811134D01*
X160876382Y-93764008D01*
X160881209Y-93715000D01*
X160881209Y-92975000D01*
X160876382Y-92925992D01*
X160862087Y-92878866D01*
X160838873Y-92835436D01*
X160807632Y-92797368D01*
X160769564Y-92766127D01*
X160726134Y-92742913D01*
X160679008Y-92728618D01*
X160630000Y-92723791D01*
X158230000Y-92723791D01*
X158180992Y-92728618D01*
X158133866Y-92742913D01*
X158090436Y-92766127D01*
X158052368Y-92797368D01*
X158021127Y-92835436D01*
X157997913Y-92878866D01*
X157983618Y-92925992D01*
X157978791Y-92975000D01*
X157978791Y-93715000D01*
X157983618Y-93764008D01*
X157997913Y-93811134D01*
X158021127Y-93854564D01*
X158052368Y-93892632D01*
X158090436Y-93923873D01*
X158133866Y-93947087D01*
X158180992Y-93961382D01*
X158230000Y-93966209D01*
X158942395Y-93966209D01*
X157166605Y-95742000D01*
X153508396Y-95742000D01*
X150173829Y-92407434D01*
X150159737Y-92390263D01*
X150091216Y-92334029D01*
X150013041Y-92292243D01*
X149928215Y-92266511D01*
X149862105Y-92260000D01*
X149862094Y-92260000D01*
X149840000Y-92257824D01*
X149817906Y-92260000D01*
X149691209Y-92260000D01*
X149691209Y-91860000D01*
X149686382Y-91810992D01*
X149672087Y-91763866D01*
X149648873Y-91720436D01*
X149617632Y-91682368D01*
X149579564Y-91651127D01*
X149536134Y-91627913D01*
X149489008Y-91613618D01*
X149440000Y-91608791D01*
X149040000Y-91608791D01*
X149040000Y-87672093D01*
X149042176Y-87649999D01*
X149040000Y-87627905D01*
X149040000Y-87627895D01*
X149033489Y-87561785D01*
X149007757Y-87476959D01*
X149001028Y-87464370D01*
X148965971Y-87398783D01*
X148923828Y-87347432D01*
X148923824Y-87347428D01*
X148909737Y-87330263D01*
X148892573Y-87316177D01*
X143823829Y-82247434D01*
X143809737Y-82230263D01*
X143741216Y-82174029D01*
X143663041Y-82132243D01*
X143578215Y-82106511D01*
X143512105Y-82100000D01*
X143512094Y-82100000D01*
X143490000Y-82097824D01*
X143467906Y-82100000D01*
X143341209Y-82100000D01*
X143341209Y-81700000D01*
X143336382Y-81650992D01*
X143333867Y-81642700D01*
X146628439Y-81642700D01*
X146628439Y-82169700D01*
X146631876Y-82204594D01*
X146642054Y-82238147D01*
X146658583Y-82269070D01*
X146680826Y-82296174D01*
X146707930Y-82318417D01*
X146738853Y-82334946D01*
X146772406Y-82345124D01*
X146807300Y-82348561D01*
X147957300Y-82348561D01*
X147992011Y-82345161D01*
X148025574Y-82335018D01*
X148056514Y-82318521D01*
X148083641Y-82296306D01*
X148105913Y-82269225D01*
X148107149Y-82266919D01*
X148108479Y-82268914D01*
X148130826Y-82296174D01*
X148157930Y-82318417D01*
X148188853Y-82334946D01*
X148222406Y-82345124D01*
X148257300Y-82348561D01*
X148548189Y-82348561D01*
X148550279Y-82355451D01*
X148570986Y-82394192D01*
X148598853Y-82428148D01*
X148607363Y-82435132D01*
X149117710Y-82945480D01*
X149117710Y-83109757D01*
X149117711Y-90935146D01*
X149116631Y-90946110D01*
X149120937Y-90989825D01*
X149131539Y-91024773D01*
X149133689Y-91031861D01*
X149154396Y-91070602D01*
X149182263Y-91104558D01*
X149190773Y-91111542D01*
X151574168Y-93494938D01*
X151581152Y-93503448D01*
X151615108Y-93531315D01*
X151653849Y-93552022D01*
X151695884Y-93564773D01*
X151739600Y-93569079D01*
X151750554Y-93568000D01*
X154151139Y-93568000D01*
X154151139Y-93715000D01*
X154154576Y-93749894D01*
X154164754Y-93783447D01*
X154181283Y-93814370D01*
X154203526Y-93841474D01*
X154230630Y-93863717D01*
X154261553Y-93880246D01*
X154295106Y-93890424D01*
X154330000Y-93893861D01*
X156730000Y-93893861D01*
X156764894Y-93890424D01*
X156798447Y-93880246D01*
X156829370Y-93863717D01*
X156856474Y-93841474D01*
X156878717Y-93814370D01*
X156895246Y-93783447D01*
X156905424Y-93749894D01*
X156908861Y-93715000D01*
X156908861Y-92975000D01*
X156908751Y-92973885D01*
X156944571Y-92963019D01*
X157000732Y-92933000D01*
X157469046Y-92933000D01*
X157480000Y-92934079D01*
X157490954Y-92933000D01*
X157523716Y-92929773D01*
X157565751Y-92917022D01*
X157604492Y-92896315D01*
X157638448Y-92868448D01*
X157645436Y-92859933D01*
X158051967Y-92453402D01*
X158054576Y-92479894D01*
X158064754Y-92513447D01*
X158081283Y-92544370D01*
X158103526Y-92571474D01*
X158130630Y-92593717D01*
X158161553Y-92610246D01*
X158195106Y-92620424D01*
X158230000Y-92623861D01*
X160630000Y-92623861D01*
X160664894Y-92620424D01*
X160698447Y-92610246D01*
X160729370Y-92593717D01*
X160756474Y-92571474D01*
X160778717Y-92544370D01*
X160795246Y-92513447D01*
X160805424Y-92479894D01*
X160808861Y-92445000D01*
X160808861Y-91705000D01*
X160805424Y-91670106D01*
X160795246Y-91636553D01*
X160778717Y-91605630D01*
X160756474Y-91578526D01*
X160729370Y-91556283D01*
X160698447Y-91539754D01*
X160664894Y-91529576D01*
X160630000Y-91526139D01*
X158230000Y-91526139D01*
X158195106Y-91529576D01*
X158161553Y-91539754D01*
X158130630Y-91556283D01*
X158103526Y-91578526D01*
X158081283Y-91605630D01*
X158064754Y-91636553D01*
X158054576Y-91670106D01*
X158051139Y-91705000D01*
X158051139Y-91861337D01*
X158029248Y-91867978D01*
X158010953Y-91877757D01*
X157990508Y-91888685D01*
X157956552Y-91916552D01*
X157949564Y-91925067D01*
X157387631Y-92487000D01*
X157286563Y-92487000D01*
X157290700Y-92445000D01*
X157288000Y-92418500D01*
X157148500Y-92279000D01*
X155734000Y-92279000D01*
X155734000Y-92299000D01*
X155326000Y-92299000D01*
X155326000Y-92279000D01*
X153911500Y-92279000D01*
X153772000Y-92418500D01*
X153769300Y-92445000D01*
X153773437Y-92487000D01*
X152227681Y-92487000D01*
X152205031Y-92453102D01*
X152148898Y-92396969D01*
X152082892Y-92352866D01*
X152009551Y-92322487D01*
X151931692Y-92307000D01*
X151852308Y-92307000D01*
X151774449Y-92322487D01*
X151701108Y-92352866D01*
X151635102Y-92396969D01*
X151578969Y-92453102D01*
X151534866Y-92519108D01*
X151504487Y-92592449D01*
X151489000Y-92670308D01*
X151489000Y-92749692D01*
X151496285Y-92786315D01*
X149563710Y-90853741D01*
X149563710Y-90130308D01*
X150727000Y-90130308D01*
X150727000Y-90209692D01*
X150742487Y-90287551D01*
X150772866Y-90360892D01*
X150816969Y-90426898D01*
X150873102Y-90483031D01*
X150939108Y-90527134D01*
X151012449Y-90557513D01*
X151090308Y-90573000D01*
X151169692Y-90573000D01*
X151247551Y-90557513D01*
X151320892Y-90527134D01*
X151386898Y-90483031D01*
X151443031Y-90426898D01*
X151465681Y-90393000D01*
X154059268Y-90393000D01*
X154115429Y-90423019D01*
X154151249Y-90433885D01*
X154151139Y-90435000D01*
X154151139Y-91175000D01*
X154151249Y-91176115D01*
X154115429Y-91186981D01*
X154059268Y-91217000D01*
X151846681Y-91217000D01*
X151824031Y-91183102D01*
X151767898Y-91126969D01*
X151701892Y-91082866D01*
X151628551Y-91052487D01*
X151550692Y-91037000D01*
X151471308Y-91037000D01*
X151393449Y-91052487D01*
X151320108Y-91082866D01*
X151254102Y-91126969D01*
X151197969Y-91183102D01*
X151153866Y-91249108D01*
X151123487Y-91322449D01*
X151108000Y-91400308D01*
X151108000Y-91479692D01*
X151123487Y-91557551D01*
X151153866Y-91630892D01*
X151197969Y-91696898D01*
X151254102Y-91753031D01*
X151320108Y-91797134D01*
X151393449Y-91827513D01*
X151471308Y-91843000D01*
X151550692Y-91843000D01*
X151628551Y-91827513D01*
X151701892Y-91797134D01*
X151767898Y-91753031D01*
X151824031Y-91696898D01*
X151846681Y-91663000D01*
X153773437Y-91663000D01*
X153769300Y-91705000D01*
X153772000Y-91731500D01*
X153911500Y-91871000D01*
X155326000Y-91871000D01*
X155326000Y-91851000D01*
X155734000Y-91851000D01*
X155734000Y-91871000D01*
X157148500Y-91871000D01*
X157288000Y-91731500D01*
X157290700Y-91705000D01*
X157286563Y-91663000D01*
X157494046Y-91663000D01*
X157505000Y-91664079D01*
X157515954Y-91663000D01*
X157548716Y-91659773D01*
X157590751Y-91647022D01*
X157629492Y-91626315D01*
X157663448Y-91598448D01*
X157670436Y-91589933D01*
X158054208Y-91206161D01*
X158054576Y-91209894D01*
X158064754Y-91243447D01*
X158081283Y-91274370D01*
X158103526Y-91301474D01*
X158130630Y-91323717D01*
X158161553Y-91340246D01*
X158195106Y-91350424D01*
X158230000Y-91353861D01*
X160630000Y-91353861D01*
X160664894Y-91350424D01*
X160698447Y-91340246D01*
X160729370Y-91323717D01*
X160756474Y-91301474D01*
X160778717Y-91274370D01*
X160795246Y-91243447D01*
X160805424Y-91209894D01*
X160808861Y-91175000D01*
X160808861Y-90435000D01*
X160805424Y-90400106D01*
X160795246Y-90366553D01*
X160778717Y-90335630D01*
X160756474Y-90308526D01*
X160729370Y-90286283D01*
X160698447Y-90269754D01*
X160664894Y-90259576D01*
X160630000Y-90256139D01*
X158230000Y-90256139D01*
X158195106Y-90259576D01*
X158161553Y-90269754D01*
X158130630Y-90286283D01*
X158103526Y-90308526D01*
X158081283Y-90335630D01*
X158064754Y-90366553D01*
X158054576Y-90400106D01*
X158051139Y-90435000D01*
X158051139Y-90599640D01*
X158034878Y-90608332D01*
X158015508Y-90618685D01*
X157981552Y-90646552D01*
X157974564Y-90655067D01*
X157412631Y-91217000D01*
X157000732Y-91217000D01*
X156944571Y-91186981D01*
X156908751Y-91176115D01*
X156908861Y-91175000D01*
X156908861Y-90435000D01*
X156908751Y-90433885D01*
X156944571Y-90423019D01*
X157000732Y-90393000D01*
X157469046Y-90393000D01*
X157480000Y-90394079D01*
X157490954Y-90393000D01*
X157523716Y-90389773D01*
X157565751Y-90377022D01*
X157604492Y-90356315D01*
X157638448Y-90328448D01*
X157645436Y-90319933D01*
X158051967Y-89913402D01*
X158054576Y-89939894D01*
X158064754Y-89973447D01*
X158081283Y-90004370D01*
X158103526Y-90031474D01*
X158130630Y-90053717D01*
X158161553Y-90070246D01*
X158195106Y-90080424D01*
X158230000Y-90083861D01*
X160630000Y-90083861D01*
X160664894Y-90080424D01*
X160698447Y-90070246D01*
X160729370Y-90053717D01*
X160756474Y-90031474D01*
X160778717Y-90004370D01*
X160795246Y-89973447D01*
X160805424Y-89939894D01*
X160808861Y-89905000D01*
X160808861Y-89165000D01*
X160805424Y-89130106D01*
X160795246Y-89096553D01*
X160778717Y-89065630D01*
X160756474Y-89038526D01*
X160729370Y-89016283D01*
X160698447Y-88999754D01*
X160664894Y-88989576D01*
X160630000Y-88986139D01*
X158230000Y-88986139D01*
X158195106Y-88989576D01*
X158161553Y-88999754D01*
X158130630Y-89016283D01*
X158103526Y-89038526D01*
X158081283Y-89065630D01*
X158064754Y-89096553D01*
X158054576Y-89130106D01*
X158051139Y-89165000D01*
X158051139Y-89321337D01*
X158029248Y-89327978D01*
X158009878Y-89338332D01*
X157990508Y-89348685D01*
X157956552Y-89376552D01*
X157949564Y-89385067D01*
X157387631Y-89947000D01*
X157286563Y-89947000D01*
X157290700Y-89905000D01*
X157288000Y-89878500D01*
X157148500Y-89739000D01*
X155734000Y-89739000D01*
X155734000Y-89759000D01*
X155326000Y-89759000D01*
X155326000Y-89739000D01*
X153911500Y-89739000D01*
X153772000Y-89878500D01*
X153769300Y-89905000D01*
X153773437Y-89947000D01*
X151465681Y-89947000D01*
X151443031Y-89913102D01*
X151386898Y-89856969D01*
X151320892Y-89812866D01*
X151247551Y-89782487D01*
X151169692Y-89767000D01*
X151090308Y-89767000D01*
X151012449Y-89782487D01*
X150939108Y-89812866D01*
X150873102Y-89856969D01*
X150816969Y-89913102D01*
X150772866Y-89979108D01*
X150742487Y-90052449D01*
X150727000Y-90130308D01*
X149563710Y-90130308D01*
X149563710Y-88860308D01*
X151870000Y-88860308D01*
X151870000Y-88939692D01*
X151885487Y-89017551D01*
X151915866Y-89090892D01*
X151959969Y-89156898D01*
X152016102Y-89213031D01*
X152082108Y-89257134D01*
X152155449Y-89287513D01*
X152233308Y-89303000D01*
X152312692Y-89303000D01*
X152390551Y-89287513D01*
X152463892Y-89257134D01*
X152529898Y-89213031D01*
X152586031Y-89156898D01*
X152608681Y-89123000D01*
X153773437Y-89123000D01*
X153769300Y-89165000D01*
X153772000Y-89191500D01*
X153911500Y-89331000D01*
X155326000Y-89331000D01*
X155326000Y-89123000D01*
X155734000Y-89123000D01*
X155734000Y-89331000D01*
X157148500Y-89331000D01*
X157288000Y-89191500D01*
X157290700Y-89165000D01*
X157286563Y-89123000D01*
X157494046Y-89123000D01*
X157505000Y-89124079D01*
X157515954Y-89123000D01*
X157548716Y-89119773D01*
X157590751Y-89107022D01*
X157629492Y-89086315D01*
X157663448Y-89058448D01*
X157670436Y-89049933D01*
X158054208Y-88666161D01*
X158054576Y-88669894D01*
X158064754Y-88703447D01*
X158081283Y-88734370D01*
X158103526Y-88761474D01*
X158130630Y-88783717D01*
X158161553Y-88800246D01*
X158195106Y-88810424D01*
X158230000Y-88813861D01*
X160630000Y-88813861D01*
X160664894Y-88810424D01*
X160698447Y-88800246D01*
X160729370Y-88783717D01*
X160756474Y-88761474D01*
X160778717Y-88734370D01*
X160795246Y-88703447D01*
X160805424Y-88669894D01*
X160808861Y-88635000D01*
X160808861Y-87895000D01*
X160805424Y-87860106D01*
X160795246Y-87826553D01*
X160778717Y-87795630D01*
X160756474Y-87768526D01*
X160729370Y-87746283D01*
X160698447Y-87729754D01*
X160664894Y-87719576D01*
X160630000Y-87716139D01*
X158230000Y-87716139D01*
X158195106Y-87719576D01*
X158161553Y-87729754D01*
X158130630Y-87746283D01*
X158103526Y-87768526D01*
X158081283Y-87795630D01*
X158064754Y-87826553D01*
X158054576Y-87860106D01*
X158051139Y-87895000D01*
X158051139Y-88059640D01*
X158035953Y-88067757D01*
X158015508Y-88078685D01*
X157981552Y-88106552D01*
X157974564Y-88115067D01*
X157412631Y-88677000D01*
X157286563Y-88677000D01*
X157290700Y-88635000D01*
X157288000Y-88608500D01*
X157148500Y-88469000D01*
X155734000Y-88469000D01*
X155734000Y-88677000D01*
X155326000Y-88677000D01*
X155326000Y-88469000D01*
X153911500Y-88469000D01*
X153772000Y-88608500D01*
X153769300Y-88635000D01*
X153773437Y-88677000D01*
X152608681Y-88677000D01*
X152586031Y-88643102D01*
X152529898Y-88586969D01*
X152463892Y-88542866D01*
X152390551Y-88512487D01*
X152312692Y-88497000D01*
X152233308Y-88497000D01*
X152155449Y-88512487D01*
X152082108Y-88542866D01*
X152016102Y-88586969D01*
X151959969Y-88643102D01*
X151915866Y-88709108D01*
X151885487Y-88782449D01*
X151870000Y-88860308D01*
X149563710Y-88860308D01*
X149563710Y-87590308D01*
X152251000Y-87590308D01*
X152251000Y-87669692D01*
X152266487Y-87747551D01*
X152296866Y-87820892D01*
X152340969Y-87886898D01*
X152397102Y-87943031D01*
X152463108Y-87987134D01*
X152536449Y-88017513D01*
X152614308Y-88033000D01*
X152693692Y-88033000D01*
X152771551Y-88017513D01*
X152844892Y-87987134D01*
X152910898Y-87943031D01*
X152967031Y-87886898D01*
X152989681Y-87853000D01*
X153773437Y-87853000D01*
X153769300Y-87895000D01*
X153772000Y-87921500D01*
X153911500Y-88061000D01*
X155326000Y-88061000D01*
X155326000Y-87853000D01*
X155734000Y-87853000D01*
X155734000Y-88061000D01*
X157148500Y-88061000D01*
X157288000Y-87921500D01*
X157290700Y-87895000D01*
X157286563Y-87853000D01*
X157469046Y-87853000D01*
X157480000Y-87854079D01*
X157490954Y-87853000D01*
X157523716Y-87849773D01*
X157565751Y-87837022D01*
X157604492Y-87816315D01*
X157638448Y-87788448D01*
X157645436Y-87779933D01*
X158051967Y-87373402D01*
X158054576Y-87399894D01*
X158064754Y-87433447D01*
X158081283Y-87464370D01*
X158103526Y-87491474D01*
X158130630Y-87513717D01*
X158161553Y-87530246D01*
X158195106Y-87540424D01*
X158230000Y-87543861D01*
X160630000Y-87543861D01*
X160664894Y-87540424D01*
X160698447Y-87530246D01*
X160729370Y-87513717D01*
X160756474Y-87491474D01*
X160778717Y-87464370D01*
X160795246Y-87433447D01*
X160805424Y-87399894D01*
X160808861Y-87365000D01*
X160808861Y-86625000D01*
X160805424Y-86590106D01*
X160795246Y-86556553D01*
X160778717Y-86525630D01*
X160756474Y-86498526D01*
X160729370Y-86476283D01*
X160698447Y-86459754D01*
X160664894Y-86449576D01*
X160630000Y-86446139D01*
X158230000Y-86446139D01*
X158195106Y-86449576D01*
X158161553Y-86459754D01*
X158130630Y-86476283D01*
X158103526Y-86498526D01*
X158081283Y-86525630D01*
X158064754Y-86556553D01*
X158054576Y-86590106D01*
X158051139Y-86625000D01*
X158051139Y-86781337D01*
X158029248Y-86787978D01*
X158009879Y-86798331D01*
X157990508Y-86808685D01*
X157956552Y-86836552D01*
X157949564Y-86845067D01*
X157387631Y-87407000D01*
X157286563Y-87407000D01*
X157290700Y-87365000D01*
X157288000Y-87338500D01*
X157148500Y-87199000D01*
X155734000Y-87199000D01*
X155734000Y-87407000D01*
X155326000Y-87407000D01*
X155326000Y-87199000D01*
X153911500Y-87199000D01*
X153772000Y-87338500D01*
X153769300Y-87365000D01*
X153773437Y-87407000D01*
X152989681Y-87407000D01*
X152967031Y-87373102D01*
X152910898Y-87316969D01*
X152844892Y-87272866D01*
X152771551Y-87242487D01*
X152693692Y-87227000D01*
X152614308Y-87227000D01*
X152536449Y-87242487D01*
X152463108Y-87272866D01*
X152397102Y-87316969D01*
X152340969Y-87373102D01*
X152296866Y-87439108D01*
X152266487Y-87512449D01*
X152251000Y-87590308D01*
X149563710Y-87590308D01*
X149563710Y-86320308D01*
X152632000Y-86320308D01*
X152632000Y-86399692D01*
X152647487Y-86477551D01*
X152677866Y-86550892D01*
X152721969Y-86616898D01*
X152778102Y-86673031D01*
X152844108Y-86717134D01*
X152917449Y-86747513D01*
X152995308Y-86763000D01*
X153074692Y-86763000D01*
X153152551Y-86747513D01*
X153225892Y-86717134D01*
X153291898Y-86673031D01*
X153348031Y-86616898D01*
X153370681Y-86583000D01*
X153773437Y-86583000D01*
X153769300Y-86625000D01*
X153772000Y-86651500D01*
X153911500Y-86791000D01*
X155326000Y-86791000D01*
X155326000Y-86583000D01*
X155734000Y-86583000D01*
X155734000Y-86791000D01*
X157148500Y-86791000D01*
X157288000Y-86651500D01*
X157290700Y-86625000D01*
X157286563Y-86583000D01*
X157494046Y-86583000D01*
X157505000Y-86584079D01*
X157515954Y-86583000D01*
X157548716Y-86579773D01*
X157590751Y-86567022D01*
X157629492Y-86546315D01*
X157663448Y-86518448D01*
X157670436Y-86509933D01*
X158054208Y-86126161D01*
X158054576Y-86129894D01*
X158064754Y-86163447D01*
X158081283Y-86194370D01*
X158103526Y-86221474D01*
X158130630Y-86243717D01*
X158161553Y-86260246D01*
X158195106Y-86270424D01*
X158230000Y-86273861D01*
X160630000Y-86273861D01*
X160664894Y-86270424D01*
X160698447Y-86260246D01*
X160729370Y-86243717D01*
X160756474Y-86221474D01*
X160778717Y-86194370D01*
X160795246Y-86163447D01*
X160805424Y-86129894D01*
X160808861Y-86095000D01*
X160808861Y-85355000D01*
X160805424Y-85320106D01*
X160795246Y-85286553D01*
X160778717Y-85255630D01*
X160756474Y-85228526D01*
X160729370Y-85206283D01*
X160698447Y-85189754D01*
X160664894Y-85179576D01*
X160630000Y-85176139D01*
X158230000Y-85176139D01*
X158195106Y-85179576D01*
X158161553Y-85189754D01*
X158130630Y-85206283D01*
X158103526Y-85228526D01*
X158081283Y-85255630D01*
X158064754Y-85286553D01*
X158054576Y-85320106D01*
X158051139Y-85355000D01*
X158051139Y-85519640D01*
X158034879Y-85528331D01*
X158015508Y-85538685D01*
X157981552Y-85566552D01*
X157974564Y-85575067D01*
X157412631Y-86137000D01*
X157286563Y-86137000D01*
X157290700Y-86095000D01*
X157288000Y-86068500D01*
X157148500Y-85929000D01*
X155734000Y-85929000D01*
X155734000Y-86137000D01*
X155326000Y-86137000D01*
X155326000Y-85929000D01*
X153911500Y-85929000D01*
X153772000Y-86068500D01*
X153769300Y-86095000D01*
X153773437Y-86137000D01*
X153370681Y-86137000D01*
X153348031Y-86103102D01*
X153291898Y-86046969D01*
X153225892Y-86002866D01*
X153152551Y-85972487D01*
X153074692Y-85957000D01*
X152995308Y-85957000D01*
X152917449Y-85972487D01*
X152844108Y-86002866D01*
X152778102Y-86046969D01*
X152721969Y-86103102D01*
X152677866Y-86169108D01*
X152647487Y-86242449D01*
X152632000Y-86320308D01*
X149563710Y-86320308D01*
X149563710Y-85050308D01*
X153013000Y-85050308D01*
X153013000Y-85129692D01*
X153028487Y-85207551D01*
X153058866Y-85280892D01*
X153102969Y-85346898D01*
X153159102Y-85403031D01*
X153225108Y-85447134D01*
X153298449Y-85477513D01*
X153376308Y-85493000D01*
X153455692Y-85493000D01*
X153533551Y-85477513D01*
X153606892Y-85447134D01*
X153672898Y-85403031D01*
X153729031Y-85346898D01*
X153751681Y-85313000D01*
X153773437Y-85313000D01*
X153769300Y-85355000D01*
X153772000Y-85381500D01*
X153911500Y-85521000D01*
X155326000Y-85521000D01*
X155326000Y-85313000D01*
X155734000Y-85313000D01*
X155734000Y-85521000D01*
X157148500Y-85521000D01*
X157288000Y-85381500D01*
X157290700Y-85355000D01*
X157286563Y-85313000D01*
X157469046Y-85313000D01*
X157480000Y-85314079D01*
X157490954Y-85313000D01*
X157523716Y-85309773D01*
X157565751Y-85297022D01*
X157604492Y-85276315D01*
X157638448Y-85248448D01*
X157645436Y-85239933D01*
X158051967Y-84833402D01*
X158054576Y-84859894D01*
X158064754Y-84893447D01*
X158081283Y-84924370D01*
X158103526Y-84951474D01*
X158130630Y-84973717D01*
X158161553Y-84990246D01*
X158195106Y-85000424D01*
X158230000Y-85003861D01*
X160630000Y-85003861D01*
X160664894Y-85000424D01*
X160698447Y-84990246D01*
X160729370Y-84973717D01*
X160756474Y-84951474D01*
X160778717Y-84924370D01*
X160795246Y-84893447D01*
X160805424Y-84859894D01*
X160808861Y-84825000D01*
X160808861Y-84085000D01*
X160805424Y-84050106D01*
X160795246Y-84016553D01*
X160778717Y-83985630D01*
X160756474Y-83958526D01*
X160729370Y-83936283D01*
X160698447Y-83919754D01*
X160664894Y-83909576D01*
X160630000Y-83906139D01*
X158230000Y-83906139D01*
X158195106Y-83909576D01*
X158161553Y-83919754D01*
X158130630Y-83936283D01*
X158103526Y-83958526D01*
X158081283Y-83985630D01*
X158064754Y-84016553D01*
X158054576Y-84050106D01*
X158051139Y-84085000D01*
X158051139Y-84241337D01*
X158029248Y-84247978D01*
X158009879Y-84258331D01*
X157990508Y-84268685D01*
X157956552Y-84296552D01*
X157949564Y-84305067D01*
X157387631Y-84867000D01*
X157286563Y-84867000D01*
X157290700Y-84825000D01*
X157288000Y-84798500D01*
X157148500Y-84659000D01*
X155734000Y-84659000D01*
X155734000Y-84867000D01*
X155326000Y-84867000D01*
X155326000Y-84659000D01*
X153911500Y-84659000D01*
X153772000Y-84798500D01*
X153769300Y-84825000D01*
X153773437Y-84867000D01*
X153751681Y-84867000D01*
X153729031Y-84833102D01*
X153672898Y-84776969D01*
X153606892Y-84732866D01*
X153533551Y-84702487D01*
X153455692Y-84687000D01*
X153376308Y-84687000D01*
X153298449Y-84702487D01*
X153225108Y-84732866D01*
X153159102Y-84776969D01*
X153102969Y-84833102D01*
X153058866Y-84899108D01*
X153028487Y-84972449D01*
X153013000Y-85050308D01*
X149563710Y-85050308D01*
X149563710Y-83780308D01*
X153394000Y-83780308D01*
X153394000Y-83859692D01*
X153409487Y-83937551D01*
X153439866Y-84010892D01*
X153483969Y-84076898D01*
X153540102Y-84133031D01*
X153606108Y-84177134D01*
X153679449Y-84207513D01*
X153757308Y-84223000D01*
X153836692Y-84223000D01*
X153875734Y-84215234D01*
X153911500Y-84251000D01*
X155326000Y-84251000D01*
X155326000Y-84043000D01*
X155734000Y-84043000D01*
X155734000Y-84251000D01*
X157148500Y-84251000D01*
X157288000Y-84111500D01*
X157290700Y-84085000D01*
X157286563Y-84043000D01*
X157469046Y-84043000D01*
X157480000Y-84044079D01*
X157490954Y-84043000D01*
X157523716Y-84039773D01*
X157565751Y-84027022D01*
X157604492Y-84006315D01*
X157638448Y-83978448D01*
X157645436Y-83969933D01*
X158051967Y-83563402D01*
X158054576Y-83589894D01*
X158064754Y-83623447D01*
X158081283Y-83654370D01*
X158103526Y-83681474D01*
X158130630Y-83703717D01*
X158161553Y-83720246D01*
X158195106Y-83730424D01*
X158230000Y-83733861D01*
X160630000Y-83733861D01*
X160664894Y-83730424D01*
X160698447Y-83720246D01*
X160729370Y-83703717D01*
X160756474Y-83681474D01*
X160778717Y-83654370D01*
X160795246Y-83623447D01*
X160805424Y-83589894D01*
X160808861Y-83555000D01*
X160808861Y-82815000D01*
X160805424Y-82780106D01*
X160795246Y-82746553D01*
X160778717Y-82715630D01*
X160756474Y-82688526D01*
X160729370Y-82666283D01*
X160698447Y-82649754D01*
X160664894Y-82639576D01*
X160630000Y-82636139D01*
X158230000Y-82636139D01*
X158195106Y-82639576D01*
X158161553Y-82649754D01*
X158130630Y-82666283D01*
X158103526Y-82688526D01*
X158081283Y-82715630D01*
X158064754Y-82746553D01*
X158054576Y-82780106D01*
X158051139Y-82815000D01*
X158051139Y-82971337D01*
X158029248Y-82977978D01*
X158009878Y-82988332D01*
X157990508Y-82998685D01*
X157956552Y-83026552D01*
X157949564Y-83035067D01*
X157387631Y-83597000D01*
X157286563Y-83597000D01*
X157290700Y-83555000D01*
X157288000Y-83528500D01*
X157148500Y-83389000D01*
X155734000Y-83389000D01*
X155734000Y-83597000D01*
X155326000Y-83597000D01*
X155326000Y-83389000D01*
X153911500Y-83389000D01*
X153875734Y-83424766D01*
X153836692Y-83417000D01*
X153757308Y-83417000D01*
X153679449Y-83432487D01*
X153606108Y-83462866D01*
X153540102Y-83506969D01*
X153483969Y-83563102D01*
X153439866Y-83629108D01*
X153409487Y-83702449D01*
X153394000Y-83780308D01*
X149563710Y-83780308D01*
X149563710Y-82864063D01*
X149564789Y-82853109D01*
X149560483Y-82809394D01*
X149558002Y-82801216D01*
X149547732Y-82767359D01*
X149527025Y-82728618D01*
X149499158Y-82694662D01*
X149490649Y-82687679D01*
X149313278Y-82510308D01*
X153394000Y-82510308D01*
X153394000Y-82589692D01*
X153409487Y-82667551D01*
X153439866Y-82740892D01*
X153483969Y-82806898D01*
X153540102Y-82863031D01*
X153606108Y-82907134D01*
X153679449Y-82937513D01*
X153757308Y-82953000D01*
X153836692Y-82953000D01*
X153875734Y-82945234D01*
X153911500Y-82981000D01*
X155326000Y-82981000D01*
X155326000Y-82773000D01*
X155734000Y-82773000D01*
X155734000Y-82981000D01*
X157148500Y-82981000D01*
X157288000Y-82841500D01*
X157290700Y-82815000D01*
X157286563Y-82773000D01*
X157494046Y-82773000D01*
X157505000Y-82774079D01*
X157515954Y-82773000D01*
X157548716Y-82769773D01*
X157590751Y-82757022D01*
X157629492Y-82736315D01*
X157663448Y-82708448D01*
X157670436Y-82699933D01*
X158054208Y-82316161D01*
X158054576Y-82319894D01*
X158064754Y-82353447D01*
X158081283Y-82384370D01*
X158103526Y-82411474D01*
X158130630Y-82433717D01*
X158161553Y-82450246D01*
X158195106Y-82460424D01*
X158230000Y-82463861D01*
X160630000Y-82463861D01*
X160664894Y-82460424D01*
X160698447Y-82450246D01*
X160729370Y-82433717D01*
X160756474Y-82411474D01*
X160778717Y-82384370D01*
X160795246Y-82353447D01*
X160805424Y-82319894D01*
X160808861Y-82285000D01*
X160808861Y-81545000D01*
X160805424Y-81510106D01*
X160795246Y-81476553D01*
X160778717Y-81445630D01*
X160756474Y-81418526D01*
X160729370Y-81396283D01*
X160698447Y-81379754D01*
X160664894Y-81369576D01*
X160630000Y-81366139D01*
X158230000Y-81366139D01*
X158195106Y-81369576D01*
X158161553Y-81379754D01*
X158130630Y-81396283D01*
X158103526Y-81418526D01*
X158081283Y-81445630D01*
X158064754Y-81476553D01*
X158054576Y-81510106D01*
X158051139Y-81545000D01*
X158051139Y-81709640D01*
X158034879Y-81718331D01*
X158015508Y-81728685D01*
X157981552Y-81756552D01*
X157974564Y-81765067D01*
X157412631Y-82327000D01*
X157286563Y-82327000D01*
X157290700Y-82285000D01*
X157288000Y-82258500D01*
X157148500Y-82119000D01*
X155734000Y-82119000D01*
X155734000Y-82327000D01*
X155326000Y-82327000D01*
X155326000Y-82119000D01*
X153911500Y-82119000D01*
X153875734Y-82154766D01*
X153836692Y-82147000D01*
X153757308Y-82147000D01*
X153679449Y-82162487D01*
X153606108Y-82192866D01*
X153540102Y-82236969D01*
X153483969Y-82293102D01*
X153439866Y-82359108D01*
X153409487Y-82432449D01*
X153394000Y-82510308D01*
X149313278Y-82510308D01*
X149151530Y-82348561D01*
X149257300Y-82348561D01*
X149292194Y-82345124D01*
X149325747Y-82334946D01*
X149356670Y-82318417D01*
X149383774Y-82296174D01*
X149406017Y-82269070D01*
X149422546Y-82238147D01*
X149432724Y-82204594D01*
X149436161Y-82169700D01*
X149436161Y-81545000D01*
X153769300Y-81545000D01*
X153772000Y-81571500D01*
X153911500Y-81711000D01*
X155326000Y-81711000D01*
X155326000Y-81126500D01*
X155734000Y-81126500D01*
X155734000Y-81711000D01*
X157148500Y-81711000D01*
X157288000Y-81571500D01*
X157290700Y-81545000D01*
X157279926Y-81435613D01*
X157248019Y-81330429D01*
X157196205Y-81233492D01*
X157126475Y-81148525D01*
X157041508Y-81078795D01*
X156944571Y-81026981D01*
X156839387Y-80995074D01*
X156730000Y-80984300D01*
X155873500Y-80987000D01*
X155734000Y-81126500D01*
X155326000Y-81126500D01*
X155186500Y-80987000D01*
X154330000Y-80984300D01*
X154220613Y-80995074D01*
X154115429Y-81026981D01*
X154018492Y-81078795D01*
X153933525Y-81148525D01*
X153863795Y-81233492D01*
X153811981Y-81330429D01*
X153780074Y-81435613D01*
X153769300Y-81545000D01*
X149436161Y-81545000D01*
X149436161Y-80669700D01*
X149432724Y-80634806D01*
X149422546Y-80601253D01*
X149406017Y-80570330D01*
X149383774Y-80543226D01*
X149356670Y-80520983D01*
X149325747Y-80504454D01*
X149292194Y-80494276D01*
X149257300Y-80490839D01*
X148257300Y-80490839D01*
X148222222Y-80494312D01*
X148188680Y-80504526D01*
X148157775Y-80521087D01*
X148130694Y-80543359D01*
X148108479Y-80570486D01*
X148107159Y-80572466D01*
X148106017Y-80570330D01*
X148083774Y-80543226D01*
X148056670Y-80520983D01*
X148025747Y-80504454D01*
X147992194Y-80494276D01*
X147957300Y-80490839D01*
X146807300Y-80490839D01*
X146772406Y-80494276D01*
X146738853Y-80504454D01*
X146707930Y-80520983D01*
X146680826Y-80543226D01*
X146658583Y-80570330D01*
X146642054Y-80601253D01*
X146631876Y-80634806D01*
X146628439Y-80669700D01*
X146628439Y-81196700D01*
X140841257Y-81196700D01*
X140830300Y-81195621D01*
X140786584Y-81199926D01*
X140744548Y-81212678D01*
X140725178Y-81223032D01*
X140705808Y-81233385D01*
X140671852Y-81261252D01*
X140664864Y-81269767D01*
X140254097Y-81680534D01*
X140095302Y-81595656D01*
X139901523Y-81536874D01*
X139750503Y-81522000D01*
X139649497Y-81522000D01*
X139498477Y-81536874D01*
X139304698Y-81595656D01*
X139126110Y-81691114D01*
X138969577Y-81819577D01*
X138841114Y-81976110D01*
X138745656Y-82154698D01*
X138686874Y-82348477D01*
X138667026Y-82550000D01*
X138686874Y-82751523D01*
X138745656Y-82945302D01*
X138841114Y-83123890D01*
X138969577Y-83280423D01*
X139126110Y-83408886D01*
X139304698Y-83504344D01*
X139498477Y-83563126D01*
X139649497Y-83578000D01*
X139750503Y-83578000D01*
X139901523Y-83563126D01*
X140095302Y-83504344D01*
X140273890Y-83408886D01*
X140430423Y-83280423D01*
X140558886Y-83123890D01*
X140654344Y-82945302D01*
X140713126Y-82751523D01*
X140732974Y-82550000D01*
X140713126Y-82348477D01*
X140654344Y-82154698D01*
X140569466Y-81995903D01*
X140922669Y-81642700D01*
X141146133Y-81642700D01*
X141143618Y-81650992D01*
X141138791Y-81700000D01*
X141138791Y-83400000D01*
X141143618Y-83449008D01*
X141157913Y-83496134D01*
X141181127Y-83539564D01*
X141212368Y-83577632D01*
X141250436Y-83608873D01*
X141293866Y-83632087D01*
X141340992Y-83646382D01*
X141390000Y-83651209D01*
X143090000Y-83651209D01*
X143139008Y-83646382D01*
X143186134Y-83632087D01*
X143229564Y-83608873D01*
X143267632Y-83577632D01*
X143298873Y-83539564D01*
X143322087Y-83496134D01*
X143336382Y-83449008D01*
X143341209Y-83400000D01*
X143341209Y-83037604D01*
X148140000Y-87836396D01*
X148140001Y-91437886D01*
X148140000Y-91437896D01*
X148140000Y-91608791D01*
X147740000Y-91608791D01*
X147690992Y-91613618D01*
X147643866Y-91627913D01*
X147600436Y-91651127D01*
X147562368Y-91682368D01*
X147531127Y-91720436D01*
X147507913Y-91763866D01*
X147493618Y-91810992D01*
X147488791Y-91860000D01*
X147488791Y-93560000D01*
X147493618Y-93609008D01*
X147507913Y-93656134D01*
X147531127Y-93699564D01*
X147562368Y-93737632D01*
X147600436Y-93768873D01*
X147643866Y-93792087D01*
X147690992Y-93806382D01*
X147740000Y-93811209D01*
X149440000Y-93811209D01*
X149489008Y-93806382D01*
X149536134Y-93792087D01*
X149579564Y-93768873D01*
X149617632Y-93737632D01*
X149648873Y-93699564D01*
X149672087Y-93656134D01*
X149686382Y-93609008D01*
X149691209Y-93560000D01*
X149691209Y-93197604D01*
X152230219Y-95736614D01*
X152155449Y-95751487D01*
X152082108Y-95781866D01*
X152016102Y-95825969D01*
X151959969Y-95882102D01*
X151937319Y-95916000D01*
X149571370Y-95916000D01*
X149459466Y-95804096D01*
X149544344Y-95645302D01*
X149603126Y-95451523D01*
X149622974Y-95250000D01*
X149603126Y-95048477D01*
X149544344Y-94854698D01*
X149448886Y-94676110D01*
X149320423Y-94519577D01*
X149163890Y-94391114D01*
X148985302Y-94295656D01*
X148791523Y-94236874D01*
X148640503Y-94222000D01*
X148539497Y-94222000D01*
X148388477Y-94236874D01*
X148194698Y-94295656D01*
X148016110Y-94391114D01*
X147859577Y-94519577D01*
X147731114Y-94676110D01*
X147635656Y-94854698D01*
X147583389Y-95027000D01*
X147412370Y-95027000D01*
X144945436Y-92560067D01*
X144938448Y-92551552D01*
X144904492Y-92523685D01*
X144865751Y-92502978D01*
X144823716Y-92490227D01*
X144790954Y-92487000D01*
X144780000Y-92485921D01*
X144769046Y-92487000D01*
X143246611Y-92487000D01*
X143194344Y-92314698D01*
X143098886Y-92136110D01*
X142970423Y-91979577D01*
X142813890Y-91851114D01*
X142635302Y-91755656D01*
X142441523Y-91696874D01*
X142290503Y-91682000D01*
X142189497Y-91682000D01*
X142038477Y-91696874D01*
X141844698Y-91755656D01*
X141666110Y-91851114D01*
X141509577Y-91979577D01*
X141381114Y-92136110D01*
X141285656Y-92314698D01*
X141226874Y-92508477D01*
X141207026Y-92710000D01*
X141226874Y-92911523D01*
X141285656Y-93105302D01*
X141381114Y-93283890D01*
X141509577Y-93440423D01*
X141666110Y-93568886D01*
X141844698Y-93664344D01*
X142038477Y-93723126D01*
X142189497Y-93738000D01*
X142290503Y-93738000D01*
X142441523Y-93723126D01*
X142635302Y-93664344D01*
X142813890Y-93568886D01*
X142970423Y-93440423D01*
X143098886Y-93283890D01*
X143194344Y-93105302D01*
X143246611Y-92933000D01*
X144687631Y-92933000D01*
X147154568Y-95399938D01*
X147161552Y-95408448D01*
X147195508Y-95436315D01*
X147234249Y-95457022D01*
X147276284Y-95469773D01*
X147309046Y-95473000D01*
X147309052Y-95473000D01*
X147319999Y-95474078D01*
X147330946Y-95473000D01*
X147583389Y-95473000D01*
X147635656Y-95645302D01*
X147731114Y-95823890D01*
X147859577Y-95980423D01*
X148016110Y-96108886D01*
X148194698Y-96204344D01*
X148388477Y-96263126D01*
X148539497Y-96278000D01*
X148640503Y-96278000D01*
X148791523Y-96263126D01*
X148985302Y-96204344D01*
X149144096Y-96119466D01*
X149313568Y-96288938D01*
X149320552Y-96297448D01*
X149354508Y-96325315D01*
X149393249Y-96346022D01*
X149435284Y-96358773D01*
X149479000Y-96363079D01*
X149489954Y-96362000D01*
X151937319Y-96362000D01*
X151959969Y-96395898D01*
X152016102Y-96452031D01*
X152082108Y-96496134D01*
X152155449Y-96526513D01*
X152233308Y-96542000D01*
X152312692Y-96542000D01*
X152326117Y-96539330D01*
X152318319Y-96551000D01*
X149571370Y-96551000D01*
X149390436Y-96370067D01*
X149383448Y-96361552D01*
X149349492Y-96333685D01*
X149310751Y-96312978D01*
X149268716Y-96300227D01*
X149235954Y-96297000D01*
X149225000Y-96295921D01*
X149214046Y-96297000D01*
X143602370Y-96297000D01*
X143109466Y-95804096D01*
X143194344Y-95645302D01*
X143253126Y-95451523D01*
X143272974Y-95250000D01*
X143253126Y-95048477D01*
X143194344Y-94854698D01*
X143098886Y-94676110D01*
X142970423Y-94519577D01*
X142813890Y-94391114D01*
X142635302Y-94295656D01*
X142441523Y-94236874D01*
X142290503Y-94222000D01*
X142189497Y-94222000D01*
X142038477Y-94236874D01*
X141844698Y-94295656D01*
X141666110Y-94391114D01*
X141509577Y-94519577D01*
X141381114Y-94676110D01*
X141285656Y-94854698D01*
X141226874Y-95048477D01*
X141207026Y-95250000D01*
X141226874Y-95451523D01*
X141285656Y-95645302D01*
X141381114Y-95823890D01*
X141509577Y-95980423D01*
X141666110Y-96108886D01*
X141844698Y-96204344D01*
X142038477Y-96263126D01*
X142189497Y-96278000D01*
X142290503Y-96278000D01*
X142441523Y-96263126D01*
X142635302Y-96204344D01*
X142794096Y-96119466D01*
X143344568Y-96669938D01*
X143351552Y-96678448D01*
X143385508Y-96706315D01*
X143424249Y-96727022D01*
X143466284Y-96739773D01*
X143509999Y-96744079D01*
X143520953Y-96743000D01*
X147654416Y-96743000D01*
X147494526Y-96905453D01*
X147343009Y-97136166D01*
X147245922Y-97370576D01*
X147338011Y-97586000D01*
X148386000Y-97586000D01*
X148386000Y-97566000D01*
X148794000Y-97566000D01*
X148794000Y-97586000D01*
X149841989Y-97586000D01*
X149934078Y-97370576D01*
X149836991Y-97136166D01*
X149745596Y-96997000D01*
X152318319Y-96997000D01*
X152340969Y-97030898D01*
X152397102Y-97087031D01*
X152463108Y-97131134D01*
X152536449Y-97161513D01*
X152614308Y-97177000D01*
X152693692Y-97177000D01*
X152771551Y-97161513D01*
X152844892Y-97131134D01*
X152910898Y-97087031D01*
X152967031Y-97030898D01*
X153011134Y-96964892D01*
X153041513Y-96891551D01*
X153057000Y-96813692D01*
X153057000Y-96734308D01*
X153041513Y-96656449D01*
X153011134Y-96583108D01*
X152967031Y-96517102D01*
X152910898Y-96460969D01*
X152844892Y-96416866D01*
X152771551Y-96386487D01*
X152693692Y-96371000D01*
X152614308Y-96371000D01*
X152600883Y-96373670D01*
X152630134Y-96329892D01*
X152660513Y-96256551D01*
X152675385Y-96181781D01*
X152988176Y-96494572D01*
X153002263Y-96511737D01*
X153019428Y-96525824D01*
X153019432Y-96525828D01*
X153070783Y-96567971D01*
X153119641Y-96594086D01*
X153148959Y-96609757D01*
X153233785Y-96635489D01*
X153299895Y-96642000D01*
X153299906Y-96642000D01*
X153322000Y-96644176D01*
X153344094Y-96642000D01*
X156903001Y-96642000D01*
X156903001Y-101187117D01*
X156895246Y-101161553D01*
X156878717Y-101130630D01*
X156856474Y-101103526D01*
X156829370Y-101081283D01*
X156798447Y-101064754D01*
X156764894Y-101054576D01*
X156730000Y-101051139D01*
X154330000Y-101051139D01*
X154295106Y-101054576D01*
X154261553Y-101064754D01*
X154230630Y-101081283D01*
X154203526Y-101103526D01*
X154181283Y-101130630D01*
X154164754Y-101161553D01*
X154154576Y-101195106D01*
X154151139Y-101230000D01*
X154151139Y-101377000D01*
X153700929Y-101377000D01*
X153729031Y-101348898D01*
X153773134Y-101282892D01*
X153803513Y-101209551D01*
X153819000Y-101131692D01*
X153819000Y-101052308D01*
X153803513Y-100974449D01*
X153773134Y-100901108D01*
X153729031Y-100835102D01*
X153672898Y-100778969D01*
X153606892Y-100734866D01*
X153533551Y-100704487D01*
X153455692Y-100689000D01*
X153376308Y-100689000D01*
X153298449Y-100704487D01*
X153225108Y-100734866D01*
X153159102Y-100778969D01*
X153102969Y-100835102D01*
X153080319Y-100869000D01*
X149743946Y-100869000D01*
X149732999Y-100867922D01*
X149722052Y-100869000D01*
X149722046Y-100869000D01*
X149689284Y-100872227D01*
X149647249Y-100884978D01*
X149608508Y-100905685D01*
X149574552Y-100933552D01*
X149567568Y-100942062D01*
X149132631Y-101377000D01*
X143602370Y-101377000D01*
X143109466Y-100884096D01*
X143194344Y-100725302D01*
X143253126Y-100531523D01*
X143272974Y-100330000D01*
X147557026Y-100330000D01*
X147576874Y-100531523D01*
X147635656Y-100725302D01*
X147731114Y-100903890D01*
X147859577Y-101060423D01*
X148016110Y-101188886D01*
X148194698Y-101284344D01*
X148388477Y-101343126D01*
X148539497Y-101358000D01*
X148640503Y-101358000D01*
X148791523Y-101343126D01*
X148985302Y-101284344D01*
X149163890Y-101188886D01*
X149320423Y-101060423D01*
X149448886Y-100903890D01*
X149544344Y-100725302D01*
X149596611Y-100553000D01*
X150794319Y-100553000D01*
X150816969Y-100586898D01*
X150873102Y-100643031D01*
X150939108Y-100687134D01*
X151012449Y-100717513D01*
X151090308Y-100733000D01*
X151169692Y-100733000D01*
X151247551Y-100717513D01*
X151320892Y-100687134D01*
X151386898Y-100643031D01*
X151443031Y-100586898D01*
X151487134Y-100520892D01*
X151517513Y-100447551D01*
X151533000Y-100369692D01*
X151533000Y-100290308D01*
X151517513Y-100212449D01*
X151487134Y-100139108D01*
X151443031Y-100073102D01*
X151386898Y-100016969D01*
X151320892Y-99972866D01*
X151247551Y-99942487D01*
X151169692Y-99927000D01*
X151090308Y-99927000D01*
X151012449Y-99942487D01*
X150939108Y-99972866D01*
X150873102Y-100016969D01*
X150816969Y-100073102D01*
X150794319Y-100107000D01*
X149596611Y-100107000D01*
X149544344Y-99934698D01*
X149448886Y-99756110D01*
X149320423Y-99599577D01*
X149163890Y-99471114D01*
X148985302Y-99375656D01*
X148791523Y-99316874D01*
X148640503Y-99302000D01*
X148539497Y-99302000D01*
X148388477Y-99316874D01*
X148194698Y-99375656D01*
X148016110Y-99471114D01*
X147859577Y-99599577D01*
X147731114Y-99756110D01*
X147635656Y-99934698D01*
X147576874Y-100128477D01*
X147557026Y-100330000D01*
X143272974Y-100330000D01*
X143253126Y-100128477D01*
X143194344Y-99934698D01*
X143098886Y-99756110D01*
X142970423Y-99599577D01*
X142813890Y-99471114D01*
X142635302Y-99375656D01*
X142441523Y-99316874D01*
X142290503Y-99302000D01*
X142189497Y-99302000D01*
X142038477Y-99316874D01*
X141844698Y-99375656D01*
X141666110Y-99471114D01*
X141509577Y-99599577D01*
X141381114Y-99756110D01*
X141285656Y-99934698D01*
X141226874Y-100128477D01*
X141207026Y-100330000D01*
X141226874Y-100531523D01*
X141285656Y-100725302D01*
X141381114Y-100903890D01*
X141509577Y-101060423D01*
X141666110Y-101188886D01*
X141844698Y-101284344D01*
X142038477Y-101343126D01*
X142189497Y-101358000D01*
X142290503Y-101358000D01*
X142441523Y-101343126D01*
X142635302Y-101284344D01*
X142794096Y-101199466D01*
X143344568Y-101749938D01*
X143351552Y-101758448D01*
X143385508Y-101786315D01*
X143424249Y-101807022D01*
X143466284Y-101819773D01*
X143509999Y-101824079D01*
X143520953Y-101823000D01*
X149214046Y-101823000D01*
X149225000Y-101824079D01*
X149235954Y-101823000D01*
X149268716Y-101819773D01*
X149310751Y-101807022D01*
X149349492Y-101786315D01*
X149383448Y-101758448D01*
X149390436Y-101749933D01*
X149825370Y-101315000D01*
X151607071Y-101315000D01*
X151578969Y-101343102D01*
X151556319Y-101377000D01*
X149870953Y-101377000D01*
X149859999Y-101375921D01*
X149816284Y-101380227D01*
X149774249Y-101392978D01*
X149735508Y-101413685D01*
X149701552Y-101441552D01*
X149694570Y-101450060D01*
X149144096Y-102000534D01*
X148985302Y-101915656D01*
X148791523Y-101856874D01*
X148640503Y-101842000D01*
X148539497Y-101842000D01*
X148388477Y-101856874D01*
X148194698Y-101915656D01*
X148016110Y-102011114D01*
X147859577Y-102139577D01*
X147731114Y-102296110D01*
X147635656Y-102474698D01*
X147576874Y-102668477D01*
X147557026Y-102870000D01*
X147576874Y-103071523D01*
X147635656Y-103265302D01*
X147731114Y-103443890D01*
X147859577Y-103600423D01*
X148016110Y-103728886D01*
X148194698Y-103824344D01*
X148388477Y-103883126D01*
X148539497Y-103898000D01*
X148640503Y-103898000D01*
X148791523Y-103883126D01*
X148985302Y-103824344D01*
X149163890Y-103728886D01*
X149320423Y-103600423D01*
X149448886Y-103443890D01*
X149544344Y-103265302D01*
X149603126Y-103071523D01*
X149622974Y-102870000D01*
X149603126Y-102668477D01*
X149544344Y-102474698D01*
X149459466Y-102315904D01*
X149952370Y-101823000D01*
X151556319Y-101823000D01*
X151578969Y-101856898D01*
X151635102Y-101913031D01*
X151701108Y-101957134D01*
X151774449Y-101987513D01*
X151852308Y-102003000D01*
X151931692Y-102003000D01*
X152009551Y-101987513D01*
X152082892Y-101957134D01*
X152148898Y-101913031D01*
X152205031Y-101856898D01*
X152227681Y-101823000D01*
X154151139Y-101823000D01*
X154151139Y-101970000D01*
X154154576Y-102004894D01*
X154164754Y-102038447D01*
X154181283Y-102069370D01*
X154203526Y-102096474D01*
X154230630Y-102118717D01*
X154261553Y-102135246D01*
X154295106Y-102145424D01*
X154330000Y-102148861D01*
X156730000Y-102148861D01*
X156764894Y-102145424D01*
X156798447Y-102135246D01*
X156829370Y-102118717D01*
X156856474Y-102096474D01*
X156878717Y-102069370D01*
X156895246Y-102038447D01*
X156903000Y-102012884D01*
X156903000Y-102457116D01*
X156895246Y-102431553D01*
X156878717Y-102400630D01*
X156856474Y-102373526D01*
X156829370Y-102351283D01*
X156798447Y-102334754D01*
X156764894Y-102324576D01*
X156730000Y-102321139D01*
X154330000Y-102321139D01*
X154295106Y-102324576D01*
X154261553Y-102334754D01*
X154230630Y-102351283D01*
X154203526Y-102373526D01*
X154181283Y-102400630D01*
X154164754Y-102431553D01*
X154154576Y-102465106D01*
X154151139Y-102500000D01*
X154151139Y-102647000D01*
X151846681Y-102647000D01*
X151824031Y-102613102D01*
X151767898Y-102556969D01*
X151701892Y-102512866D01*
X151628551Y-102482487D01*
X151550692Y-102467000D01*
X151471308Y-102467000D01*
X151393449Y-102482487D01*
X151320108Y-102512866D01*
X151254102Y-102556969D01*
X151197969Y-102613102D01*
X151153866Y-102679108D01*
X151123487Y-102752449D01*
X151108000Y-102830308D01*
X151108000Y-102909692D01*
X151123487Y-102987551D01*
X151153866Y-103060892D01*
X151197969Y-103126898D01*
X151254102Y-103183031D01*
X151320108Y-103227134D01*
X151393449Y-103257513D01*
X151471308Y-103273000D01*
X151550692Y-103273000D01*
X151628551Y-103257513D01*
X151701892Y-103227134D01*
X151767898Y-103183031D01*
X151824031Y-103126898D01*
X151846681Y-103093000D01*
X154151139Y-103093000D01*
X154151139Y-103240000D01*
X154154576Y-103274894D01*
X154164754Y-103308447D01*
X154181283Y-103339370D01*
X154203526Y-103366474D01*
X154230630Y-103388717D01*
X154261553Y-103405246D01*
X154295106Y-103415424D01*
X154330000Y-103418861D01*
X156730000Y-103418861D01*
X156764894Y-103415424D01*
X156798447Y-103405246D01*
X156829370Y-103388717D01*
X156856474Y-103366474D01*
X156878717Y-103339370D01*
X156895246Y-103308447D01*
X156903000Y-103282884D01*
X156903000Y-103727116D01*
X156895246Y-103701553D01*
X156878717Y-103670630D01*
X156856474Y-103643526D01*
X156829370Y-103621283D01*
X156798447Y-103604754D01*
X156764894Y-103594576D01*
X156730000Y-103591139D01*
X154330000Y-103591139D01*
X154295106Y-103594576D01*
X154261553Y-103604754D01*
X154230630Y-103621283D01*
X154203526Y-103643526D01*
X154181283Y-103670630D01*
X154164754Y-103701553D01*
X154154576Y-103735106D01*
X154151139Y-103770000D01*
X154151139Y-103917000D01*
X153370681Y-103917000D01*
X153348031Y-103883102D01*
X153291898Y-103826969D01*
X153225892Y-103782866D01*
X153152551Y-103752487D01*
X153074692Y-103737000D01*
X152995308Y-103737000D01*
X152917449Y-103752487D01*
X152844108Y-103782866D01*
X152778102Y-103826969D01*
X152721969Y-103883102D01*
X152699319Y-103917000D01*
X149870953Y-103917000D01*
X149859999Y-103915921D01*
X149816284Y-103920227D01*
X149774249Y-103932978D01*
X149735508Y-103953685D01*
X149701552Y-103981552D01*
X149694570Y-103990060D01*
X149144096Y-104540534D01*
X148985302Y-104455656D01*
X148791523Y-104396874D01*
X148640503Y-104382000D01*
X148539497Y-104382000D01*
X148388477Y-104396874D01*
X148194698Y-104455656D01*
X148016110Y-104551114D01*
X147859577Y-104679577D01*
X147731114Y-104836110D01*
X147635656Y-105014698D01*
X147576874Y-105208477D01*
X147557026Y-105410000D01*
X147576874Y-105611523D01*
X147635656Y-105805302D01*
X147731114Y-105983890D01*
X147859577Y-106140423D01*
X148016110Y-106268886D01*
X148194698Y-106364344D01*
X148388477Y-106423126D01*
X148539497Y-106438000D01*
X148640503Y-106438000D01*
X148791523Y-106423126D01*
X148985302Y-106364344D01*
X149163890Y-106268886D01*
X149320423Y-106140423D01*
X149448886Y-105983890D01*
X149544344Y-105805302D01*
X149603126Y-105611523D01*
X149622974Y-105410000D01*
X149603126Y-105208477D01*
X149544344Y-105014698D01*
X149459466Y-104855904D01*
X149952370Y-104363000D01*
X152699319Y-104363000D01*
X152721969Y-104396898D01*
X152778102Y-104453031D01*
X152844108Y-104497134D01*
X152917449Y-104527513D01*
X152995308Y-104543000D01*
X153074692Y-104543000D01*
X153152551Y-104527513D01*
X153225892Y-104497134D01*
X153291898Y-104453031D01*
X153348031Y-104396898D01*
X153370681Y-104363000D01*
X154151139Y-104363000D01*
X154151139Y-104510000D01*
X154154576Y-104544894D01*
X154164754Y-104578447D01*
X154181283Y-104609370D01*
X154203526Y-104636474D01*
X154230630Y-104658717D01*
X154261553Y-104675246D01*
X154295106Y-104685424D01*
X154330000Y-104688861D01*
X156730000Y-104688861D01*
X156764894Y-104685424D01*
X156798447Y-104675246D01*
X156829370Y-104658717D01*
X156856474Y-104636474D01*
X156878717Y-104609370D01*
X156895246Y-104578447D01*
X156903000Y-104552884D01*
X156903000Y-104997115D01*
X156895246Y-104971553D01*
X156878717Y-104940630D01*
X156856474Y-104913526D01*
X156829370Y-104891283D01*
X156798447Y-104874754D01*
X156764894Y-104864576D01*
X156730000Y-104861139D01*
X154330000Y-104861139D01*
X154295106Y-104864576D01*
X154261553Y-104874754D01*
X154230630Y-104891283D01*
X154203526Y-104913526D01*
X154181283Y-104940630D01*
X154164754Y-104971553D01*
X154154576Y-105005106D01*
X154151139Y-105040000D01*
X154151139Y-105187000D01*
X152608681Y-105187000D01*
X152586031Y-105153102D01*
X152529898Y-105096969D01*
X152463892Y-105052866D01*
X152390551Y-105022487D01*
X152312692Y-105007000D01*
X152233308Y-105007000D01*
X152155449Y-105022487D01*
X152082108Y-105052866D01*
X152016102Y-105096969D01*
X151959969Y-105153102D01*
X151915866Y-105219108D01*
X151885487Y-105292449D01*
X151870000Y-105370308D01*
X151870000Y-105449692D01*
X151885487Y-105527551D01*
X151915866Y-105600892D01*
X151959969Y-105666898D01*
X152016102Y-105723031D01*
X152082108Y-105767134D01*
X152155449Y-105797513D01*
X152233308Y-105813000D01*
X152312692Y-105813000D01*
X152390551Y-105797513D01*
X152463892Y-105767134D01*
X152529898Y-105723031D01*
X152586031Y-105666898D01*
X152608681Y-105633000D01*
X154151139Y-105633000D01*
X154151139Y-105780000D01*
X154154576Y-105814894D01*
X154164754Y-105848447D01*
X154181283Y-105879370D01*
X154203526Y-105906474D01*
X154230630Y-105928717D01*
X154261553Y-105945246D01*
X154295106Y-105955424D01*
X154330000Y-105958861D01*
X156730000Y-105958861D01*
X156764894Y-105955424D01*
X156798447Y-105945246D01*
X156829370Y-105928717D01*
X156856474Y-105906474D01*
X156878717Y-105879370D01*
X156895246Y-105848447D01*
X156903000Y-105822885D01*
X156903000Y-106180906D01*
X156900824Y-106203000D01*
X156903000Y-106225094D01*
X156903000Y-106225104D01*
X156909511Y-106291214D01*
X156923704Y-106338000D01*
X156935243Y-106376040D01*
X156977029Y-106454216D01*
X157007436Y-106491267D01*
X157033263Y-106522737D01*
X157050433Y-106536828D01*
X157496176Y-106982572D01*
X157510263Y-106999737D01*
X157527428Y-107013824D01*
X157527432Y-107013828D01*
X157578783Y-107055971D01*
X157600377Y-107067513D01*
X157656959Y-107097757D01*
X157741785Y-107123489D01*
X157807895Y-107130000D01*
X157807905Y-107130000D01*
X157830000Y-107132176D01*
X157852094Y-107130000D01*
X157993019Y-107130000D01*
X157997913Y-107146134D01*
X158021127Y-107189564D01*
X158052368Y-107227632D01*
X158090436Y-107258873D01*
X158133866Y-107282087D01*
X158180992Y-107296382D01*
X158230000Y-107301209D01*
X160630000Y-107301209D01*
X160679008Y-107296382D01*
X160726134Y-107282087D01*
X160769564Y-107258873D01*
X160807632Y-107227632D01*
X160838873Y-107189564D01*
X160862087Y-107146134D01*
X160876382Y-107099008D01*
X160881209Y-107050000D01*
X160881209Y-106310000D01*
X160878256Y-106280014D01*
X160941508Y-106246205D01*
X161026475Y-106176475D01*
X161087001Y-106102723D01*
X161087001Y-107747000D01*
X154061929Y-107747000D01*
X154110031Y-107698898D01*
X154154134Y-107632892D01*
X154184513Y-107559551D01*
X154200000Y-107481692D01*
X154200000Y-107402308D01*
X154184513Y-107324449D01*
X154154134Y-107251108D01*
X154110031Y-107185102D01*
X154053898Y-107128969D01*
X153987892Y-107084866D01*
X153914551Y-107054487D01*
X153836692Y-107039000D01*
X153757308Y-107039000D01*
X153679449Y-107054487D01*
X153606108Y-107084866D01*
X153540102Y-107128969D01*
X153483969Y-107185102D01*
X153461319Y-107219000D01*
X144364370Y-107219000D01*
X143785678Y-106640308D01*
X150727000Y-106640308D01*
X150727000Y-106719692D01*
X150742487Y-106797551D01*
X150772866Y-106870892D01*
X150816969Y-106936898D01*
X150873102Y-106993031D01*
X150939108Y-107037134D01*
X151012449Y-107067513D01*
X151090308Y-107083000D01*
X151169692Y-107083000D01*
X151247551Y-107067513D01*
X151320892Y-107037134D01*
X151386898Y-106993031D01*
X151443031Y-106936898D01*
X151465681Y-106903000D01*
X154151139Y-106903000D01*
X154151139Y-107050000D01*
X154154576Y-107084894D01*
X154164754Y-107118447D01*
X154181283Y-107149370D01*
X154203526Y-107176474D01*
X154230630Y-107198717D01*
X154261553Y-107215246D01*
X154295106Y-107225424D01*
X154330000Y-107228861D01*
X156730000Y-107228861D01*
X156764894Y-107225424D01*
X156798447Y-107215246D01*
X156829370Y-107198717D01*
X156856474Y-107176474D01*
X156878717Y-107149370D01*
X156895246Y-107118447D01*
X156905424Y-107084894D01*
X156908861Y-107050000D01*
X156908861Y-106310000D01*
X156905424Y-106275106D01*
X156895246Y-106241553D01*
X156878717Y-106210630D01*
X156856474Y-106183526D01*
X156829370Y-106161283D01*
X156798447Y-106144754D01*
X156764894Y-106134576D01*
X156730000Y-106131139D01*
X154330000Y-106131139D01*
X154295106Y-106134576D01*
X154261553Y-106144754D01*
X154230630Y-106161283D01*
X154203526Y-106183526D01*
X154181283Y-106210630D01*
X154164754Y-106241553D01*
X154154576Y-106275106D01*
X154151139Y-106310000D01*
X154151139Y-106457000D01*
X151465681Y-106457000D01*
X151443031Y-106423102D01*
X151386898Y-106366969D01*
X151320892Y-106322866D01*
X151247551Y-106292487D01*
X151169692Y-106277000D01*
X151090308Y-106277000D01*
X151012449Y-106292487D01*
X150939108Y-106322866D01*
X150873102Y-106366969D01*
X150816969Y-106423102D01*
X150772866Y-106489108D01*
X150742487Y-106562449D01*
X150727000Y-106640308D01*
X143785678Y-106640308D01*
X143109466Y-105964097D01*
X143194344Y-105805302D01*
X143253126Y-105611523D01*
X143272974Y-105410000D01*
X143253126Y-105208477D01*
X143194344Y-105014698D01*
X143098886Y-104836110D01*
X142970423Y-104679577D01*
X142813890Y-104551114D01*
X142635302Y-104455656D01*
X142441523Y-104396874D01*
X142290503Y-104382000D01*
X142189497Y-104382000D01*
X142038477Y-104396874D01*
X141844698Y-104455656D01*
X141666110Y-104551114D01*
X141509577Y-104679577D01*
X141381114Y-104836110D01*
X141285656Y-105014698D01*
X141226874Y-105208477D01*
X141207026Y-105410000D01*
X141226874Y-105611523D01*
X141285656Y-105805302D01*
X141381114Y-105983890D01*
X141509577Y-106140423D01*
X141666110Y-106268886D01*
X141844698Y-106364344D01*
X142038477Y-106423126D01*
X142189497Y-106438000D01*
X142290503Y-106438000D01*
X142441523Y-106423126D01*
X142635302Y-106364344D01*
X142794097Y-106279466D01*
X144106568Y-107591938D01*
X144113552Y-107600448D01*
X144147508Y-107628315D01*
X144186249Y-107649022D01*
X144228284Y-107661773D01*
X144272000Y-107666079D01*
X144282954Y-107665000D01*
X153461319Y-107665000D01*
X153483969Y-107698898D01*
X153532071Y-107747000D01*
X138633000Y-107747000D01*
X138633000Y-106323477D01*
X138798142Y-106491267D01*
X139026416Y-106646434D01*
X139280575Y-106754086D01*
X139496000Y-106663651D01*
X139496000Y-105614000D01*
X139904000Y-105614000D01*
X139904000Y-106663651D01*
X140119425Y-106754086D01*
X140373584Y-106646434D01*
X140601858Y-106491267D01*
X140795474Y-106294547D01*
X140946991Y-106063834D01*
X141044078Y-105829424D01*
X140951989Y-105614000D01*
X139904000Y-105614000D01*
X139496000Y-105614000D01*
X139476000Y-105614000D01*
X139476000Y-105206000D01*
X139496000Y-105206000D01*
X139496000Y-104156349D01*
X139457055Y-104140000D01*
X139496000Y-104123651D01*
X139496000Y-103074000D01*
X139904000Y-103074000D01*
X139904000Y-104123651D01*
X139942945Y-104140000D01*
X139904000Y-104156349D01*
X139904000Y-105206000D01*
X140951989Y-105206000D01*
X141044078Y-104990576D01*
X140946991Y-104756166D01*
X140795474Y-104525453D01*
X140601858Y-104328733D01*
X140373584Y-104173566D01*
X140294337Y-104140000D01*
X140373584Y-104106434D01*
X140601858Y-103951267D01*
X140795474Y-103754547D01*
X140946991Y-103523834D01*
X141044078Y-103289424D01*
X140951989Y-103074000D01*
X139904000Y-103074000D01*
X139496000Y-103074000D01*
X139476000Y-103074000D01*
X139476000Y-102870000D01*
X141207026Y-102870000D01*
X141226874Y-103071523D01*
X141285656Y-103265302D01*
X141381114Y-103443890D01*
X141509577Y-103600423D01*
X141666110Y-103728886D01*
X141844698Y-103824344D01*
X142038477Y-103883126D01*
X142189497Y-103898000D01*
X142290503Y-103898000D01*
X142441523Y-103883126D01*
X142635302Y-103824344D01*
X142794096Y-103739466D01*
X143344568Y-104289938D01*
X143351552Y-104298448D01*
X143385508Y-104326315D01*
X143424249Y-104347022D01*
X143466284Y-104359773D01*
X143509999Y-104364079D01*
X143520953Y-104363000D01*
X149087046Y-104363000D01*
X149098000Y-104364079D01*
X149108954Y-104363000D01*
X149141716Y-104359773D01*
X149183751Y-104347022D01*
X149222492Y-104326315D01*
X149256448Y-104298448D01*
X149263436Y-104289933D01*
X149825369Y-103728000D01*
X153461319Y-103728000D01*
X153483969Y-103761898D01*
X153540102Y-103818031D01*
X153606108Y-103862134D01*
X153679449Y-103892513D01*
X153757308Y-103908000D01*
X153836692Y-103908000D01*
X153914551Y-103892513D01*
X153987892Y-103862134D01*
X154053898Y-103818031D01*
X154110031Y-103761898D01*
X154154134Y-103695892D01*
X154184513Y-103622551D01*
X154200000Y-103544692D01*
X154200000Y-103465308D01*
X154184513Y-103387449D01*
X154154134Y-103314108D01*
X154110031Y-103248102D01*
X154053898Y-103191969D01*
X153987892Y-103147866D01*
X153914551Y-103117487D01*
X153836692Y-103102000D01*
X153757308Y-103102000D01*
X153679449Y-103117487D01*
X153606108Y-103147866D01*
X153540102Y-103191969D01*
X153483969Y-103248102D01*
X153461319Y-103282000D01*
X149743957Y-103282000D01*
X149733000Y-103280921D01*
X149689284Y-103285226D01*
X149647248Y-103297978D01*
X149627878Y-103308332D01*
X149608508Y-103318685D01*
X149574552Y-103346552D01*
X149567564Y-103355067D01*
X149005631Y-103917000D01*
X143602370Y-103917000D01*
X143109466Y-103424096D01*
X143194344Y-103265302D01*
X143253126Y-103071523D01*
X143272974Y-102870000D01*
X143253126Y-102668477D01*
X143194344Y-102474698D01*
X143098886Y-102296110D01*
X142970423Y-102139577D01*
X142813890Y-102011114D01*
X142635302Y-101915656D01*
X142441523Y-101856874D01*
X142290503Y-101842000D01*
X142189497Y-101842000D01*
X142038477Y-101856874D01*
X141844698Y-101915656D01*
X141666110Y-102011114D01*
X141509577Y-102139577D01*
X141381114Y-102296110D01*
X141285656Y-102474698D01*
X141226874Y-102668477D01*
X141207026Y-102870000D01*
X139476000Y-102870000D01*
X139476000Y-102666000D01*
X139496000Y-102666000D01*
X139496000Y-101616349D01*
X139457055Y-101600000D01*
X139496000Y-101583651D01*
X139496000Y-100534000D01*
X139904000Y-100534000D01*
X139904000Y-101583651D01*
X139942945Y-101600000D01*
X139904000Y-101616349D01*
X139904000Y-102666000D01*
X140951989Y-102666000D01*
X141044078Y-102450576D01*
X140946991Y-102216166D01*
X140795474Y-101985453D01*
X140601858Y-101788733D01*
X140373584Y-101633566D01*
X140294337Y-101600000D01*
X140373584Y-101566434D01*
X140601858Y-101411267D01*
X140795474Y-101214547D01*
X140946991Y-100983834D01*
X141044078Y-100749424D01*
X140951989Y-100534000D01*
X139904000Y-100534000D01*
X139496000Y-100534000D01*
X139476000Y-100534000D01*
X139476000Y-100126000D01*
X139496000Y-100126000D01*
X139496000Y-99076349D01*
X139457055Y-99060000D01*
X139496000Y-99043651D01*
X139496000Y-97994000D01*
X139904000Y-97994000D01*
X139904000Y-99043651D01*
X139942945Y-99060000D01*
X139904000Y-99076349D01*
X139904000Y-100126000D01*
X140951989Y-100126000D01*
X141044078Y-99910576D01*
X140946991Y-99676166D01*
X140795474Y-99445453D01*
X140601858Y-99248733D01*
X140373584Y-99093566D01*
X140294337Y-99060000D01*
X140373584Y-99026434D01*
X140601858Y-98871267D01*
X140795474Y-98674547D01*
X140946991Y-98443834D01*
X141044078Y-98209424D01*
X140951989Y-97994000D01*
X139904000Y-97994000D01*
X139496000Y-97994000D01*
X139476000Y-97994000D01*
X139476000Y-97790000D01*
X141207026Y-97790000D01*
X141226874Y-97991523D01*
X141285656Y-98185302D01*
X141381114Y-98363890D01*
X141509577Y-98520423D01*
X141666110Y-98648886D01*
X141844698Y-98744344D01*
X142038477Y-98803126D01*
X142189497Y-98818000D01*
X142290503Y-98818000D01*
X142441523Y-98803126D01*
X142635302Y-98744344D01*
X142794096Y-98659466D01*
X143217568Y-99082938D01*
X143224552Y-99091448D01*
X143258508Y-99119315D01*
X143297249Y-99140022D01*
X143339284Y-99152773D01*
X143382999Y-99157079D01*
X143393953Y-99156000D01*
X152699319Y-99156000D01*
X152721969Y-99189898D01*
X152778102Y-99246031D01*
X152844108Y-99290134D01*
X152917449Y-99320513D01*
X152995308Y-99336000D01*
X153074692Y-99336000D01*
X153152551Y-99320513D01*
X153225892Y-99290134D01*
X153291898Y-99246031D01*
X153348031Y-99189898D01*
X153392134Y-99123892D01*
X153422513Y-99050551D01*
X153438000Y-98972692D01*
X153438000Y-98893308D01*
X153422513Y-98815449D01*
X153392134Y-98742108D01*
X153348031Y-98676102D01*
X153291898Y-98619969D01*
X153225892Y-98575866D01*
X153152551Y-98545487D01*
X153074692Y-98530000D01*
X152995308Y-98530000D01*
X152917449Y-98545487D01*
X152844108Y-98575866D01*
X152778102Y-98619969D01*
X152721969Y-98676102D01*
X152699319Y-98710000D01*
X149650580Y-98710000D01*
X149685474Y-98674547D01*
X149836991Y-98443834D01*
X149934078Y-98209424D01*
X149841989Y-97994000D01*
X148794000Y-97994000D01*
X148794000Y-98710000D01*
X148386000Y-98710000D01*
X148386000Y-97994000D01*
X147338011Y-97994000D01*
X147245922Y-98209424D01*
X147343009Y-98443834D01*
X147494526Y-98674547D01*
X147529420Y-98710000D01*
X143475370Y-98710000D01*
X143109466Y-98344096D01*
X143194344Y-98185302D01*
X143253126Y-97991523D01*
X143272974Y-97790000D01*
X143253126Y-97588477D01*
X143194344Y-97394698D01*
X143098886Y-97216110D01*
X142970423Y-97059577D01*
X142813890Y-96931114D01*
X142635302Y-96835656D01*
X142441523Y-96776874D01*
X142290503Y-96762000D01*
X142189497Y-96762000D01*
X142038477Y-96776874D01*
X141844698Y-96835656D01*
X141666110Y-96931114D01*
X141509577Y-97059577D01*
X141381114Y-97216110D01*
X141285656Y-97394698D01*
X141226874Y-97588477D01*
X141207026Y-97790000D01*
X139476000Y-97790000D01*
X139476000Y-97586000D01*
X139496000Y-97586000D01*
X139496000Y-96536349D01*
X139457055Y-96520000D01*
X139496000Y-96503651D01*
X139496000Y-95454000D01*
X139904000Y-95454000D01*
X139904000Y-96503651D01*
X139942945Y-96520000D01*
X139904000Y-96536349D01*
X139904000Y-97586000D01*
X140951989Y-97586000D01*
X141044078Y-97370576D01*
X140946991Y-97136166D01*
X140795474Y-96905453D01*
X140601858Y-96708733D01*
X140373584Y-96553566D01*
X140294337Y-96520000D01*
X140373584Y-96486434D01*
X140601858Y-96331267D01*
X140795474Y-96134547D01*
X140946991Y-95903834D01*
X141044078Y-95669424D01*
X140951989Y-95454000D01*
X139904000Y-95454000D01*
X139496000Y-95454000D01*
X139476000Y-95454000D01*
X139476000Y-95046000D01*
X139496000Y-95046000D01*
X139496000Y-93996349D01*
X139457055Y-93980000D01*
X139496000Y-93963651D01*
X139496000Y-92914000D01*
X139904000Y-92914000D01*
X139904000Y-93963651D01*
X139942945Y-93980000D01*
X139904000Y-93996349D01*
X139904000Y-95046000D01*
X140951989Y-95046000D01*
X141044078Y-94830576D01*
X140946991Y-94596166D01*
X140795474Y-94365453D01*
X140601858Y-94168733D01*
X140373584Y-94013566D01*
X140294337Y-93980000D01*
X140373584Y-93946434D01*
X140601858Y-93791267D01*
X140795474Y-93594547D01*
X140946991Y-93363834D01*
X141044078Y-93129424D01*
X140951989Y-92914000D01*
X139904000Y-92914000D01*
X139496000Y-92914000D01*
X139476000Y-92914000D01*
X139476000Y-92506000D01*
X139496000Y-92506000D01*
X139496000Y-91456349D01*
X139457055Y-91440000D01*
X139496000Y-91423651D01*
X139496000Y-90374000D01*
X139904000Y-90374000D01*
X139904000Y-91423651D01*
X139942945Y-91440000D01*
X139904000Y-91456349D01*
X139904000Y-92506000D01*
X140951989Y-92506000D01*
X141044078Y-92290576D01*
X140946991Y-92056166D01*
X140795474Y-91825453D01*
X140601858Y-91628733D01*
X140373584Y-91473566D01*
X140294337Y-91440000D01*
X140373584Y-91406434D01*
X140601858Y-91251267D01*
X140795474Y-91054547D01*
X140946991Y-90823834D01*
X141044078Y-90589424D01*
X140951989Y-90374000D01*
X139904000Y-90374000D01*
X139496000Y-90374000D01*
X139476000Y-90374000D01*
X139476000Y-90170000D01*
X141207026Y-90170000D01*
X141226874Y-90371523D01*
X141285656Y-90565302D01*
X141381114Y-90743890D01*
X141509577Y-90900423D01*
X141666110Y-91028886D01*
X141844698Y-91124344D01*
X142038477Y-91183126D01*
X142189497Y-91198000D01*
X142290503Y-91198000D01*
X142441523Y-91183126D01*
X142635302Y-91124344D01*
X142813890Y-91028886D01*
X142970423Y-90900423D01*
X143098886Y-90743890D01*
X143194344Y-90565302D01*
X143253126Y-90371523D01*
X143272974Y-90170000D01*
X143253126Y-89968477D01*
X143194344Y-89774698D01*
X143098886Y-89596110D01*
X142970423Y-89439577D01*
X142813890Y-89311114D01*
X142635302Y-89215656D01*
X142441523Y-89156874D01*
X142290503Y-89142000D01*
X142189497Y-89142000D01*
X142038477Y-89156874D01*
X141844698Y-89215656D01*
X141666110Y-89311114D01*
X141509577Y-89439577D01*
X141381114Y-89596110D01*
X141285656Y-89774698D01*
X141226874Y-89968477D01*
X141207026Y-90170000D01*
X139476000Y-90170000D01*
X139476000Y-89966000D01*
X139496000Y-89966000D01*
X139496000Y-88916349D01*
X139457055Y-88900000D01*
X139496000Y-88883651D01*
X139496000Y-87834000D01*
X139904000Y-87834000D01*
X139904000Y-88883651D01*
X139942945Y-88900000D01*
X139904000Y-88916349D01*
X139904000Y-89966000D01*
X140951989Y-89966000D01*
X141044078Y-89750576D01*
X140946991Y-89516166D01*
X140795474Y-89285453D01*
X140601858Y-89088733D01*
X140373584Y-88933566D01*
X140294337Y-88900000D01*
X140373584Y-88866434D01*
X140601858Y-88711267D01*
X140795474Y-88514547D01*
X140946991Y-88283834D01*
X141044078Y-88049424D01*
X140951989Y-87834000D01*
X139904000Y-87834000D01*
X139496000Y-87834000D01*
X139476000Y-87834000D01*
X139476000Y-87630000D01*
X141207026Y-87630000D01*
X141226874Y-87831523D01*
X141285656Y-88025302D01*
X141381114Y-88203890D01*
X141509577Y-88360423D01*
X141666110Y-88488886D01*
X141844698Y-88584344D01*
X142038477Y-88643126D01*
X142189497Y-88658000D01*
X142290503Y-88658000D01*
X142441523Y-88643126D01*
X142635302Y-88584344D01*
X142813890Y-88488886D01*
X142970423Y-88360423D01*
X143098886Y-88203890D01*
X143194344Y-88025302D01*
X143253126Y-87831523D01*
X143272974Y-87630000D01*
X143253126Y-87428477D01*
X143194344Y-87234698D01*
X143098886Y-87056110D01*
X142970423Y-86899577D01*
X142813890Y-86771114D01*
X142635302Y-86675656D01*
X142441523Y-86616874D01*
X142290503Y-86602000D01*
X142189497Y-86602000D01*
X142038477Y-86616874D01*
X141844698Y-86675656D01*
X141666110Y-86771114D01*
X141509577Y-86899577D01*
X141381114Y-87056110D01*
X141285656Y-87234698D01*
X141226874Y-87428477D01*
X141207026Y-87630000D01*
X139476000Y-87630000D01*
X139476000Y-87426000D01*
X139496000Y-87426000D01*
X139496000Y-86376349D01*
X139457055Y-86360000D01*
X139496000Y-86343651D01*
X139496000Y-85294000D01*
X139904000Y-85294000D01*
X139904000Y-86343651D01*
X139942945Y-86360000D01*
X139904000Y-86376349D01*
X139904000Y-87426000D01*
X140951989Y-87426000D01*
X141044078Y-87210576D01*
X140946991Y-86976166D01*
X140795474Y-86745453D01*
X140601858Y-86548733D01*
X140373584Y-86393566D01*
X140294337Y-86360000D01*
X140373584Y-86326434D01*
X140601858Y-86171267D01*
X140795474Y-85974547D01*
X140946991Y-85743834D01*
X141044078Y-85509424D01*
X140951989Y-85294000D01*
X139904000Y-85294000D01*
X139496000Y-85294000D01*
X139476000Y-85294000D01*
X139476000Y-85090000D01*
X141207026Y-85090000D01*
X141226874Y-85291523D01*
X141285656Y-85485302D01*
X141381114Y-85663890D01*
X141509577Y-85820423D01*
X141666110Y-85948886D01*
X141844698Y-86044344D01*
X142038477Y-86103126D01*
X142189497Y-86118000D01*
X142290503Y-86118000D01*
X142441523Y-86103126D01*
X142635302Y-86044344D01*
X142813890Y-85948886D01*
X142970423Y-85820423D01*
X143098886Y-85663890D01*
X143194344Y-85485302D01*
X143253126Y-85291523D01*
X143272974Y-85090000D01*
X143253126Y-84888477D01*
X143194344Y-84694698D01*
X143098886Y-84516110D01*
X142970423Y-84359577D01*
X142813890Y-84231114D01*
X142635302Y-84135656D01*
X142441523Y-84076874D01*
X142290503Y-84062000D01*
X142189497Y-84062000D01*
X142038477Y-84076874D01*
X141844698Y-84135656D01*
X141666110Y-84231114D01*
X141509577Y-84359577D01*
X141381114Y-84516110D01*
X141285656Y-84694698D01*
X141226874Y-84888477D01*
X141207026Y-85090000D01*
X139476000Y-85090000D01*
X139476000Y-84886000D01*
X139496000Y-84886000D01*
X139496000Y-83836349D01*
X139904000Y-83836349D01*
X139904000Y-84886000D01*
X140951989Y-84886000D01*
X141044078Y-84670576D01*
X140946991Y-84436166D01*
X140795474Y-84205453D01*
X140601858Y-84008733D01*
X140373584Y-83853566D01*
X140119425Y-83745914D01*
X139904000Y-83836349D01*
X139496000Y-83836349D01*
X139280575Y-83745914D01*
X139026416Y-83853566D01*
X138798142Y-84008733D01*
X138633000Y-84176523D01*
X138633000Y-80213000D01*
X161087000Y-80213000D01*
X161087001Y-100907276D01*
X161087001Y-100907276D01*
G37*
X161087001Y-100907276D02*
X161026475Y-100833525D01*
X160941508Y-100763795D01*
X160844571Y-100711981D01*
X160739387Y-100680074D01*
X160630000Y-100669300D01*
X159773500Y-100672000D01*
X159634000Y-100811500D01*
X159634000Y-101396000D01*
X159654000Y-101396000D01*
X159654000Y-101804000D01*
X159634000Y-101804000D01*
X159634000Y-101824000D01*
X159226000Y-101824000D01*
X159226000Y-101804000D01*
X159206000Y-101804000D01*
X159206000Y-101396000D01*
X159226000Y-101396000D01*
X159226000Y-100811500D01*
X159086500Y-100672000D01*
X158230000Y-100669300D01*
X158120613Y-100680074D01*
X158015429Y-100711981D01*
X157918492Y-100763795D01*
X157833525Y-100833525D01*
X157803000Y-100870720D01*
X157803000Y-96378395D01*
X159732573Y-94448823D01*
X159749737Y-94434737D01*
X159763824Y-94417572D01*
X159763828Y-94417568D01*
X159805971Y-94366217D01*
X159847757Y-94288041D01*
X159847757Y-94288040D01*
X159873489Y-94203215D01*
X159880000Y-94137105D01*
X159880000Y-94137094D01*
X159882176Y-94115000D01*
X159880000Y-94092906D01*
X159880000Y-93966209D01*
X160630000Y-93966209D01*
X160679008Y-93961382D01*
X160726134Y-93947087D01*
X160769564Y-93923873D01*
X160807632Y-93892632D01*
X160838873Y-93854564D01*
X160862087Y-93811134D01*
X160876382Y-93764008D01*
X160881209Y-93715000D01*
X160881209Y-92975000D01*
X160876382Y-92925992D01*
X160862087Y-92878866D01*
X160838873Y-92835436D01*
X160807632Y-92797368D01*
X160769564Y-92766127D01*
X160726134Y-92742913D01*
X160679008Y-92728618D01*
X160630000Y-92723791D01*
X158230000Y-92723791D01*
X158180992Y-92728618D01*
X158133866Y-92742913D01*
X158090436Y-92766127D01*
X158052368Y-92797368D01*
X158021127Y-92835436D01*
X157997913Y-92878866D01*
X157983618Y-92925992D01*
X157978791Y-92975000D01*
X157978791Y-93715000D01*
X157983618Y-93764008D01*
X157997913Y-93811134D01*
X158021127Y-93854564D01*
X158052368Y-93892632D01*
X158090436Y-93923873D01*
X158133866Y-93947087D01*
X158180992Y-93961382D01*
X158230000Y-93966209D01*
X158942395Y-93966209D01*
X157166605Y-95742000D01*
X153508396Y-95742000D01*
X150173829Y-92407434D01*
X150159737Y-92390263D01*
X150091216Y-92334029D01*
X150013041Y-92292243D01*
X149928215Y-92266511D01*
X149862105Y-92260000D01*
X149862094Y-92260000D01*
X149840000Y-92257824D01*
X149817906Y-92260000D01*
X149691209Y-92260000D01*
X149691209Y-91860000D01*
X149686382Y-91810992D01*
X149672087Y-91763866D01*
X149648873Y-91720436D01*
X149617632Y-91682368D01*
X149579564Y-91651127D01*
X149536134Y-91627913D01*
X149489008Y-91613618D01*
X149440000Y-91608791D01*
X149040000Y-91608791D01*
X149040000Y-87672093D01*
X149042176Y-87649999D01*
X149040000Y-87627905D01*
X149040000Y-87627895D01*
X149033489Y-87561785D01*
X149007757Y-87476959D01*
X149001028Y-87464370D01*
X148965971Y-87398783D01*
X148923828Y-87347432D01*
X148923824Y-87347428D01*
X148909737Y-87330263D01*
X148892573Y-87316177D01*
X143823829Y-82247434D01*
X143809737Y-82230263D01*
X143741216Y-82174029D01*
X143663041Y-82132243D01*
X143578215Y-82106511D01*
X143512105Y-82100000D01*
X143512094Y-82100000D01*
X143490000Y-82097824D01*
X143467906Y-82100000D01*
X143341209Y-82100000D01*
X143341209Y-81700000D01*
X143336382Y-81650992D01*
X143333867Y-81642700D01*
X146628439Y-81642700D01*
X146628439Y-82169700D01*
X146631876Y-82204594D01*
X146642054Y-82238147D01*
X146658583Y-82269070D01*
X146680826Y-82296174D01*
X146707930Y-82318417D01*
X146738853Y-82334946D01*
X146772406Y-82345124D01*
X146807300Y-82348561D01*
X147957300Y-82348561D01*
X147992011Y-82345161D01*
X148025574Y-82335018D01*
X148056514Y-82318521D01*
X148083641Y-82296306D01*
X148105913Y-82269225D01*
X148107149Y-82266919D01*
X148108479Y-82268914D01*
X148130826Y-82296174D01*
X148157930Y-82318417D01*
X148188853Y-82334946D01*
X148222406Y-82345124D01*
X148257300Y-82348561D01*
X148548189Y-82348561D01*
X148550279Y-82355451D01*
X148570986Y-82394192D01*
X148598853Y-82428148D01*
X148607363Y-82435132D01*
X149117710Y-82945480D01*
X149117710Y-83109757D01*
X149117711Y-90935146D01*
X149116631Y-90946110D01*
X149120937Y-90989825D01*
X149131539Y-91024773D01*
X149133689Y-91031861D01*
X149154396Y-91070602D01*
X149182263Y-91104558D01*
X149190773Y-91111542D01*
X151574168Y-93494938D01*
X151581152Y-93503448D01*
X151615108Y-93531315D01*
X151653849Y-93552022D01*
X151695884Y-93564773D01*
X151739600Y-93569079D01*
X151750554Y-93568000D01*
X154151139Y-93568000D01*
X154151139Y-93715000D01*
X154154576Y-93749894D01*
X154164754Y-93783447D01*
X154181283Y-93814370D01*
X154203526Y-93841474D01*
X154230630Y-93863717D01*
X154261553Y-93880246D01*
X154295106Y-93890424D01*
X154330000Y-93893861D01*
X156730000Y-93893861D01*
X156764894Y-93890424D01*
X156798447Y-93880246D01*
X156829370Y-93863717D01*
X156856474Y-93841474D01*
X156878717Y-93814370D01*
X156895246Y-93783447D01*
X156905424Y-93749894D01*
X156908861Y-93715000D01*
X156908861Y-92975000D01*
X156908751Y-92973885D01*
X156944571Y-92963019D01*
X157000732Y-92933000D01*
X157469046Y-92933000D01*
X157480000Y-92934079D01*
X157490954Y-92933000D01*
X157523716Y-92929773D01*
X157565751Y-92917022D01*
X157604492Y-92896315D01*
X157638448Y-92868448D01*
X157645436Y-92859933D01*
X158051967Y-92453402D01*
X158054576Y-92479894D01*
X158064754Y-92513447D01*
X158081283Y-92544370D01*
X158103526Y-92571474D01*
X158130630Y-92593717D01*
X158161553Y-92610246D01*
X158195106Y-92620424D01*
X158230000Y-92623861D01*
X160630000Y-92623861D01*
X160664894Y-92620424D01*
X160698447Y-92610246D01*
X160729370Y-92593717D01*
X160756474Y-92571474D01*
X160778717Y-92544370D01*
X160795246Y-92513447D01*
X160805424Y-92479894D01*
X160808861Y-92445000D01*
X160808861Y-91705000D01*
X160805424Y-91670106D01*
X160795246Y-91636553D01*
X160778717Y-91605630D01*
X160756474Y-91578526D01*
X160729370Y-91556283D01*
X160698447Y-91539754D01*
X160664894Y-91529576D01*
X160630000Y-91526139D01*
X158230000Y-91526139D01*
X158195106Y-91529576D01*
X158161553Y-91539754D01*
X158130630Y-91556283D01*
X158103526Y-91578526D01*
X158081283Y-91605630D01*
X158064754Y-91636553D01*
X158054576Y-91670106D01*
X158051139Y-91705000D01*
X158051139Y-91861337D01*
X158029248Y-91867978D01*
X158010953Y-91877757D01*
X157990508Y-91888685D01*
X157956552Y-91916552D01*
X157949564Y-91925067D01*
X157387631Y-92487000D01*
X157286563Y-92487000D01*
X157290700Y-92445000D01*
X157288000Y-92418500D01*
X157148500Y-92279000D01*
X155734000Y-92279000D01*
X155734000Y-92299000D01*
X155326000Y-92299000D01*
X155326000Y-92279000D01*
X153911500Y-92279000D01*
X153772000Y-92418500D01*
X153769300Y-92445000D01*
X153773437Y-92487000D01*
X152227681Y-92487000D01*
X152205031Y-92453102D01*
X152148898Y-92396969D01*
X152082892Y-92352866D01*
X152009551Y-92322487D01*
X151931692Y-92307000D01*
X151852308Y-92307000D01*
X151774449Y-92322487D01*
X151701108Y-92352866D01*
X151635102Y-92396969D01*
X151578969Y-92453102D01*
X151534866Y-92519108D01*
X151504487Y-92592449D01*
X151489000Y-92670308D01*
X151489000Y-92749692D01*
X151496285Y-92786315D01*
X149563710Y-90853741D01*
X149563710Y-90130308D01*
X150727000Y-90130308D01*
X150727000Y-90209692D01*
X150742487Y-90287551D01*
X150772866Y-90360892D01*
X150816969Y-90426898D01*
X150873102Y-90483031D01*
X150939108Y-90527134D01*
X151012449Y-90557513D01*
X151090308Y-90573000D01*
X151169692Y-90573000D01*
X151247551Y-90557513D01*
X151320892Y-90527134D01*
X151386898Y-90483031D01*
X151443031Y-90426898D01*
X151465681Y-90393000D01*
X154059268Y-90393000D01*
X154115429Y-90423019D01*
X154151249Y-90433885D01*
X154151139Y-90435000D01*
X154151139Y-91175000D01*
X154151249Y-91176115D01*
X154115429Y-91186981D01*
X154059268Y-91217000D01*
X151846681Y-91217000D01*
X151824031Y-91183102D01*
X151767898Y-91126969D01*
X151701892Y-91082866D01*
X151628551Y-91052487D01*
X151550692Y-91037000D01*
X151471308Y-91037000D01*
X151393449Y-91052487D01*
X151320108Y-91082866D01*
X151254102Y-91126969D01*
X151197969Y-91183102D01*
X151153866Y-91249108D01*
X151123487Y-91322449D01*
X151108000Y-91400308D01*
X151108000Y-91479692D01*
X151123487Y-91557551D01*
X151153866Y-91630892D01*
X151197969Y-91696898D01*
X151254102Y-91753031D01*
X151320108Y-91797134D01*
X151393449Y-91827513D01*
X151471308Y-91843000D01*
X151550692Y-91843000D01*
X151628551Y-91827513D01*
X151701892Y-91797134D01*
X151767898Y-91753031D01*
X151824031Y-91696898D01*
X151846681Y-91663000D01*
X153773437Y-91663000D01*
X153769300Y-91705000D01*
X153772000Y-91731500D01*
X153911500Y-91871000D01*
X155326000Y-91871000D01*
X155326000Y-91851000D01*
X155734000Y-91851000D01*
X155734000Y-91871000D01*
X157148500Y-91871000D01*
X157288000Y-91731500D01*
X157290700Y-91705000D01*
X157286563Y-91663000D01*
X157494046Y-91663000D01*
X157505000Y-91664079D01*
X157515954Y-91663000D01*
X157548716Y-91659773D01*
X157590751Y-91647022D01*
X157629492Y-91626315D01*
X157663448Y-91598448D01*
X157670436Y-91589933D01*
X158054208Y-91206161D01*
X158054576Y-91209894D01*
X158064754Y-91243447D01*
X158081283Y-91274370D01*
X158103526Y-91301474D01*
X158130630Y-91323717D01*
X158161553Y-91340246D01*
X158195106Y-91350424D01*
X158230000Y-91353861D01*
X160630000Y-91353861D01*
X160664894Y-91350424D01*
X160698447Y-91340246D01*
X160729370Y-91323717D01*
X160756474Y-91301474D01*
X160778717Y-91274370D01*
X160795246Y-91243447D01*
X160805424Y-91209894D01*
X160808861Y-91175000D01*
X160808861Y-90435000D01*
X160805424Y-90400106D01*
X160795246Y-90366553D01*
X160778717Y-90335630D01*
X160756474Y-90308526D01*
X160729370Y-90286283D01*
X160698447Y-90269754D01*
X160664894Y-90259576D01*
X160630000Y-90256139D01*
X158230000Y-90256139D01*
X158195106Y-90259576D01*
X158161553Y-90269754D01*
X158130630Y-90286283D01*
X158103526Y-90308526D01*
X158081283Y-90335630D01*
X158064754Y-90366553D01*
X158054576Y-90400106D01*
X158051139Y-90435000D01*
X158051139Y-90599640D01*
X158034878Y-90608332D01*
X158015508Y-90618685D01*
X157981552Y-90646552D01*
X157974564Y-90655067D01*
X157412631Y-91217000D01*
X157000732Y-91217000D01*
X156944571Y-91186981D01*
X156908751Y-91176115D01*
X156908861Y-91175000D01*
X156908861Y-90435000D01*
X156908751Y-90433885D01*
X156944571Y-90423019D01*
X157000732Y-90393000D01*
X157469046Y-90393000D01*
X157480000Y-90394079D01*
X157490954Y-90393000D01*
X157523716Y-90389773D01*
X157565751Y-90377022D01*
X157604492Y-90356315D01*
X157638448Y-90328448D01*
X157645436Y-90319933D01*
X158051967Y-89913402D01*
X158054576Y-89939894D01*
X158064754Y-89973447D01*
X158081283Y-90004370D01*
X158103526Y-90031474D01*
X158130630Y-90053717D01*
X158161553Y-90070246D01*
X158195106Y-90080424D01*
X158230000Y-90083861D01*
X160630000Y-90083861D01*
X160664894Y-90080424D01*
X160698447Y-90070246D01*
X160729370Y-90053717D01*
X160756474Y-90031474D01*
X160778717Y-90004370D01*
X160795246Y-89973447D01*
X160805424Y-89939894D01*
X160808861Y-89905000D01*
X160808861Y-89165000D01*
X160805424Y-89130106D01*
X160795246Y-89096553D01*
X160778717Y-89065630D01*
X160756474Y-89038526D01*
X160729370Y-89016283D01*
X160698447Y-88999754D01*
X160664894Y-88989576D01*
X160630000Y-88986139D01*
X158230000Y-88986139D01*
X158195106Y-88989576D01*
X158161553Y-88999754D01*
X158130630Y-89016283D01*
X158103526Y-89038526D01*
X158081283Y-89065630D01*
X158064754Y-89096553D01*
X158054576Y-89130106D01*
X158051139Y-89165000D01*
X158051139Y-89321337D01*
X158029248Y-89327978D01*
X158009878Y-89338332D01*
X157990508Y-89348685D01*
X157956552Y-89376552D01*
X157949564Y-89385067D01*
X157387631Y-89947000D01*
X157286563Y-89947000D01*
X157290700Y-89905000D01*
X157288000Y-89878500D01*
X157148500Y-89739000D01*
X155734000Y-89739000D01*
X155734000Y-89759000D01*
X155326000Y-89759000D01*
X155326000Y-89739000D01*
X153911500Y-89739000D01*
X153772000Y-89878500D01*
X153769300Y-89905000D01*
X153773437Y-89947000D01*
X151465681Y-89947000D01*
X151443031Y-89913102D01*
X151386898Y-89856969D01*
X151320892Y-89812866D01*
X151247551Y-89782487D01*
X151169692Y-89767000D01*
X151090308Y-89767000D01*
X151012449Y-89782487D01*
X150939108Y-89812866D01*
X150873102Y-89856969D01*
X150816969Y-89913102D01*
X150772866Y-89979108D01*
X150742487Y-90052449D01*
X150727000Y-90130308D01*
X149563710Y-90130308D01*
X149563710Y-88860308D01*
X151870000Y-88860308D01*
X151870000Y-88939692D01*
X151885487Y-89017551D01*
X151915866Y-89090892D01*
X151959969Y-89156898D01*
X152016102Y-89213031D01*
X152082108Y-89257134D01*
X152155449Y-89287513D01*
X152233308Y-89303000D01*
X152312692Y-89303000D01*
X152390551Y-89287513D01*
X152463892Y-89257134D01*
X152529898Y-89213031D01*
X152586031Y-89156898D01*
X152608681Y-89123000D01*
X153773437Y-89123000D01*
X153769300Y-89165000D01*
X153772000Y-89191500D01*
X153911500Y-89331000D01*
X155326000Y-89331000D01*
X155326000Y-89123000D01*
X155734000Y-89123000D01*
X155734000Y-89331000D01*
X157148500Y-89331000D01*
X157288000Y-89191500D01*
X157290700Y-89165000D01*
X157286563Y-89123000D01*
X157494046Y-89123000D01*
X157505000Y-89124079D01*
X157515954Y-89123000D01*
X157548716Y-89119773D01*
X157590751Y-89107022D01*
X157629492Y-89086315D01*
X157663448Y-89058448D01*
X157670436Y-89049933D01*
X158054208Y-88666161D01*
X158054576Y-88669894D01*
X158064754Y-88703447D01*
X158081283Y-88734370D01*
X158103526Y-88761474D01*
X158130630Y-88783717D01*
X158161553Y-88800246D01*
X158195106Y-88810424D01*
X158230000Y-88813861D01*
X160630000Y-88813861D01*
X160664894Y-88810424D01*
X160698447Y-88800246D01*
X160729370Y-88783717D01*
X160756474Y-88761474D01*
X160778717Y-88734370D01*
X160795246Y-88703447D01*
X160805424Y-88669894D01*
X160808861Y-88635000D01*
X160808861Y-87895000D01*
X160805424Y-87860106D01*
X160795246Y-87826553D01*
X160778717Y-87795630D01*
X160756474Y-87768526D01*
X160729370Y-87746283D01*
X160698447Y-87729754D01*
X160664894Y-87719576D01*
X160630000Y-87716139D01*
X158230000Y-87716139D01*
X158195106Y-87719576D01*
X158161553Y-87729754D01*
X158130630Y-87746283D01*
X158103526Y-87768526D01*
X158081283Y-87795630D01*
X158064754Y-87826553D01*
X158054576Y-87860106D01*
X158051139Y-87895000D01*
X158051139Y-88059640D01*
X158035953Y-88067757D01*
X158015508Y-88078685D01*
X157981552Y-88106552D01*
X157974564Y-88115067D01*
X157412631Y-88677000D01*
X157286563Y-88677000D01*
X157290700Y-88635000D01*
X157288000Y-88608500D01*
X157148500Y-88469000D01*
X155734000Y-88469000D01*
X155734000Y-88677000D01*
X155326000Y-88677000D01*
X155326000Y-88469000D01*
X153911500Y-88469000D01*
X153772000Y-88608500D01*
X153769300Y-88635000D01*
X153773437Y-88677000D01*
X152608681Y-88677000D01*
X152586031Y-88643102D01*
X152529898Y-88586969D01*
X152463892Y-88542866D01*
X152390551Y-88512487D01*
X152312692Y-88497000D01*
X152233308Y-88497000D01*
X152155449Y-88512487D01*
X152082108Y-88542866D01*
X152016102Y-88586969D01*
X151959969Y-88643102D01*
X151915866Y-88709108D01*
X151885487Y-88782449D01*
X151870000Y-88860308D01*
X149563710Y-88860308D01*
X149563710Y-87590308D01*
X152251000Y-87590308D01*
X152251000Y-87669692D01*
X152266487Y-87747551D01*
X152296866Y-87820892D01*
X152340969Y-87886898D01*
X152397102Y-87943031D01*
X152463108Y-87987134D01*
X152536449Y-88017513D01*
X152614308Y-88033000D01*
X152693692Y-88033000D01*
X152771551Y-88017513D01*
X152844892Y-87987134D01*
X152910898Y-87943031D01*
X152967031Y-87886898D01*
X152989681Y-87853000D01*
X153773437Y-87853000D01*
X153769300Y-87895000D01*
X153772000Y-87921500D01*
X153911500Y-88061000D01*
X155326000Y-88061000D01*
X155326000Y-87853000D01*
X155734000Y-87853000D01*
X155734000Y-88061000D01*
X157148500Y-88061000D01*
X157288000Y-87921500D01*
X157290700Y-87895000D01*
X157286563Y-87853000D01*
X157469046Y-87853000D01*
X157480000Y-87854079D01*
X157490954Y-87853000D01*
X157523716Y-87849773D01*
X157565751Y-87837022D01*
X157604492Y-87816315D01*
X157638448Y-87788448D01*
X157645436Y-87779933D01*
X158051967Y-87373402D01*
X158054576Y-87399894D01*
X158064754Y-87433447D01*
X158081283Y-87464370D01*
X158103526Y-87491474D01*
X158130630Y-87513717D01*
X158161553Y-87530246D01*
X158195106Y-87540424D01*
X158230000Y-87543861D01*
X160630000Y-87543861D01*
X160664894Y-87540424D01*
X160698447Y-87530246D01*
X160729370Y-87513717D01*
X160756474Y-87491474D01*
X160778717Y-87464370D01*
X160795246Y-87433447D01*
X160805424Y-87399894D01*
X160808861Y-87365000D01*
X160808861Y-86625000D01*
X160805424Y-86590106D01*
X160795246Y-86556553D01*
X160778717Y-86525630D01*
X160756474Y-86498526D01*
X160729370Y-86476283D01*
X160698447Y-86459754D01*
X160664894Y-86449576D01*
X160630000Y-86446139D01*
X158230000Y-86446139D01*
X158195106Y-86449576D01*
X158161553Y-86459754D01*
X158130630Y-86476283D01*
X158103526Y-86498526D01*
X158081283Y-86525630D01*
X158064754Y-86556553D01*
X158054576Y-86590106D01*
X158051139Y-86625000D01*
X158051139Y-86781337D01*
X158029248Y-86787978D01*
X158009879Y-86798331D01*
X157990508Y-86808685D01*
X157956552Y-86836552D01*
X157949564Y-86845067D01*
X157387631Y-87407000D01*
X157286563Y-87407000D01*
X157290700Y-87365000D01*
X157288000Y-87338500D01*
X157148500Y-87199000D01*
X155734000Y-87199000D01*
X155734000Y-87407000D01*
X155326000Y-87407000D01*
X155326000Y-87199000D01*
X153911500Y-87199000D01*
X153772000Y-87338500D01*
X153769300Y-87365000D01*
X153773437Y-87407000D01*
X152989681Y-87407000D01*
X152967031Y-87373102D01*
X152910898Y-87316969D01*
X152844892Y-87272866D01*
X152771551Y-87242487D01*
X152693692Y-87227000D01*
X152614308Y-87227000D01*
X152536449Y-87242487D01*
X152463108Y-87272866D01*
X152397102Y-87316969D01*
X152340969Y-87373102D01*
X152296866Y-87439108D01*
X152266487Y-87512449D01*
X152251000Y-87590308D01*
X149563710Y-87590308D01*
X149563710Y-86320308D01*
X152632000Y-86320308D01*
X152632000Y-86399692D01*
X152647487Y-86477551D01*
X152677866Y-86550892D01*
X152721969Y-86616898D01*
X152778102Y-86673031D01*
X152844108Y-86717134D01*
X152917449Y-86747513D01*
X152995308Y-86763000D01*
X153074692Y-86763000D01*
X153152551Y-86747513D01*
X153225892Y-86717134D01*
X153291898Y-86673031D01*
X153348031Y-86616898D01*
X153370681Y-86583000D01*
X153773437Y-86583000D01*
X153769300Y-86625000D01*
X153772000Y-86651500D01*
X153911500Y-86791000D01*
X155326000Y-86791000D01*
X155326000Y-86583000D01*
X155734000Y-86583000D01*
X155734000Y-86791000D01*
X157148500Y-86791000D01*
X157288000Y-86651500D01*
X157290700Y-86625000D01*
X157286563Y-86583000D01*
X157494046Y-86583000D01*
X157505000Y-86584079D01*
X157515954Y-86583000D01*
X157548716Y-86579773D01*
X157590751Y-86567022D01*
X157629492Y-86546315D01*
X157663448Y-86518448D01*
X157670436Y-86509933D01*
X158054208Y-86126161D01*
X158054576Y-86129894D01*
X158064754Y-86163447D01*
X158081283Y-86194370D01*
X158103526Y-86221474D01*
X158130630Y-86243717D01*
X158161553Y-86260246D01*
X158195106Y-86270424D01*
X158230000Y-86273861D01*
X160630000Y-86273861D01*
X160664894Y-86270424D01*
X160698447Y-86260246D01*
X160729370Y-86243717D01*
X160756474Y-86221474D01*
X160778717Y-86194370D01*
X160795246Y-86163447D01*
X160805424Y-86129894D01*
X160808861Y-86095000D01*
X160808861Y-85355000D01*
X160805424Y-85320106D01*
X160795246Y-85286553D01*
X160778717Y-85255630D01*
X160756474Y-85228526D01*
X160729370Y-85206283D01*
X160698447Y-85189754D01*
X160664894Y-85179576D01*
X160630000Y-85176139D01*
X158230000Y-85176139D01*
X158195106Y-85179576D01*
X158161553Y-85189754D01*
X158130630Y-85206283D01*
X158103526Y-85228526D01*
X158081283Y-85255630D01*
X158064754Y-85286553D01*
X158054576Y-85320106D01*
X158051139Y-85355000D01*
X158051139Y-85519640D01*
X158034879Y-85528331D01*
X158015508Y-85538685D01*
X157981552Y-85566552D01*
X157974564Y-85575067D01*
X157412631Y-86137000D01*
X157286563Y-86137000D01*
X157290700Y-86095000D01*
X157288000Y-86068500D01*
X157148500Y-85929000D01*
X155734000Y-85929000D01*
X155734000Y-86137000D01*
X155326000Y-86137000D01*
X155326000Y-85929000D01*
X153911500Y-85929000D01*
X153772000Y-86068500D01*
X153769300Y-86095000D01*
X153773437Y-86137000D01*
X153370681Y-86137000D01*
X153348031Y-86103102D01*
X153291898Y-86046969D01*
X153225892Y-86002866D01*
X153152551Y-85972487D01*
X153074692Y-85957000D01*
X152995308Y-85957000D01*
X152917449Y-85972487D01*
X152844108Y-86002866D01*
X152778102Y-86046969D01*
X152721969Y-86103102D01*
X152677866Y-86169108D01*
X152647487Y-86242449D01*
X152632000Y-86320308D01*
X149563710Y-86320308D01*
X149563710Y-85050308D01*
X153013000Y-85050308D01*
X153013000Y-85129692D01*
X153028487Y-85207551D01*
X153058866Y-85280892D01*
X153102969Y-85346898D01*
X153159102Y-85403031D01*
X153225108Y-85447134D01*
X153298449Y-85477513D01*
X153376308Y-85493000D01*
X153455692Y-85493000D01*
X153533551Y-85477513D01*
X153606892Y-85447134D01*
X153672898Y-85403031D01*
X153729031Y-85346898D01*
X153751681Y-85313000D01*
X153773437Y-85313000D01*
X153769300Y-85355000D01*
X153772000Y-85381500D01*
X153911500Y-85521000D01*
X155326000Y-85521000D01*
X155326000Y-85313000D01*
X155734000Y-85313000D01*
X155734000Y-85521000D01*
X157148500Y-85521000D01*
X157288000Y-85381500D01*
X157290700Y-85355000D01*
X157286563Y-85313000D01*
X157469046Y-85313000D01*
X157480000Y-85314079D01*
X157490954Y-85313000D01*
X157523716Y-85309773D01*
X157565751Y-85297022D01*
X157604492Y-85276315D01*
X157638448Y-85248448D01*
X157645436Y-85239933D01*
X158051967Y-84833402D01*
X158054576Y-84859894D01*
X158064754Y-84893447D01*
X158081283Y-84924370D01*
X158103526Y-84951474D01*
X158130630Y-84973717D01*
X158161553Y-84990246D01*
X158195106Y-85000424D01*
X158230000Y-85003861D01*
X160630000Y-85003861D01*
X160664894Y-85000424D01*
X160698447Y-84990246D01*
X160729370Y-84973717D01*
X160756474Y-84951474D01*
X160778717Y-84924370D01*
X160795246Y-84893447D01*
X160805424Y-84859894D01*
X160808861Y-84825000D01*
X160808861Y-84085000D01*
X160805424Y-84050106D01*
X160795246Y-84016553D01*
X160778717Y-83985630D01*
X160756474Y-83958526D01*
X160729370Y-83936283D01*
X160698447Y-83919754D01*
X160664894Y-83909576D01*
X160630000Y-83906139D01*
X158230000Y-83906139D01*
X158195106Y-83909576D01*
X158161553Y-83919754D01*
X158130630Y-83936283D01*
X158103526Y-83958526D01*
X158081283Y-83985630D01*
X158064754Y-84016553D01*
X158054576Y-84050106D01*
X158051139Y-84085000D01*
X158051139Y-84241337D01*
X158029248Y-84247978D01*
X158009879Y-84258331D01*
X157990508Y-84268685D01*
X157956552Y-84296552D01*
X157949564Y-84305067D01*
X157387631Y-84867000D01*
X157286563Y-84867000D01*
X157290700Y-84825000D01*
X157288000Y-84798500D01*
X157148500Y-84659000D01*
X155734000Y-84659000D01*
X155734000Y-84867000D01*
X155326000Y-84867000D01*
X155326000Y-84659000D01*
X153911500Y-84659000D01*
X153772000Y-84798500D01*
X153769300Y-84825000D01*
X153773437Y-84867000D01*
X153751681Y-84867000D01*
X153729031Y-84833102D01*
X153672898Y-84776969D01*
X153606892Y-84732866D01*
X153533551Y-84702487D01*
X153455692Y-84687000D01*
X153376308Y-84687000D01*
X153298449Y-84702487D01*
X153225108Y-84732866D01*
X153159102Y-84776969D01*
X153102969Y-84833102D01*
X153058866Y-84899108D01*
X153028487Y-84972449D01*
X153013000Y-85050308D01*
X149563710Y-85050308D01*
X149563710Y-83780308D01*
X153394000Y-83780308D01*
X153394000Y-83859692D01*
X153409487Y-83937551D01*
X153439866Y-84010892D01*
X153483969Y-84076898D01*
X153540102Y-84133031D01*
X153606108Y-84177134D01*
X153679449Y-84207513D01*
X153757308Y-84223000D01*
X153836692Y-84223000D01*
X153875734Y-84215234D01*
X153911500Y-84251000D01*
X155326000Y-84251000D01*
X155326000Y-84043000D01*
X155734000Y-84043000D01*
X155734000Y-84251000D01*
X157148500Y-84251000D01*
X157288000Y-84111500D01*
X157290700Y-84085000D01*
X157286563Y-84043000D01*
X157469046Y-84043000D01*
X157480000Y-84044079D01*
X157490954Y-84043000D01*
X157523716Y-84039773D01*
X157565751Y-84027022D01*
X157604492Y-84006315D01*
X157638448Y-83978448D01*
X157645436Y-83969933D01*
X158051967Y-83563402D01*
X158054576Y-83589894D01*
X158064754Y-83623447D01*
X158081283Y-83654370D01*
X158103526Y-83681474D01*
X158130630Y-83703717D01*
X158161553Y-83720246D01*
X158195106Y-83730424D01*
X158230000Y-83733861D01*
X160630000Y-83733861D01*
X160664894Y-83730424D01*
X160698447Y-83720246D01*
X160729370Y-83703717D01*
X160756474Y-83681474D01*
X160778717Y-83654370D01*
X160795246Y-83623447D01*
X160805424Y-83589894D01*
X160808861Y-83555000D01*
X160808861Y-82815000D01*
X160805424Y-82780106D01*
X160795246Y-82746553D01*
X160778717Y-82715630D01*
X160756474Y-82688526D01*
X160729370Y-82666283D01*
X160698447Y-82649754D01*
X160664894Y-82639576D01*
X160630000Y-82636139D01*
X158230000Y-82636139D01*
X158195106Y-82639576D01*
X158161553Y-82649754D01*
X158130630Y-82666283D01*
X158103526Y-82688526D01*
X158081283Y-82715630D01*
X158064754Y-82746553D01*
X158054576Y-82780106D01*
X158051139Y-82815000D01*
X158051139Y-82971337D01*
X158029248Y-82977978D01*
X158009878Y-82988332D01*
X157990508Y-82998685D01*
X157956552Y-83026552D01*
X157949564Y-83035067D01*
X157387631Y-83597000D01*
X157286563Y-83597000D01*
X157290700Y-83555000D01*
X157288000Y-83528500D01*
X157148500Y-83389000D01*
X155734000Y-83389000D01*
X155734000Y-83597000D01*
X155326000Y-83597000D01*
X155326000Y-83389000D01*
X153911500Y-83389000D01*
X153875734Y-83424766D01*
X153836692Y-83417000D01*
X153757308Y-83417000D01*
X153679449Y-83432487D01*
X153606108Y-83462866D01*
X153540102Y-83506969D01*
X153483969Y-83563102D01*
X153439866Y-83629108D01*
X153409487Y-83702449D01*
X153394000Y-83780308D01*
X149563710Y-83780308D01*
X149563710Y-82864063D01*
X149564789Y-82853109D01*
X149560483Y-82809394D01*
X149558002Y-82801216D01*
X149547732Y-82767359D01*
X149527025Y-82728618D01*
X149499158Y-82694662D01*
X149490649Y-82687679D01*
X149313278Y-82510308D01*
X153394000Y-82510308D01*
X153394000Y-82589692D01*
X153409487Y-82667551D01*
X153439866Y-82740892D01*
X153483969Y-82806898D01*
X153540102Y-82863031D01*
X153606108Y-82907134D01*
X153679449Y-82937513D01*
X153757308Y-82953000D01*
X153836692Y-82953000D01*
X153875734Y-82945234D01*
X153911500Y-82981000D01*
X155326000Y-82981000D01*
X155326000Y-82773000D01*
X155734000Y-82773000D01*
X155734000Y-82981000D01*
X157148500Y-82981000D01*
X157288000Y-82841500D01*
X157290700Y-82815000D01*
X157286563Y-82773000D01*
X157494046Y-82773000D01*
X157505000Y-82774079D01*
X157515954Y-82773000D01*
X157548716Y-82769773D01*
X157590751Y-82757022D01*
X157629492Y-82736315D01*
X157663448Y-82708448D01*
X157670436Y-82699933D01*
X158054208Y-82316161D01*
X158054576Y-82319894D01*
X158064754Y-82353447D01*
X158081283Y-82384370D01*
X158103526Y-82411474D01*
X158130630Y-82433717D01*
X158161553Y-82450246D01*
X158195106Y-82460424D01*
X158230000Y-82463861D01*
X160630000Y-82463861D01*
X160664894Y-82460424D01*
X160698447Y-82450246D01*
X160729370Y-82433717D01*
X160756474Y-82411474D01*
X160778717Y-82384370D01*
X160795246Y-82353447D01*
X160805424Y-82319894D01*
X160808861Y-82285000D01*
X160808861Y-81545000D01*
X160805424Y-81510106D01*
X160795246Y-81476553D01*
X160778717Y-81445630D01*
X160756474Y-81418526D01*
X160729370Y-81396283D01*
X160698447Y-81379754D01*
X160664894Y-81369576D01*
X160630000Y-81366139D01*
X158230000Y-81366139D01*
X158195106Y-81369576D01*
X158161553Y-81379754D01*
X158130630Y-81396283D01*
X158103526Y-81418526D01*
X158081283Y-81445630D01*
X158064754Y-81476553D01*
X158054576Y-81510106D01*
X158051139Y-81545000D01*
X158051139Y-81709640D01*
X158034879Y-81718331D01*
X158015508Y-81728685D01*
X157981552Y-81756552D01*
X157974564Y-81765067D01*
X157412631Y-82327000D01*
X157286563Y-82327000D01*
X157290700Y-82285000D01*
X157288000Y-82258500D01*
X157148500Y-82119000D01*
X155734000Y-82119000D01*
X155734000Y-82327000D01*
X155326000Y-82327000D01*
X155326000Y-82119000D01*
X153911500Y-82119000D01*
X153875734Y-82154766D01*
X153836692Y-82147000D01*
X153757308Y-82147000D01*
X153679449Y-82162487D01*
X153606108Y-82192866D01*
X153540102Y-82236969D01*
X153483969Y-82293102D01*
X153439866Y-82359108D01*
X153409487Y-82432449D01*
X153394000Y-82510308D01*
X149313278Y-82510308D01*
X149151530Y-82348561D01*
X149257300Y-82348561D01*
X149292194Y-82345124D01*
X149325747Y-82334946D01*
X149356670Y-82318417D01*
X149383774Y-82296174D01*
X149406017Y-82269070D01*
X149422546Y-82238147D01*
X149432724Y-82204594D01*
X149436161Y-82169700D01*
X149436161Y-81545000D01*
X153769300Y-81545000D01*
X153772000Y-81571500D01*
X153911500Y-81711000D01*
X155326000Y-81711000D01*
X155326000Y-81126500D01*
X155734000Y-81126500D01*
X155734000Y-81711000D01*
X157148500Y-81711000D01*
X157288000Y-81571500D01*
X157290700Y-81545000D01*
X157279926Y-81435613D01*
X157248019Y-81330429D01*
X157196205Y-81233492D01*
X157126475Y-81148525D01*
X157041508Y-81078795D01*
X156944571Y-81026981D01*
X156839387Y-80995074D01*
X156730000Y-80984300D01*
X155873500Y-80987000D01*
X155734000Y-81126500D01*
X155326000Y-81126500D01*
X155186500Y-80987000D01*
X154330000Y-80984300D01*
X154220613Y-80995074D01*
X154115429Y-81026981D01*
X154018492Y-81078795D01*
X153933525Y-81148525D01*
X153863795Y-81233492D01*
X153811981Y-81330429D01*
X153780074Y-81435613D01*
X153769300Y-81545000D01*
X149436161Y-81545000D01*
X149436161Y-80669700D01*
X149432724Y-80634806D01*
X149422546Y-80601253D01*
X149406017Y-80570330D01*
X149383774Y-80543226D01*
X149356670Y-80520983D01*
X149325747Y-80504454D01*
X149292194Y-80494276D01*
X149257300Y-80490839D01*
X148257300Y-80490839D01*
X148222222Y-80494312D01*
X148188680Y-80504526D01*
X148157775Y-80521087D01*
X148130694Y-80543359D01*
X148108479Y-80570486D01*
X148107159Y-80572466D01*
X148106017Y-80570330D01*
X148083774Y-80543226D01*
X148056670Y-80520983D01*
X148025747Y-80504454D01*
X147992194Y-80494276D01*
X147957300Y-80490839D01*
X146807300Y-80490839D01*
X146772406Y-80494276D01*
X146738853Y-80504454D01*
X146707930Y-80520983D01*
X146680826Y-80543226D01*
X146658583Y-80570330D01*
X146642054Y-80601253D01*
X146631876Y-80634806D01*
X146628439Y-80669700D01*
X146628439Y-81196700D01*
X140841257Y-81196700D01*
X140830300Y-81195621D01*
X140786584Y-81199926D01*
X140744548Y-81212678D01*
X140725178Y-81223032D01*
X140705808Y-81233385D01*
X140671852Y-81261252D01*
X140664864Y-81269767D01*
X140254097Y-81680534D01*
X140095302Y-81595656D01*
X139901523Y-81536874D01*
X139750503Y-81522000D01*
X139649497Y-81522000D01*
X139498477Y-81536874D01*
X139304698Y-81595656D01*
X139126110Y-81691114D01*
X138969577Y-81819577D01*
X138841114Y-81976110D01*
X138745656Y-82154698D01*
X138686874Y-82348477D01*
X138667026Y-82550000D01*
X138686874Y-82751523D01*
X138745656Y-82945302D01*
X138841114Y-83123890D01*
X138969577Y-83280423D01*
X139126110Y-83408886D01*
X139304698Y-83504344D01*
X139498477Y-83563126D01*
X139649497Y-83578000D01*
X139750503Y-83578000D01*
X139901523Y-83563126D01*
X140095302Y-83504344D01*
X140273890Y-83408886D01*
X140430423Y-83280423D01*
X140558886Y-83123890D01*
X140654344Y-82945302D01*
X140713126Y-82751523D01*
X140732974Y-82550000D01*
X140713126Y-82348477D01*
X140654344Y-82154698D01*
X140569466Y-81995903D01*
X140922669Y-81642700D01*
X141146133Y-81642700D01*
X141143618Y-81650992D01*
X141138791Y-81700000D01*
X141138791Y-83400000D01*
X141143618Y-83449008D01*
X141157913Y-83496134D01*
X141181127Y-83539564D01*
X141212368Y-83577632D01*
X141250436Y-83608873D01*
X141293866Y-83632087D01*
X141340992Y-83646382D01*
X141390000Y-83651209D01*
X143090000Y-83651209D01*
X143139008Y-83646382D01*
X143186134Y-83632087D01*
X143229564Y-83608873D01*
X143267632Y-83577632D01*
X143298873Y-83539564D01*
X143322087Y-83496134D01*
X143336382Y-83449008D01*
X143341209Y-83400000D01*
X143341209Y-83037604D01*
X148140000Y-87836396D01*
X148140001Y-91437886D01*
X148140000Y-91437896D01*
X148140000Y-91608791D01*
X147740000Y-91608791D01*
X147690992Y-91613618D01*
X147643866Y-91627913D01*
X147600436Y-91651127D01*
X147562368Y-91682368D01*
X147531127Y-91720436D01*
X147507913Y-91763866D01*
X147493618Y-91810992D01*
X147488791Y-91860000D01*
X147488791Y-93560000D01*
X147493618Y-93609008D01*
X147507913Y-93656134D01*
X147531127Y-93699564D01*
X147562368Y-93737632D01*
X147600436Y-93768873D01*
X147643866Y-93792087D01*
X147690992Y-93806382D01*
X147740000Y-93811209D01*
X149440000Y-93811209D01*
X149489008Y-93806382D01*
X149536134Y-93792087D01*
X149579564Y-93768873D01*
X149617632Y-93737632D01*
X149648873Y-93699564D01*
X149672087Y-93656134D01*
X149686382Y-93609008D01*
X149691209Y-93560000D01*
X149691209Y-93197604D01*
X152230219Y-95736614D01*
X152155449Y-95751487D01*
X152082108Y-95781866D01*
X152016102Y-95825969D01*
X151959969Y-95882102D01*
X151937319Y-95916000D01*
X149571370Y-95916000D01*
X149459466Y-95804096D01*
X149544344Y-95645302D01*
X149603126Y-95451523D01*
X149622974Y-95250000D01*
X149603126Y-95048477D01*
X149544344Y-94854698D01*
X149448886Y-94676110D01*
X149320423Y-94519577D01*
X149163890Y-94391114D01*
X148985302Y-94295656D01*
X148791523Y-94236874D01*
X148640503Y-94222000D01*
X148539497Y-94222000D01*
X148388477Y-94236874D01*
X148194698Y-94295656D01*
X148016110Y-94391114D01*
X147859577Y-94519577D01*
X147731114Y-94676110D01*
X147635656Y-94854698D01*
X147583389Y-95027000D01*
X147412370Y-95027000D01*
X144945436Y-92560067D01*
X144938448Y-92551552D01*
X144904492Y-92523685D01*
X144865751Y-92502978D01*
X144823716Y-92490227D01*
X144790954Y-92487000D01*
X144780000Y-92485921D01*
X144769046Y-92487000D01*
X143246611Y-92487000D01*
X143194344Y-92314698D01*
X143098886Y-92136110D01*
X142970423Y-91979577D01*
X142813890Y-91851114D01*
X142635302Y-91755656D01*
X142441523Y-91696874D01*
X142290503Y-91682000D01*
X142189497Y-91682000D01*
X142038477Y-91696874D01*
X141844698Y-91755656D01*
X141666110Y-91851114D01*
X141509577Y-91979577D01*
X141381114Y-92136110D01*
X141285656Y-92314698D01*
X141226874Y-92508477D01*
X141207026Y-92710000D01*
X141226874Y-92911523D01*
X141285656Y-93105302D01*
X141381114Y-93283890D01*
X141509577Y-93440423D01*
X141666110Y-93568886D01*
X141844698Y-93664344D01*
X142038477Y-93723126D01*
X142189497Y-93738000D01*
X142290503Y-93738000D01*
X142441523Y-93723126D01*
X142635302Y-93664344D01*
X142813890Y-93568886D01*
X142970423Y-93440423D01*
X143098886Y-93283890D01*
X143194344Y-93105302D01*
X143246611Y-92933000D01*
X144687631Y-92933000D01*
X147154568Y-95399938D01*
X147161552Y-95408448D01*
X147195508Y-95436315D01*
X147234249Y-95457022D01*
X147276284Y-95469773D01*
X147309046Y-95473000D01*
X147309052Y-95473000D01*
X147319999Y-95474078D01*
X147330946Y-95473000D01*
X147583389Y-95473000D01*
X147635656Y-95645302D01*
X147731114Y-95823890D01*
X147859577Y-95980423D01*
X148016110Y-96108886D01*
X148194698Y-96204344D01*
X148388477Y-96263126D01*
X148539497Y-96278000D01*
X148640503Y-96278000D01*
X148791523Y-96263126D01*
X148985302Y-96204344D01*
X149144096Y-96119466D01*
X149313568Y-96288938D01*
X149320552Y-96297448D01*
X149354508Y-96325315D01*
X149393249Y-96346022D01*
X149435284Y-96358773D01*
X149479000Y-96363079D01*
X149489954Y-96362000D01*
X151937319Y-96362000D01*
X151959969Y-96395898D01*
X152016102Y-96452031D01*
X152082108Y-96496134D01*
X152155449Y-96526513D01*
X152233308Y-96542000D01*
X152312692Y-96542000D01*
X152326117Y-96539330D01*
X152318319Y-96551000D01*
X149571370Y-96551000D01*
X149390436Y-96370067D01*
X149383448Y-96361552D01*
X149349492Y-96333685D01*
X149310751Y-96312978D01*
X149268716Y-96300227D01*
X149235954Y-96297000D01*
X149225000Y-96295921D01*
X149214046Y-96297000D01*
X143602370Y-96297000D01*
X143109466Y-95804096D01*
X143194344Y-95645302D01*
X143253126Y-95451523D01*
X143272974Y-95250000D01*
X143253126Y-95048477D01*
X143194344Y-94854698D01*
X143098886Y-94676110D01*
X142970423Y-94519577D01*
X142813890Y-94391114D01*
X142635302Y-94295656D01*
X142441523Y-94236874D01*
X142290503Y-94222000D01*
X142189497Y-94222000D01*
X142038477Y-94236874D01*
X141844698Y-94295656D01*
X141666110Y-94391114D01*
X141509577Y-94519577D01*
X141381114Y-94676110D01*
X141285656Y-94854698D01*
X141226874Y-95048477D01*
X141207026Y-95250000D01*
X141226874Y-95451523D01*
X141285656Y-95645302D01*
X141381114Y-95823890D01*
X141509577Y-95980423D01*
X141666110Y-96108886D01*
X141844698Y-96204344D01*
X142038477Y-96263126D01*
X142189497Y-96278000D01*
X142290503Y-96278000D01*
X142441523Y-96263126D01*
X142635302Y-96204344D01*
X142794096Y-96119466D01*
X143344568Y-96669938D01*
X143351552Y-96678448D01*
X143385508Y-96706315D01*
X143424249Y-96727022D01*
X143466284Y-96739773D01*
X143509999Y-96744079D01*
X143520953Y-96743000D01*
X147654416Y-96743000D01*
X147494526Y-96905453D01*
X147343009Y-97136166D01*
X147245922Y-97370576D01*
X147338011Y-97586000D01*
X148386000Y-97586000D01*
X148386000Y-97566000D01*
X148794000Y-97566000D01*
X148794000Y-97586000D01*
X149841989Y-97586000D01*
X149934078Y-97370576D01*
X149836991Y-97136166D01*
X149745596Y-96997000D01*
X152318319Y-96997000D01*
X152340969Y-97030898D01*
X152397102Y-97087031D01*
X152463108Y-97131134D01*
X152536449Y-97161513D01*
X152614308Y-97177000D01*
X152693692Y-97177000D01*
X152771551Y-97161513D01*
X152844892Y-97131134D01*
X152910898Y-97087031D01*
X152967031Y-97030898D01*
X153011134Y-96964892D01*
X153041513Y-96891551D01*
X153057000Y-96813692D01*
X153057000Y-96734308D01*
X153041513Y-96656449D01*
X153011134Y-96583108D01*
X152967031Y-96517102D01*
X152910898Y-96460969D01*
X152844892Y-96416866D01*
X152771551Y-96386487D01*
X152693692Y-96371000D01*
X152614308Y-96371000D01*
X152600883Y-96373670D01*
X152630134Y-96329892D01*
X152660513Y-96256551D01*
X152675385Y-96181781D01*
X152988176Y-96494572D01*
X153002263Y-96511737D01*
X153019428Y-96525824D01*
X153019432Y-96525828D01*
X153070783Y-96567971D01*
X153119641Y-96594086D01*
X153148959Y-96609757D01*
X153233785Y-96635489D01*
X153299895Y-96642000D01*
X153299906Y-96642000D01*
X153322000Y-96644176D01*
X153344094Y-96642000D01*
X156903001Y-96642000D01*
X156903001Y-101187117D01*
X156895246Y-101161553D01*
X156878717Y-101130630D01*
X156856474Y-101103526D01*
X156829370Y-101081283D01*
X156798447Y-101064754D01*
X156764894Y-101054576D01*
X156730000Y-101051139D01*
X154330000Y-101051139D01*
X154295106Y-101054576D01*
X154261553Y-101064754D01*
X154230630Y-101081283D01*
X154203526Y-101103526D01*
X154181283Y-101130630D01*
X154164754Y-101161553D01*
X154154576Y-101195106D01*
X154151139Y-101230000D01*
X154151139Y-101377000D01*
X153700929Y-101377000D01*
X153729031Y-101348898D01*
X153773134Y-101282892D01*
X153803513Y-101209551D01*
X153819000Y-101131692D01*
X153819000Y-101052308D01*
X153803513Y-100974449D01*
X153773134Y-100901108D01*
X153729031Y-100835102D01*
X153672898Y-100778969D01*
X153606892Y-100734866D01*
X153533551Y-100704487D01*
X153455692Y-100689000D01*
X153376308Y-100689000D01*
X153298449Y-100704487D01*
X153225108Y-100734866D01*
X153159102Y-100778969D01*
X153102969Y-100835102D01*
X153080319Y-100869000D01*
X149743946Y-100869000D01*
X149732999Y-100867922D01*
X149722052Y-100869000D01*
X149722046Y-100869000D01*
X149689284Y-100872227D01*
X149647249Y-100884978D01*
X149608508Y-100905685D01*
X149574552Y-100933552D01*
X149567568Y-100942062D01*
X149132631Y-101377000D01*
X143602370Y-101377000D01*
X143109466Y-100884096D01*
X143194344Y-100725302D01*
X143253126Y-100531523D01*
X143272974Y-100330000D01*
X147557026Y-100330000D01*
X147576874Y-100531523D01*
X147635656Y-100725302D01*
X147731114Y-100903890D01*
X147859577Y-101060423D01*
X148016110Y-101188886D01*
X148194698Y-101284344D01*
X148388477Y-101343126D01*
X148539497Y-101358000D01*
X148640503Y-101358000D01*
X148791523Y-101343126D01*
X148985302Y-101284344D01*
X149163890Y-101188886D01*
X149320423Y-101060423D01*
X149448886Y-100903890D01*
X149544344Y-100725302D01*
X149596611Y-100553000D01*
X150794319Y-100553000D01*
X150816969Y-100586898D01*
X150873102Y-100643031D01*
X150939108Y-100687134D01*
X151012449Y-100717513D01*
X151090308Y-100733000D01*
X151169692Y-100733000D01*
X151247551Y-100717513D01*
X151320892Y-100687134D01*
X151386898Y-100643031D01*
X151443031Y-100586898D01*
X151487134Y-100520892D01*
X151517513Y-100447551D01*
X151533000Y-100369692D01*
X151533000Y-100290308D01*
X151517513Y-100212449D01*
X151487134Y-100139108D01*
X151443031Y-100073102D01*
X151386898Y-100016969D01*
X151320892Y-99972866D01*
X151247551Y-99942487D01*
X151169692Y-99927000D01*
X151090308Y-99927000D01*
X151012449Y-99942487D01*
X150939108Y-99972866D01*
X150873102Y-100016969D01*
X150816969Y-100073102D01*
X150794319Y-100107000D01*
X149596611Y-100107000D01*
X149544344Y-99934698D01*
X149448886Y-99756110D01*
X149320423Y-99599577D01*
X149163890Y-99471114D01*
X148985302Y-99375656D01*
X148791523Y-99316874D01*
X148640503Y-99302000D01*
X148539497Y-99302000D01*
X148388477Y-99316874D01*
X148194698Y-99375656D01*
X148016110Y-99471114D01*
X147859577Y-99599577D01*
X147731114Y-99756110D01*
X147635656Y-99934698D01*
X147576874Y-100128477D01*
X147557026Y-100330000D01*
X143272974Y-100330000D01*
X143253126Y-100128477D01*
X143194344Y-99934698D01*
X143098886Y-99756110D01*
X142970423Y-99599577D01*
X142813890Y-99471114D01*
X142635302Y-99375656D01*
X142441523Y-99316874D01*
X142290503Y-99302000D01*
X142189497Y-99302000D01*
X142038477Y-99316874D01*
X141844698Y-99375656D01*
X141666110Y-99471114D01*
X141509577Y-99599577D01*
X141381114Y-99756110D01*
X141285656Y-99934698D01*
X141226874Y-100128477D01*
X141207026Y-100330000D01*
X141226874Y-100531523D01*
X141285656Y-100725302D01*
X141381114Y-100903890D01*
X141509577Y-101060423D01*
X141666110Y-101188886D01*
X141844698Y-101284344D01*
X142038477Y-101343126D01*
X142189497Y-101358000D01*
X142290503Y-101358000D01*
X142441523Y-101343126D01*
X142635302Y-101284344D01*
X142794096Y-101199466D01*
X143344568Y-101749938D01*
X143351552Y-101758448D01*
X143385508Y-101786315D01*
X143424249Y-101807022D01*
X143466284Y-101819773D01*
X143509999Y-101824079D01*
X143520953Y-101823000D01*
X149214046Y-101823000D01*
X149225000Y-101824079D01*
X149235954Y-101823000D01*
X149268716Y-101819773D01*
X149310751Y-101807022D01*
X149349492Y-101786315D01*
X149383448Y-101758448D01*
X149390436Y-101749933D01*
X149825370Y-101315000D01*
X151607071Y-101315000D01*
X151578969Y-101343102D01*
X151556319Y-101377000D01*
X149870953Y-101377000D01*
X149859999Y-101375921D01*
X149816284Y-101380227D01*
X149774249Y-101392978D01*
X149735508Y-101413685D01*
X149701552Y-101441552D01*
X149694570Y-101450060D01*
X149144096Y-102000534D01*
X148985302Y-101915656D01*
X148791523Y-101856874D01*
X148640503Y-101842000D01*
X148539497Y-101842000D01*
X148388477Y-101856874D01*
X148194698Y-101915656D01*
X148016110Y-102011114D01*
X147859577Y-102139577D01*
X147731114Y-102296110D01*
X147635656Y-102474698D01*
X147576874Y-102668477D01*
X147557026Y-102870000D01*
X147576874Y-103071523D01*
X147635656Y-103265302D01*
X147731114Y-103443890D01*
X147859577Y-103600423D01*
X148016110Y-103728886D01*
X148194698Y-103824344D01*
X148388477Y-103883126D01*
X148539497Y-103898000D01*
X148640503Y-103898000D01*
X148791523Y-103883126D01*
X148985302Y-103824344D01*
X149163890Y-103728886D01*
X149320423Y-103600423D01*
X149448886Y-103443890D01*
X149544344Y-103265302D01*
X149603126Y-103071523D01*
X149622974Y-102870000D01*
X149603126Y-102668477D01*
X149544344Y-102474698D01*
X149459466Y-102315904D01*
X149952370Y-101823000D01*
X151556319Y-101823000D01*
X151578969Y-101856898D01*
X151635102Y-101913031D01*
X151701108Y-101957134D01*
X151774449Y-101987513D01*
X151852308Y-102003000D01*
X151931692Y-102003000D01*
X152009551Y-101987513D01*
X152082892Y-101957134D01*
X152148898Y-101913031D01*
X152205031Y-101856898D01*
X152227681Y-101823000D01*
X154151139Y-101823000D01*
X154151139Y-101970000D01*
X154154576Y-102004894D01*
X154164754Y-102038447D01*
X154181283Y-102069370D01*
X154203526Y-102096474D01*
X154230630Y-102118717D01*
X154261553Y-102135246D01*
X154295106Y-102145424D01*
X154330000Y-102148861D01*
X156730000Y-102148861D01*
X156764894Y-102145424D01*
X156798447Y-102135246D01*
X156829370Y-102118717D01*
X156856474Y-102096474D01*
X156878717Y-102069370D01*
X156895246Y-102038447D01*
X156903000Y-102012884D01*
X156903000Y-102457116D01*
X156895246Y-102431553D01*
X156878717Y-102400630D01*
X156856474Y-102373526D01*
X156829370Y-102351283D01*
X156798447Y-102334754D01*
X156764894Y-102324576D01*
X156730000Y-102321139D01*
X154330000Y-102321139D01*
X154295106Y-102324576D01*
X154261553Y-102334754D01*
X154230630Y-102351283D01*
X154203526Y-102373526D01*
X154181283Y-102400630D01*
X154164754Y-102431553D01*
X154154576Y-102465106D01*
X154151139Y-102500000D01*
X154151139Y-102647000D01*
X151846681Y-102647000D01*
X151824031Y-102613102D01*
X151767898Y-102556969D01*
X151701892Y-102512866D01*
X151628551Y-102482487D01*
X151550692Y-102467000D01*
X151471308Y-102467000D01*
X151393449Y-102482487D01*
X151320108Y-102512866D01*
X151254102Y-102556969D01*
X151197969Y-102613102D01*
X151153866Y-102679108D01*
X151123487Y-102752449D01*
X151108000Y-102830308D01*
X151108000Y-102909692D01*
X151123487Y-102987551D01*
X151153866Y-103060892D01*
X151197969Y-103126898D01*
X151254102Y-103183031D01*
X151320108Y-103227134D01*
X151393449Y-103257513D01*
X151471308Y-103273000D01*
X151550692Y-103273000D01*
X151628551Y-103257513D01*
X151701892Y-103227134D01*
X151767898Y-103183031D01*
X151824031Y-103126898D01*
X151846681Y-103093000D01*
X154151139Y-103093000D01*
X154151139Y-103240000D01*
X154154576Y-103274894D01*
X154164754Y-103308447D01*
X154181283Y-103339370D01*
X154203526Y-103366474D01*
X154230630Y-103388717D01*
X154261553Y-103405246D01*
X154295106Y-103415424D01*
X154330000Y-103418861D01*
X156730000Y-103418861D01*
X156764894Y-103415424D01*
X156798447Y-103405246D01*
X156829370Y-103388717D01*
X156856474Y-103366474D01*
X156878717Y-103339370D01*
X156895246Y-103308447D01*
X156903000Y-103282884D01*
X156903000Y-103727116D01*
X156895246Y-103701553D01*
X156878717Y-103670630D01*
X156856474Y-103643526D01*
X156829370Y-103621283D01*
X156798447Y-103604754D01*
X156764894Y-103594576D01*
X156730000Y-103591139D01*
X154330000Y-103591139D01*
X154295106Y-103594576D01*
X154261553Y-103604754D01*
X154230630Y-103621283D01*
X154203526Y-103643526D01*
X154181283Y-103670630D01*
X154164754Y-103701553D01*
X154154576Y-103735106D01*
X154151139Y-103770000D01*
X154151139Y-103917000D01*
X153370681Y-103917000D01*
X153348031Y-103883102D01*
X153291898Y-103826969D01*
X153225892Y-103782866D01*
X153152551Y-103752487D01*
X153074692Y-103737000D01*
X152995308Y-103737000D01*
X152917449Y-103752487D01*
X152844108Y-103782866D01*
X152778102Y-103826969D01*
X152721969Y-103883102D01*
X152699319Y-103917000D01*
X149870953Y-103917000D01*
X149859999Y-103915921D01*
X149816284Y-103920227D01*
X149774249Y-103932978D01*
X149735508Y-103953685D01*
X149701552Y-103981552D01*
X149694570Y-103990060D01*
X149144096Y-104540534D01*
X148985302Y-104455656D01*
X148791523Y-104396874D01*
X148640503Y-104382000D01*
X148539497Y-104382000D01*
X148388477Y-104396874D01*
X148194698Y-104455656D01*
X148016110Y-104551114D01*
X147859577Y-104679577D01*
X147731114Y-104836110D01*
X147635656Y-105014698D01*
X147576874Y-105208477D01*
X147557026Y-105410000D01*
X147576874Y-105611523D01*
X147635656Y-105805302D01*
X147731114Y-105983890D01*
X147859577Y-106140423D01*
X148016110Y-106268886D01*
X148194698Y-106364344D01*
X148388477Y-106423126D01*
X148539497Y-106438000D01*
X148640503Y-106438000D01*
X148791523Y-106423126D01*
X148985302Y-106364344D01*
X149163890Y-106268886D01*
X149320423Y-106140423D01*
X149448886Y-105983890D01*
X149544344Y-105805302D01*
X149603126Y-105611523D01*
X149622974Y-105410000D01*
X149603126Y-105208477D01*
X149544344Y-105014698D01*
X149459466Y-104855904D01*
X149952370Y-104363000D01*
X152699319Y-104363000D01*
X152721969Y-104396898D01*
X152778102Y-104453031D01*
X152844108Y-104497134D01*
X152917449Y-104527513D01*
X152995308Y-104543000D01*
X153074692Y-104543000D01*
X153152551Y-104527513D01*
X153225892Y-104497134D01*
X153291898Y-104453031D01*
X153348031Y-104396898D01*
X153370681Y-104363000D01*
X154151139Y-104363000D01*
X154151139Y-104510000D01*
X154154576Y-104544894D01*
X154164754Y-104578447D01*
X154181283Y-104609370D01*
X154203526Y-104636474D01*
X154230630Y-104658717D01*
X154261553Y-104675246D01*
X154295106Y-104685424D01*
X154330000Y-104688861D01*
X156730000Y-104688861D01*
X156764894Y-104685424D01*
X156798447Y-104675246D01*
X156829370Y-104658717D01*
X156856474Y-104636474D01*
X156878717Y-104609370D01*
X156895246Y-104578447D01*
X156903000Y-104552884D01*
X156903000Y-104997115D01*
X156895246Y-104971553D01*
X156878717Y-104940630D01*
X156856474Y-104913526D01*
X156829370Y-104891283D01*
X156798447Y-104874754D01*
X156764894Y-104864576D01*
X156730000Y-104861139D01*
X154330000Y-104861139D01*
X154295106Y-104864576D01*
X154261553Y-104874754D01*
X154230630Y-104891283D01*
X154203526Y-104913526D01*
X154181283Y-104940630D01*
X154164754Y-104971553D01*
X154154576Y-105005106D01*
X154151139Y-105040000D01*
X154151139Y-105187000D01*
X152608681Y-105187000D01*
X152586031Y-105153102D01*
X152529898Y-105096969D01*
X152463892Y-105052866D01*
X152390551Y-105022487D01*
X152312692Y-105007000D01*
X152233308Y-105007000D01*
X152155449Y-105022487D01*
X152082108Y-105052866D01*
X152016102Y-105096969D01*
X151959969Y-105153102D01*
X151915866Y-105219108D01*
X151885487Y-105292449D01*
X151870000Y-105370308D01*
X151870000Y-105449692D01*
X151885487Y-105527551D01*
X151915866Y-105600892D01*
X151959969Y-105666898D01*
X152016102Y-105723031D01*
X152082108Y-105767134D01*
X152155449Y-105797513D01*
X152233308Y-105813000D01*
X152312692Y-105813000D01*
X152390551Y-105797513D01*
X152463892Y-105767134D01*
X152529898Y-105723031D01*
X152586031Y-105666898D01*
X152608681Y-105633000D01*
X154151139Y-105633000D01*
X154151139Y-105780000D01*
X154154576Y-105814894D01*
X154164754Y-105848447D01*
X154181283Y-105879370D01*
X154203526Y-105906474D01*
X154230630Y-105928717D01*
X154261553Y-105945246D01*
X154295106Y-105955424D01*
X154330000Y-105958861D01*
X156730000Y-105958861D01*
X156764894Y-105955424D01*
X156798447Y-105945246D01*
X156829370Y-105928717D01*
X156856474Y-105906474D01*
X156878717Y-105879370D01*
X156895246Y-105848447D01*
X156903000Y-105822885D01*
X156903000Y-106180906D01*
X156900824Y-106203000D01*
X156903000Y-106225094D01*
X156903000Y-106225104D01*
X156909511Y-106291214D01*
X156923704Y-106338000D01*
X156935243Y-106376040D01*
X156977029Y-106454216D01*
X157007436Y-106491267D01*
X157033263Y-106522737D01*
X157050433Y-106536828D01*
X157496176Y-106982572D01*
X157510263Y-106999737D01*
X157527428Y-107013824D01*
X157527432Y-107013828D01*
X157578783Y-107055971D01*
X157600377Y-107067513D01*
X157656959Y-107097757D01*
X157741785Y-107123489D01*
X157807895Y-107130000D01*
X157807905Y-107130000D01*
X157830000Y-107132176D01*
X157852094Y-107130000D01*
X157993019Y-107130000D01*
X157997913Y-107146134D01*
X158021127Y-107189564D01*
X158052368Y-107227632D01*
X158090436Y-107258873D01*
X158133866Y-107282087D01*
X158180992Y-107296382D01*
X158230000Y-107301209D01*
X160630000Y-107301209D01*
X160679008Y-107296382D01*
X160726134Y-107282087D01*
X160769564Y-107258873D01*
X160807632Y-107227632D01*
X160838873Y-107189564D01*
X160862087Y-107146134D01*
X160876382Y-107099008D01*
X160881209Y-107050000D01*
X160881209Y-106310000D01*
X160878256Y-106280014D01*
X160941508Y-106246205D01*
X161026475Y-106176475D01*
X161087001Y-106102723D01*
X161087001Y-107747000D01*
X154061929Y-107747000D01*
X154110031Y-107698898D01*
X154154134Y-107632892D01*
X154184513Y-107559551D01*
X154200000Y-107481692D01*
X154200000Y-107402308D01*
X154184513Y-107324449D01*
X154154134Y-107251108D01*
X154110031Y-107185102D01*
X154053898Y-107128969D01*
X153987892Y-107084866D01*
X153914551Y-107054487D01*
X153836692Y-107039000D01*
X153757308Y-107039000D01*
X153679449Y-107054487D01*
X153606108Y-107084866D01*
X153540102Y-107128969D01*
X153483969Y-107185102D01*
X153461319Y-107219000D01*
X144364370Y-107219000D01*
X143785678Y-106640308D01*
X150727000Y-106640308D01*
X150727000Y-106719692D01*
X150742487Y-106797551D01*
X150772866Y-106870892D01*
X150816969Y-106936898D01*
X150873102Y-106993031D01*
X150939108Y-107037134D01*
X151012449Y-107067513D01*
X151090308Y-107083000D01*
X151169692Y-107083000D01*
X151247551Y-107067513D01*
X151320892Y-107037134D01*
X151386898Y-106993031D01*
X151443031Y-106936898D01*
X151465681Y-106903000D01*
X154151139Y-106903000D01*
X154151139Y-107050000D01*
X154154576Y-107084894D01*
X154164754Y-107118447D01*
X154181283Y-107149370D01*
X154203526Y-107176474D01*
X154230630Y-107198717D01*
X154261553Y-107215246D01*
X154295106Y-107225424D01*
X154330000Y-107228861D01*
X156730000Y-107228861D01*
X156764894Y-107225424D01*
X156798447Y-107215246D01*
X156829370Y-107198717D01*
X156856474Y-107176474D01*
X156878717Y-107149370D01*
X156895246Y-107118447D01*
X156905424Y-107084894D01*
X156908861Y-107050000D01*
X156908861Y-106310000D01*
X156905424Y-106275106D01*
X156895246Y-106241553D01*
X156878717Y-106210630D01*
X156856474Y-106183526D01*
X156829370Y-106161283D01*
X156798447Y-106144754D01*
X156764894Y-106134576D01*
X156730000Y-106131139D01*
X154330000Y-106131139D01*
X154295106Y-106134576D01*
X154261553Y-106144754D01*
X154230630Y-106161283D01*
X154203526Y-106183526D01*
X154181283Y-106210630D01*
X154164754Y-106241553D01*
X154154576Y-106275106D01*
X154151139Y-106310000D01*
X154151139Y-106457000D01*
X151465681Y-106457000D01*
X151443031Y-106423102D01*
X151386898Y-106366969D01*
X151320892Y-106322866D01*
X151247551Y-106292487D01*
X151169692Y-106277000D01*
X151090308Y-106277000D01*
X151012449Y-106292487D01*
X150939108Y-106322866D01*
X150873102Y-106366969D01*
X150816969Y-106423102D01*
X150772866Y-106489108D01*
X150742487Y-106562449D01*
X150727000Y-106640308D01*
X143785678Y-106640308D01*
X143109466Y-105964097D01*
X143194344Y-105805302D01*
X143253126Y-105611523D01*
X143272974Y-105410000D01*
X143253126Y-105208477D01*
X143194344Y-105014698D01*
X143098886Y-104836110D01*
X142970423Y-104679577D01*
X142813890Y-104551114D01*
X142635302Y-104455656D01*
X142441523Y-104396874D01*
X142290503Y-104382000D01*
X142189497Y-104382000D01*
X142038477Y-104396874D01*
X141844698Y-104455656D01*
X141666110Y-104551114D01*
X141509577Y-104679577D01*
X141381114Y-104836110D01*
X141285656Y-105014698D01*
X141226874Y-105208477D01*
X141207026Y-105410000D01*
X141226874Y-105611523D01*
X141285656Y-105805302D01*
X141381114Y-105983890D01*
X141509577Y-106140423D01*
X141666110Y-106268886D01*
X141844698Y-106364344D01*
X142038477Y-106423126D01*
X142189497Y-106438000D01*
X142290503Y-106438000D01*
X142441523Y-106423126D01*
X142635302Y-106364344D01*
X142794097Y-106279466D01*
X144106568Y-107591938D01*
X144113552Y-107600448D01*
X144147508Y-107628315D01*
X144186249Y-107649022D01*
X144228284Y-107661773D01*
X144272000Y-107666079D01*
X144282954Y-107665000D01*
X153461319Y-107665000D01*
X153483969Y-107698898D01*
X153532071Y-107747000D01*
X138633000Y-107747000D01*
X138633000Y-106323477D01*
X138798142Y-106491267D01*
X139026416Y-106646434D01*
X139280575Y-106754086D01*
X139496000Y-106663651D01*
X139496000Y-105614000D01*
X139904000Y-105614000D01*
X139904000Y-106663651D01*
X140119425Y-106754086D01*
X140373584Y-106646434D01*
X140601858Y-106491267D01*
X140795474Y-106294547D01*
X140946991Y-106063834D01*
X141044078Y-105829424D01*
X140951989Y-105614000D01*
X139904000Y-105614000D01*
X139496000Y-105614000D01*
X139476000Y-105614000D01*
X139476000Y-105206000D01*
X139496000Y-105206000D01*
X139496000Y-104156349D01*
X139457055Y-104140000D01*
X139496000Y-104123651D01*
X139496000Y-103074000D01*
X139904000Y-103074000D01*
X139904000Y-104123651D01*
X139942945Y-104140000D01*
X139904000Y-104156349D01*
X139904000Y-105206000D01*
X140951989Y-105206000D01*
X141044078Y-104990576D01*
X140946991Y-104756166D01*
X140795474Y-104525453D01*
X140601858Y-104328733D01*
X140373584Y-104173566D01*
X140294337Y-104140000D01*
X140373584Y-104106434D01*
X140601858Y-103951267D01*
X140795474Y-103754547D01*
X140946991Y-103523834D01*
X141044078Y-103289424D01*
X140951989Y-103074000D01*
X139904000Y-103074000D01*
X139496000Y-103074000D01*
X139476000Y-103074000D01*
X139476000Y-102870000D01*
X141207026Y-102870000D01*
X141226874Y-103071523D01*
X141285656Y-103265302D01*
X141381114Y-103443890D01*
X141509577Y-103600423D01*
X141666110Y-103728886D01*
X141844698Y-103824344D01*
X142038477Y-103883126D01*
X142189497Y-103898000D01*
X142290503Y-103898000D01*
X142441523Y-103883126D01*
X142635302Y-103824344D01*
X142794096Y-103739466D01*
X143344568Y-104289938D01*
X143351552Y-104298448D01*
X143385508Y-104326315D01*
X143424249Y-104347022D01*
X143466284Y-104359773D01*
X143509999Y-104364079D01*
X143520953Y-104363000D01*
X149087046Y-104363000D01*
X149098000Y-104364079D01*
X149108954Y-104363000D01*
X149141716Y-104359773D01*
X149183751Y-104347022D01*
X149222492Y-104326315D01*
X149256448Y-104298448D01*
X149263436Y-104289933D01*
X149825369Y-103728000D01*
X153461319Y-103728000D01*
X153483969Y-103761898D01*
X153540102Y-103818031D01*
X153606108Y-103862134D01*
X153679449Y-103892513D01*
X153757308Y-103908000D01*
X153836692Y-103908000D01*
X153914551Y-103892513D01*
X153987892Y-103862134D01*
X154053898Y-103818031D01*
X154110031Y-103761898D01*
X154154134Y-103695892D01*
X154184513Y-103622551D01*
X154200000Y-103544692D01*
X154200000Y-103465308D01*
X154184513Y-103387449D01*
X154154134Y-103314108D01*
X154110031Y-103248102D01*
X154053898Y-103191969D01*
X153987892Y-103147866D01*
X153914551Y-103117487D01*
X153836692Y-103102000D01*
X153757308Y-103102000D01*
X153679449Y-103117487D01*
X153606108Y-103147866D01*
X153540102Y-103191969D01*
X153483969Y-103248102D01*
X153461319Y-103282000D01*
X149743957Y-103282000D01*
X149733000Y-103280921D01*
X149689284Y-103285226D01*
X149647248Y-103297978D01*
X149627878Y-103308332D01*
X149608508Y-103318685D01*
X149574552Y-103346552D01*
X149567564Y-103355067D01*
X149005631Y-103917000D01*
X143602370Y-103917000D01*
X143109466Y-103424096D01*
X143194344Y-103265302D01*
X143253126Y-103071523D01*
X143272974Y-102870000D01*
X143253126Y-102668477D01*
X143194344Y-102474698D01*
X143098886Y-102296110D01*
X142970423Y-102139577D01*
X142813890Y-102011114D01*
X142635302Y-101915656D01*
X142441523Y-101856874D01*
X142290503Y-101842000D01*
X142189497Y-101842000D01*
X142038477Y-101856874D01*
X141844698Y-101915656D01*
X141666110Y-102011114D01*
X141509577Y-102139577D01*
X141381114Y-102296110D01*
X141285656Y-102474698D01*
X141226874Y-102668477D01*
X141207026Y-102870000D01*
X139476000Y-102870000D01*
X139476000Y-102666000D01*
X139496000Y-102666000D01*
X139496000Y-101616349D01*
X139457055Y-101600000D01*
X139496000Y-101583651D01*
X139496000Y-100534000D01*
X139904000Y-100534000D01*
X139904000Y-101583651D01*
X139942945Y-101600000D01*
X139904000Y-101616349D01*
X139904000Y-102666000D01*
X140951989Y-102666000D01*
X141044078Y-102450576D01*
X140946991Y-102216166D01*
X140795474Y-101985453D01*
X140601858Y-101788733D01*
X140373584Y-101633566D01*
X140294337Y-101600000D01*
X140373584Y-101566434D01*
X140601858Y-101411267D01*
X140795474Y-101214547D01*
X140946991Y-100983834D01*
X141044078Y-100749424D01*
X140951989Y-100534000D01*
X139904000Y-100534000D01*
X139496000Y-100534000D01*
X139476000Y-100534000D01*
X139476000Y-100126000D01*
X139496000Y-100126000D01*
X139496000Y-99076349D01*
X139457055Y-99060000D01*
X139496000Y-99043651D01*
X139496000Y-97994000D01*
X139904000Y-97994000D01*
X139904000Y-99043651D01*
X139942945Y-99060000D01*
X139904000Y-99076349D01*
X139904000Y-100126000D01*
X140951989Y-100126000D01*
X141044078Y-99910576D01*
X140946991Y-99676166D01*
X140795474Y-99445453D01*
X140601858Y-99248733D01*
X140373584Y-99093566D01*
X140294337Y-99060000D01*
X140373584Y-99026434D01*
X140601858Y-98871267D01*
X140795474Y-98674547D01*
X140946991Y-98443834D01*
X141044078Y-98209424D01*
X140951989Y-97994000D01*
X139904000Y-97994000D01*
X139496000Y-97994000D01*
X139476000Y-97994000D01*
X139476000Y-97790000D01*
X141207026Y-97790000D01*
X141226874Y-97991523D01*
X141285656Y-98185302D01*
X141381114Y-98363890D01*
X141509577Y-98520423D01*
X141666110Y-98648886D01*
X141844698Y-98744344D01*
X142038477Y-98803126D01*
X142189497Y-98818000D01*
X142290503Y-98818000D01*
X142441523Y-98803126D01*
X142635302Y-98744344D01*
X142794096Y-98659466D01*
X143217568Y-99082938D01*
X143224552Y-99091448D01*
X143258508Y-99119315D01*
X143297249Y-99140022D01*
X143339284Y-99152773D01*
X143382999Y-99157079D01*
X143393953Y-99156000D01*
X152699319Y-99156000D01*
X152721969Y-99189898D01*
X152778102Y-99246031D01*
X152844108Y-99290134D01*
X152917449Y-99320513D01*
X152995308Y-99336000D01*
X153074692Y-99336000D01*
X153152551Y-99320513D01*
X153225892Y-99290134D01*
X153291898Y-99246031D01*
X153348031Y-99189898D01*
X153392134Y-99123892D01*
X153422513Y-99050551D01*
X153438000Y-98972692D01*
X153438000Y-98893308D01*
X153422513Y-98815449D01*
X153392134Y-98742108D01*
X153348031Y-98676102D01*
X153291898Y-98619969D01*
X153225892Y-98575866D01*
X153152551Y-98545487D01*
X153074692Y-98530000D01*
X152995308Y-98530000D01*
X152917449Y-98545487D01*
X152844108Y-98575866D01*
X152778102Y-98619969D01*
X152721969Y-98676102D01*
X152699319Y-98710000D01*
X149650580Y-98710000D01*
X149685474Y-98674547D01*
X149836991Y-98443834D01*
X149934078Y-98209424D01*
X149841989Y-97994000D01*
X148794000Y-97994000D01*
X148794000Y-98710000D01*
X148386000Y-98710000D01*
X148386000Y-97994000D01*
X147338011Y-97994000D01*
X147245922Y-98209424D01*
X147343009Y-98443834D01*
X147494526Y-98674547D01*
X147529420Y-98710000D01*
X143475370Y-98710000D01*
X143109466Y-98344096D01*
X143194344Y-98185302D01*
X143253126Y-97991523D01*
X143272974Y-97790000D01*
X143253126Y-97588477D01*
X143194344Y-97394698D01*
X143098886Y-97216110D01*
X142970423Y-97059577D01*
X142813890Y-96931114D01*
X142635302Y-96835656D01*
X142441523Y-96776874D01*
X142290503Y-96762000D01*
X142189497Y-96762000D01*
X142038477Y-96776874D01*
X141844698Y-96835656D01*
X141666110Y-96931114D01*
X141509577Y-97059577D01*
X141381114Y-97216110D01*
X141285656Y-97394698D01*
X141226874Y-97588477D01*
X141207026Y-97790000D01*
X139476000Y-97790000D01*
X139476000Y-97586000D01*
X139496000Y-97586000D01*
X139496000Y-96536349D01*
X139457055Y-96520000D01*
X139496000Y-96503651D01*
X139496000Y-95454000D01*
X139904000Y-95454000D01*
X139904000Y-96503651D01*
X139942945Y-96520000D01*
X139904000Y-96536349D01*
X139904000Y-97586000D01*
X140951989Y-97586000D01*
X141044078Y-97370576D01*
X140946991Y-97136166D01*
X140795474Y-96905453D01*
X140601858Y-96708733D01*
X140373584Y-96553566D01*
X140294337Y-96520000D01*
X140373584Y-96486434D01*
X140601858Y-96331267D01*
X140795474Y-96134547D01*
X140946991Y-95903834D01*
X141044078Y-95669424D01*
X140951989Y-95454000D01*
X139904000Y-95454000D01*
X139496000Y-95454000D01*
X139476000Y-95454000D01*
X139476000Y-95046000D01*
X139496000Y-95046000D01*
X139496000Y-93996349D01*
X139457055Y-93980000D01*
X139496000Y-93963651D01*
X139496000Y-92914000D01*
X139904000Y-92914000D01*
X139904000Y-93963651D01*
X139942945Y-93980000D01*
X139904000Y-93996349D01*
X139904000Y-95046000D01*
X140951989Y-95046000D01*
X141044078Y-94830576D01*
X140946991Y-94596166D01*
X140795474Y-94365453D01*
X140601858Y-94168733D01*
X140373584Y-94013566D01*
X140294337Y-93980000D01*
X140373584Y-93946434D01*
X140601858Y-93791267D01*
X140795474Y-93594547D01*
X140946991Y-93363834D01*
X141044078Y-93129424D01*
X140951989Y-92914000D01*
X139904000Y-92914000D01*
X139496000Y-92914000D01*
X139476000Y-92914000D01*
X139476000Y-92506000D01*
X139496000Y-92506000D01*
X139496000Y-91456349D01*
X139457055Y-91440000D01*
X139496000Y-91423651D01*
X139496000Y-90374000D01*
X139904000Y-90374000D01*
X139904000Y-91423651D01*
X139942945Y-91440000D01*
X139904000Y-91456349D01*
X139904000Y-92506000D01*
X140951989Y-92506000D01*
X141044078Y-92290576D01*
X140946991Y-92056166D01*
X140795474Y-91825453D01*
X140601858Y-91628733D01*
X140373584Y-91473566D01*
X140294337Y-91440000D01*
X140373584Y-91406434D01*
X140601858Y-91251267D01*
X140795474Y-91054547D01*
X140946991Y-90823834D01*
X141044078Y-90589424D01*
X140951989Y-90374000D01*
X139904000Y-90374000D01*
X139496000Y-90374000D01*
X139476000Y-90374000D01*
X139476000Y-90170000D01*
X141207026Y-90170000D01*
X141226874Y-90371523D01*
X141285656Y-90565302D01*
X141381114Y-90743890D01*
X141509577Y-90900423D01*
X141666110Y-91028886D01*
X141844698Y-91124344D01*
X142038477Y-91183126D01*
X142189497Y-91198000D01*
X142290503Y-91198000D01*
X142441523Y-91183126D01*
X142635302Y-91124344D01*
X142813890Y-91028886D01*
X142970423Y-90900423D01*
X143098886Y-90743890D01*
X143194344Y-90565302D01*
X143253126Y-90371523D01*
X143272974Y-90170000D01*
X143253126Y-89968477D01*
X143194344Y-89774698D01*
X143098886Y-89596110D01*
X142970423Y-89439577D01*
X142813890Y-89311114D01*
X142635302Y-89215656D01*
X142441523Y-89156874D01*
X142290503Y-89142000D01*
X142189497Y-89142000D01*
X142038477Y-89156874D01*
X141844698Y-89215656D01*
X141666110Y-89311114D01*
X141509577Y-89439577D01*
X141381114Y-89596110D01*
X141285656Y-89774698D01*
X141226874Y-89968477D01*
X141207026Y-90170000D01*
X139476000Y-90170000D01*
X139476000Y-89966000D01*
X139496000Y-89966000D01*
X139496000Y-88916349D01*
X139457055Y-88900000D01*
X139496000Y-88883651D01*
X139496000Y-87834000D01*
X139904000Y-87834000D01*
X139904000Y-88883651D01*
X139942945Y-88900000D01*
X139904000Y-88916349D01*
X139904000Y-89966000D01*
X140951989Y-89966000D01*
X141044078Y-89750576D01*
X140946991Y-89516166D01*
X140795474Y-89285453D01*
X140601858Y-89088733D01*
X140373584Y-88933566D01*
X140294337Y-88900000D01*
X140373584Y-88866434D01*
X140601858Y-88711267D01*
X140795474Y-88514547D01*
X140946991Y-88283834D01*
X141044078Y-88049424D01*
X140951989Y-87834000D01*
X139904000Y-87834000D01*
X139496000Y-87834000D01*
X139476000Y-87834000D01*
X139476000Y-87630000D01*
X141207026Y-87630000D01*
X141226874Y-87831523D01*
X141285656Y-88025302D01*
X141381114Y-88203890D01*
X141509577Y-88360423D01*
X141666110Y-88488886D01*
X141844698Y-88584344D01*
X142038477Y-88643126D01*
X142189497Y-88658000D01*
X142290503Y-88658000D01*
X142441523Y-88643126D01*
X142635302Y-88584344D01*
X142813890Y-88488886D01*
X142970423Y-88360423D01*
X143098886Y-88203890D01*
X143194344Y-88025302D01*
X143253126Y-87831523D01*
X143272974Y-87630000D01*
X143253126Y-87428477D01*
X143194344Y-87234698D01*
X143098886Y-87056110D01*
X142970423Y-86899577D01*
X142813890Y-86771114D01*
X142635302Y-86675656D01*
X142441523Y-86616874D01*
X142290503Y-86602000D01*
X142189497Y-86602000D01*
X142038477Y-86616874D01*
X141844698Y-86675656D01*
X141666110Y-86771114D01*
X141509577Y-86899577D01*
X141381114Y-87056110D01*
X141285656Y-87234698D01*
X141226874Y-87428477D01*
X141207026Y-87630000D01*
X139476000Y-87630000D01*
X139476000Y-87426000D01*
X139496000Y-87426000D01*
X139496000Y-86376349D01*
X139457055Y-86360000D01*
X139496000Y-86343651D01*
X139496000Y-85294000D01*
X139904000Y-85294000D01*
X139904000Y-86343651D01*
X139942945Y-86360000D01*
X139904000Y-86376349D01*
X139904000Y-87426000D01*
X140951989Y-87426000D01*
X141044078Y-87210576D01*
X140946991Y-86976166D01*
X140795474Y-86745453D01*
X140601858Y-86548733D01*
X140373584Y-86393566D01*
X140294337Y-86360000D01*
X140373584Y-86326434D01*
X140601858Y-86171267D01*
X140795474Y-85974547D01*
X140946991Y-85743834D01*
X141044078Y-85509424D01*
X140951989Y-85294000D01*
X139904000Y-85294000D01*
X139496000Y-85294000D01*
X139476000Y-85294000D01*
X139476000Y-85090000D01*
X141207026Y-85090000D01*
X141226874Y-85291523D01*
X141285656Y-85485302D01*
X141381114Y-85663890D01*
X141509577Y-85820423D01*
X141666110Y-85948886D01*
X141844698Y-86044344D01*
X142038477Y-86103126D01*
X142189497Y-86118000D01*
X142290503Y-86118000D01*
X142441523Y-86103126D01*
X142635302Y-86044344D01*
X142813890Y-85948886D01*
X142970423Y-85820423D01*
X143098886Y-85663890D01*
X143194344Y-85485302D01*
X143253126Y-85291523D01*
X143272974Y-85090000D01*
X143253126Y-84888477D01*
X143194344Y-84694698D01*
X143098886Y-84516110D01*
X142970423Y-84359577D01*
X142813890Y-84231114D01*
X142635302Y-84135656D01*
X142441523Y-84076874D01*
X142290503Y-84062000D01*
X142189497Y-84062000D01*
X142038477Y-84076874D01*
X141844698Y-84135656D01*
X141666110Y-84231114D01*
X141509577Y-84359577D01*
X141381114Y-84516110D01*
X141285656Y-84694698D01*
X141226874Y-84888477D01*
X141207026Y-85090000D01*
X139476000Y-85090000D01*
X139476000Y-84886000D01*
X139496000Y-84886000D01*
X139496000Y-83836349D01*
X139904000Y-83836349D01*
X139904000Y-84886000D01*
X140951989Y-84886000D01*
X141044078Y-84670576D01*
X140946991Y-84436166D01*
X140795474Y-84205453D01*
X140601858Y-84008733D01*
X140373584Y-83853566D01*
X140119425Y-83745914D01*
X139904000Y-83836349D01*
X139496000Y-83836349D01*
X139280575Y-83745914D01*
X139026416Y-83853566D01*
X138798142Y-84008733D01*
X138633000Y-84176523D01*
X138633000Y-80213000D01*
X161087000Y-80213000D01*
X161087001Y-100907276D01*
G36*
X159634000Y-103936000D02*
G01*
X159654000Y-103936000D01*
X159654000Y-104344000D01*
X159634000Y-104344000D01*
X159634000Y-105206000D01*
X159654000Y-105206000D01*
X159654000Y-105614000D01*
X159634000Y-105614000D01*
X159634000Y-105634000D01*
X159226000Y-105634000D01*
X159226000Y-105614000D01*
X159206000Y-105614000D01*
X159206000Y-105206000D01*
X159226000Y-105206000D01*
X159226000Y-104344000D01*
X159206000Y-104344000D01*
X159206000Y-103936000D01*
X159226000Y-103936000D01*
X159226000Y-103916000D01*
X159634000Y-103916000D01*
X159634000Y-103936000D01*
X159634000Y-103936000D01*
G37*
X159634000Y-103936000D02*
X159654000Y-103936000D01*
X159654000Y-104344000D01*
X159634000Y-104344000D01*
X159634000Y-105206000D01*
X159654000Y-105206000D01*
X159654000Y-105614000D01*
X159634000Y-105614000D01*
X159634000Y-105634000D01*
X159226000Y-105634000D01*
X159226000Y-105614000D01*
X159206000Y-105614000D01*
X159206000Y-105206000D01*
X159226000Y-105206000D01*
X159226000Y-104344000D01*
X159206000Y-104344000D01*
X159206000Y-103936000D01*
X159226000Y-103936000D01*
X159226000Y-103916000D01*
X159634000Y-103916000D01*
X159634000Y-103936000D01*
G36*
X157811498Y-103935998D02*
G01*
X157803000Y-103935998D01*
X157803000Y-103927500D01*
X157811498Y-103935998D01*
X157811498Y-103935998D01*
G37*
X157811498Y-103935998D02*
X157803000Y-103935998D01*
X157803000Y-103927500D01*
X157811498Y-103935998D01*
G36*
X157803000Y-101812500D02*
G01*
X157803000Y-101804002D01*
X157811498Y-101804002D01*
X157803000Y-101812500D01*
X157803000Y-101812500D01*
G37*
X157803000Y-101812500D02*
X157803000Y-101804002D01*
X157811498Y-101804002D01*
X157803000Y-101812500D01*
M02*
