M48
; DRILL file {KiCad (5.1.4)-1} date 11.05.2020 18:22:32
; FORMAT={-:-/ absolute / inch / decimal}
; #@! TF.CreationDate,2020-05-11T18:22:32+02:00
; #@! TF.GenerationSoftware,Kicad,Pcbnew,(5.1.4)-1
FMAT,2
INCH
T1C0.0079
T2C0.0157
T3C0.0394
%
G90
G05
T1
X5.755Y-3.39
X5.78Y-3.8
X5.955Y-3.55
X5.955Y-4.25
X5.98Y-3.525
X5.98Y-3.75
X5.98Y-4.2
X6.005Y-3.45
X6.005Y-4.1
X6.05Y-3.375
X6.05Y-4.05
X6.215Y-3.375
X6.275Y-3.8
T2
X5.48Y-3.13
X5.48Y-3.19
X5.48Y-4.27
X5.56Y-3.13
X5.56Y-4.27
X5.64Y-3.13
X5.64Y-4.27
X5.67Y-3.38
X5.71Y-3.42
X5.71Y-3.58
X5.71Y-3.64
X5.71Y-3.71
X5.72Y-3.13
X5.72Y-4.27
X5.78Y-4.1
X5.8Y-3.13
X5.8Y-4.27
X5.81Y-3.58
X5.88Y-3.13
X5.88Y-4.27
X5.92Y-3.91
X5.92Y-3.99
X5.92Y-4.1
X5.96Y-3.13
X6.04Y-3.13
X6.08Y-3.86
X6.16Y-3.86
X6.2Y-3.15
X6.2Y-3.2
X6.2Y-3.5
X6.2Y-3.6
X6.2Y-3.65
X6.2Y-4.25
X6.24Y-3.86
X6.32Y-3.7
X6.32Y-3.78
X6.32Y-3.84
X6.32Y-3.92
X6.32Y-4.0
T3
X5.85Y-3.65
X5.85Y-3.75
X5.85Y-3.85
X5.85Y-3.95
X5.85Y-4.05
X5.85Y-4.15
X5.5Y-3.25
X5.5Y-3.35
X5.5Y-3.45
X5.5Y-3.55
X5.5Y-3.65
X5.5Y-3.75
X5.5Y-3.85
X5.5Y-3.95
X5.5Y-4.05
X5.5Y-4.15
X5.6Y-3.25
X5.6Y-3.35
X5.6Y-3.45
X5.6Y-3.55
X5.6Y-3.65
X5.6Y-3.75
X5.6Y-3.85
X5.6Y-3.95
X5.6Y-4.05
X5.6Y-4.15
T0
M30
