M48
; DRILL file {KiCad (5.1.4)-1} date 26.04.2020 19:26:15
; FORMAT={-:-/ absolute / inch / decimal}
; #@! TF.CreationDate,2020-04-26T19:26:15+02:00
; #@! TF.GenerationSoftware,Kicad,Pcbnew,(5.1.4)-1
FMAT,2
INCH
T1C0.0079
T2C0.0394
%
G90
G05
T1
X5.95Y-3.55
X5.95Y-3.95
X5.95Y-4.2
X5.965Y-3.6
X5.965Y-4.05
X5.98Y-3.65
X5.98Y-4.0
X5.995Y-3.5
X5.995Y-3.785
X5.995Y-4.15
X6.01Y-3.45
X6.01Y-3.81
X6.025Y-3.4
X6.025Y-3.895
X6.025Y-4.1
X6.04Y-3.35
X6.04Y-3.98
X6.055Y-3.25
X6.055Y-3.3
X6.055Y-4.075
X6.055Y-4.23
X6.185Y-4.235
X6.195Y-3.225
X6.195Y-3.275
X6.195Y-3.325
X6.195Y-3.425
X6.195Y-3.475
X6.195Y-3.525
X6.195Y-3.625
X6.275Y-4.125
X6.335Y-4.235
T2
X5.5Y-3.25
X5.5Y-3.35
X5.5Y-3.45
X5.5Y-3.55
X5.5Y-3.65
X5.5Y-3.75
X5.5Y-3.85
X5.5Y-3.95
X5.5Y-4.05
X5.5Y-4.15
X5.6Y-3.25
X5.6Y-3.35
X5.6Y-3.45
X5.6Y-3.55
X5.6Y-3.65
X5.6Y-3.75
X5.6Y-3.85
X5.6Y-3.95
X5.6Y-4.05
X5.6Y-4.15
X5.85Y-3.65
X5.85Y-3.75
X5.85Y-3.85
X5.85Y-3.95
X5.85Y-4.05
X5.85Y-4.15
T0
M30
