G04 #@! TF.GenerationSoftware,KiCad,Pcbnew,(5.1.4)-1*
G04 #@! TF.CreationDate,2020-05-11T18:22:27+02:00*
G04 #@! TF.ProjectId,JtagArm20Adapter,4a746167-4172-46d3-9230-416461707465,rev?*
G04 #@! TF.SameCoordinates,Original*
G04 #@! TF.FileFunction,Legend,Top*
G04 #@! TF.FilePolarity,Positive*
%FSLAX46Y46*%
G04 Gerber Fmt 4.6, Leading zero omitted, Abs format (unit mm)*
G04 Created by KiCad (PCBNEW (5.1.4)-1) date 2020-05-11 18:22:27*
%MOMM*%
%LPD*%
G04 APERTURE LIST*
%ADD10C,0.150000*%
%ADD11C,0.100000*%
%ADD12C,0.160000*%
%ADD13C,0.200000*%
%ADD14C,0.050000*%
%ADD15C,0.120000*%
G04 APERTURE END LIST*
D10*
X160980380Y-92297285D02*
X160980380Y-92868714D01*
X160980380Y-92583000D02*
X159980380Y-92583000D01*
X160123238Y-92678238D01*
X160218476Y-92773476D01*
X160266095Y-92868714D01*
D11*
G36*
X161290000Y-92075000D02*
G01*
X157988000Y-92075000D01*
X157988000Y-91440000D01*
X160909000Y-91440000D01*
X160909000Y-90297000D01*
X161290000Y-90297000D01*
X161290000Y-92075000D01*
G37*
X161290000Y-92075000D02*
X157988000Y-92075000D01*
X157988000Y-91440000D01*
X160909000Y-91440000D01*
X160909000Y-90297000D01*
X161290000Y-90297000D01*
X161290000Y-92075000D01*
G36*
X161290000Y-109220000D02*
G01*
X157988000Y-109220000D01*
X157988000Y-108585000D01*
X160909000Y-108585000D01*
X160909000Y-107442000D01*
X161290000Y-107442000D01*
X161290000Y-109220000D01*
G37*
X161290000Y-109220000D02*
X157988000Y-109220000D01*
X157988000Y-108585000D01*
X160909000Y-108585000D01*
X160909000Y-107442000D01*
X161290000Y-107442000D01*
X161290000Y-109220000D01*
D12*
X150281476Y-105814761D02*
X150424333Y-105862380D01*
X150662428Y-105862380D01*
X150757666Y-105814761D01*
X150805285Y-105767142D01*
X150852904Y-105671904D01*
X150852904Y-105576666D01*
X150805285Y-105481428D01*
X150757666Y-105433809D01*
X150662428Y-105386190D01*
X150471952Y-105338571D01*
X150376714Y-105290952D01*
X150329095Y-105243333D01*
X150281476Y-105148095D01*
X150281476Y-105052857D01*
X150329095Y-104957619D01*
X150376714Y-104910000D01*
X150471952Y-104862380D01*
X150710047Y-104862380D01*
X150852904Y-104910000D01*
X151186238Y-104862380D02*
X151424333Y-105862380D01*
X151614809Y-105148095D01*
X151805285Y-105862380D01*
X152043380Y-104862380D01*
X152614809Y-104862380D02*
X152805285Y-104862380D01*
X152900523Y-104910000D01*
X152995761Y-105005238D01*
X153043380Y-105195714D01*
X153043380Y-105529047D01*
X152995761Y-105719523D01*
X152900523Y-105814761D01*
X152805285Y-105862380D01*
X152614809Y-105862380D01*
X152519571Y-105814761D01*
X152424333Y-105719523D01*
X152376714Y-105529047D01*
X152376714Y-105195714D01*
X152424333Y-105005238D01*
X152519571Y-104910000D01*
X152614809Y-104862380D01*
X150900523Y-103322380D02*
X150567190Y-102846190D01*
X150329095Y-103322380D02*
X150329095Y-102322380D01*
X150710047Y-102322380D01*
X150805285Y-102370000D01*
X150852904Y-102417619D01*
X150900523Y-102512857D01*
X150900523Y-102655714D01*
X150852904Y-102750952D01*
X150805285Y-102798571D01*
X150710047Y-102846190D01*
X150329095Y-102846190D01*
X151281476Y-103274761D02*
X151424333Y-103322380D01*
X151662428Y-103322380D01*
X151757666Y-103274761D01*
X151805285Y-103227142D01*
X151852904Y-103131904D01*
X151852904Y-103036666D01*
X151805285Y-102941428D01*
X151757666Y-102893809D01*
X151662428Y-102846190D01*
X151471952Y-102798571D01*
X151376714Y-102750952D01*
X151329095Y-102703333D01*
X151281476Y-102608095D01*
X151281476Y-102512857D01*
X151329095Y-102417619D01*
X151376714Y-102370000D01*
X151471952Y-102322380D01*
X151710047Y-102322380D01*
X151852904Y-102370000D01*
X152138619Y-102322380D02*
X152710047Y-102322380D01*
X152424333Y-103322380D02*
X152424333Y-102322380D01*
X150281476Y-100734761D02*
X150424333Y-100782380D01*
X150662428Y-100782380D01*
X150757666Y-100734761D01*
X150805285Y-100687142D01*
X150852904Y-100591904D01*
X150852904Y-100496666D01*
X150805285Y-100401428D01*
X150757666Y-100353809D01*
X150662428Y-100306190D01*
X150471952Y-100258571D01*
X150376714Y-100210952D01*
X150329095Y-100163333D01*
X150281476Y-100068095D01*
X150281476Y-99972857D01*
X150329095Y-99877619D01*
X150376714Y-99830000D01*
X150471952Y-99782380D01*
X150710047Y-99782380D01*
X150852904Y-99830000D01*
X151186238Y-99782380D02*
X151424333Y-100782380D01*
X151614809Y-100068095D01*
X151805285Y-100782380D01*
X152043380Y-99782380D01*
X152424333Y-100782380D02*
X152424333Y-99782380D01*
X152662428Y-99782380D01*
X152805285Y-99830000D01*
X152900523Y-99925238D01*
X152948142Y-100020476D01*
X152995761Y-100210952D01*
X152995761Y-100353809D01*
X152948142Y-100544285D01*
X152900523Y-100639523D01*
X152805285Y-100734761D01*
X152662428Y-100782380D01*
X152424333Y-100782380D01*
X153424333Y-100782380D02*
X153424333Y-99782380D01*
X154091000Y-99782380D02*
X154281476Y-99782380D01*
X154376714Y-99830000D01*
X154471952Y-99925238D01*
X154519571Y-100115714D01*
X154519571Y-100449047D01*
X154471952Y-100639523D01*
X154376714Y-100734761D01*
X154281476Y-100782380D01*
X154091000Y-100782380D01*
X153995761Y-100734761D01*
X153900523Y-100639523D01*
X153852904Y-100449047D01*
X153852904Y-100115714D01*
X153900523Y-99925238D01*
X153995761Y-99830000D01*
X154091000Y-99782380D01*
X150852904Y-97290000D02*
X150757666Y-97242380D01*
X150614809Y-97242380D01*
X150471952Y-97290000D01*
X150376714Y-97385238D01*
X150329095Y-97480476D01*
X150281476Y-97670952D01*
X150281476Y-97813809D01*
X150329095Y-98004285D01*
X150376714Y-98099523D01*
X150471952Y-98194761D01*
X150614809Y-98242380D01*
X150710047Y-98242380D01*
X150852904Y-98194761D01*
X150900523Y-98147142D01*
X150900523Y-97813809D01*
X150710047Y-97813809D01*
X151329095Y-98242380D02*
X151329095Y-97242380D01*
X151900523Y-98242380D01*
X151900523Y-97242380D01*
X152376714Y-98242380D02*
X152376714Y-97242380D01*
X152614809Y-97242380D01*
X152757666Y-97290000D01*
X152852904Y-97385238D01*
X152900523Y-97480476D01*
X152948142Y-97670952D01*
X152948142Y-97813809D01*
X152900523Y-98004285D01*
X152852904Y-98099523D01*
X152757666Y-98194761D01*
X152614809Y-98242380D01*
X152376714Y-98242380D01*
X150281476Y-95527761D02*
X150424333Y-95575380D01*
X150662428Y-95575380D01*
X150757666Y-95527761D01*
X150805285Y-95480142D01*
X150852904Y-95384904D01*
X150852904Y-95289666D01*
X150805285Y-95194428D01*
X150757666Y-95146809D01*
X150662428Y-95099190D01*
X150471952Y-95051571D01*
X150376714Y-95003952D01*
X150329095Y-94956333D01*
X150281476Y-94861095D01*
X150281476Y-94765857D01*
X150329095Y-94670619D01*
X150376714Y-94623000D01*
X150471952Y-94575380D01*
X150710047Y-94575380D01*
X150852904Y-94623000D01*
X151186238Y-94575380D02*
X151424333Y-95575380D01*
X151614809Y-94861095D01*
X151805285Y-95575380D01*
X152043380Y-94575380D01*
X152424333Y-95575380D02*
X152424333Y-94575380D01*
X152662428Y-94575380D01*
X152805285Y-94623000D01*
X152900523Y-94718238D01*
X152948142Y-94813476D01*
X152995761Y-95003952D01*
X152995761Y-95146809D01*
X152948142Y-95337285D01*
X152900523Y-95432523D01*
X152805285Y-95527761D01*
X152662428Y-95575380D01*
X152424333Y-95575380D01*
X153995761Y-95480142D02*
X153948142Y-95527761D01*
X153805285Y-95575380D01*
X153710047Y-95575380D01*
X153567190Y-95527761D01*
X153471952Y-95432523D01*
X153424333Y-95337285D01*
X153376714Y-95146809D01*
X153376714Y-95003952D01*
X153424333Y-94813476D01*
X153471952Y-94718238D01*
X153567190Y-94623000D01*
X153710047Y-94575380D01*
X153805285Y-94575380D01*
X153948142Y-94623000D01*
X153995761Y-94670619D01*
X154900523Y-95575380D02*
X154424333Y-95575380D01*
X154424333Y-94575380D01*
X155233857Y-95575380D02*
X155233857Y-94575380D01*
X155805285Y-95575380D02*
X155376714Y-95003952D01*
X155805285Y-94575380D02*
X155233857Y-95146809D01*
X150186238Y-92162380D02*
X150519571Y-93162380D01*
X150852904Y-92162380D01*
X151043380Y-92162380D02*
X151614809Y-92162380D01*
X151329095Y-93162380D02*
X151329095Y-92162380D01*
X151948142Y-93162380D02*
X151948142Y-92495714D01*
X151948142Y-92686190D02*
X151995761Y-92590952D01*
X152043380Y-92543333D01*
X152138619Y-92495714D01*
X152233857Y-92495714D01*
X152948142Y-93114761D02*
X152852904Y-93162380D01*
X152662428Y-93162380D01*
X152567190Y-93114761D01*
X152519571Y-93019523D01*
X152519571Y-92638571D01*
X152567190Y-92543333D01*
X152662428Y-92495714D01*
X152852904Y-92495714D01*
X152948142Y-92543333D01*
X152995761Y-92638571D01*
X152995761Y-92733809D01*
X152519571Y-92829047D01*
X153281476Y-92495714D02*
X153662428Y-92495714D01*
X153424333Y-93162380D02*
X153424333Y-92305238D01*
X153471952Y-92210000D01*
X153567190Y-92162380D01*
X153662428Y-92162380D01*
D13*
X143958571Y-102980000D02*
X145030000Y-102980000D01*
X145244285Y-103051428D01*
X145387142Y-103194285D01*
X145458571Y-103408571D01*
X145458571Y-103551428D01*
X143958571Y-102480000D02*
X143958571Y-101622857D01*
X145458571Y-102051428D02*
X143958571Y-102051428D01*
X145030000Y-101194285D02*
X145030000Y-100480000D01*
X145458571Y-101337142D02*
X143958571Y-100837142D01*
X145458571Y-100337142D01*
X144030000Y-99051428D02*
X143958571Y-99194285D01*
X143958571Y-99408571D01*
X144030000Y-99622857D01*
X144172857Y-99765714D01*
X144315714Y-99837142D01*
X144601428Y-99908571D01*
X144815714Y-99908571D01*
X145101428Y-99837142D01*
X145244285Y-99765714D01*
X145387142Y-99622857D01*
X145458571Y-99408571D01*
X145458571Y-99265714D01*
X145387142Y-99051428D01*
X145315714Y-98980000D01*
X144815714Y-98980000D01*
X144815714Y-99265714D01*
X143887142Y-97265714D02*
X145815714Y-98551428D01*
X145387142Y-96837142D02*
X145458571Y-96622857D01*
X145458571Y-96265714D01*
X145387142Y-96122857D01*
X145315714Y-96051428D01*
X145172857Y-95980000D01*
X145030000Y-95980000D01*
X144887142Y-96051428D01*
X144815714Y-96122857D01*
X144744285Y-96265714D01*
X144672857Y-96551428D01*
X144601428Y-96694285D01*
X144530000Y-96765714D01*
X144387142Y-96837142D01*
X144244285Y-96837142D01*
X144101428Y-96765714D01*
X144030000Y-96694285D01*
X143958571Y-96551428D01*
X143958571Y-96194285D01*
X144030000Y-95980000D01*
X143958571Y-95480000D02*
X145458571Y-95122857D01*
X144387142Y-94837142D01*
X145458571Y-94551428D01*
X143958571Y-94194285D01*
X145458571Y-93622857D02*
X143958571Y-93622857D01*
X143958571Y-93265714D01*
X144030000Y-93051428D01*
X144172857Y-92908571D01*
X144315714Y-92837142D01*
X144601428Y-92765714D01*
X144815714Y-92765714D01*
X145101428Y-92837142D01*
X145244285Y-92908571D01*
X145387142Y-93051428D01*
X145458571Y-93265714D01*
X145458571Y-93622857D01*
X145315714Y-90122857D02*
X145387142Y-90194285D01*
X145458571Y-90408571D01*
X145458571Y-90551428D01*
X145387142Y-90765714D01*
X145244285Y-90908571D01*
X145101428Y-90980000D01*
X144815714Y-91051428D01*
X144601428Y-91051428D01*
X144315714Y-90980000D01*
X144172857Y-90908571D01*
X144030000Y-90765714D01*
X143958571Y-90551428D01*
X143958571Y-90408571D01*
X144030000Y-90194285D01*
X144101428Y-90122857D01*
X145458571Y-89265714D02*
X145387142Y-89408571D01*
X145315714Y-89480000D01*
X145172857Y-89551428D01*
X144744285Y-89551428D01*
X144601428Y-89480000D01*
X144530000Y-89408571D01*
X144458571Y-89265714D01*
X144458571Y-89051428D01*
X144530000Y-88908571D01*
X144601428Y-88837142D01*
X144744285Y-88765714D01*
X145172857Y-88765714D01*
X145315714Y-88837142D01*
X145387142Y-88908571D01*
X145458571Y-89051428D01*
X145458571Y-89265714D01*
X145458571Y-88122857D02*
X144458571Y-88122857D01*
X144744285Y-88122857D02*
X144601428Y-88051428D01*
X144530000Y-87980000D01*
X144458571Y-87837142D01*
X144458571Y-87694285D01*
X144458571Y-87408571D02*
X144458571Y-86837142D01*
X143958571Y-87194285D02*
X145244285Y-87194285D01*
X145387142Y-87122857D01*
X145458571Y-86980000D01*
X145458571Y-86837142D01*
X145387142Y-85765714D02*
X145458571Y-85908571D01*
X145458571Y-86194285D01*
X145387142Y-86337142D01*
X145244285Y-86408571D01*
X144672857Y-86408571D01*
X144530000Y-86337142D01*
X144458571Y-86194285D01*
X144458571Y-85908571D01*
X144530000Y-85765714D01*
X144672857Y-85694285D01*
X144815714Y-85694285D01*
X144958571Y-86408571D01*
X145458571Y-85194285D02*
X144458571Y-84408571D01*
X144458571Y-85194285D02*
X145458571Y-84408571D01*
D12*
X149494761Y-89852571D02*
X149494761Y-90995428D01*
X149494761Y-90424000D02*
X147494761Y-90424000D01*
X147780476Y-90614476D01*
X147970952Y-90804952D01*
X148066190Y-90995428D01*
D14*
X138430000Y-109220000D02*
X138430000Y-78740000D01*
X161290000Y-109220000D02*
X138430000Y-109220000D01*
X161290000Y-78740000D02*
X161290000Y-109220000D01*
X138430000Y-78740000D02*
X161290000Y-78740000D01*
D15*
X152530000Y-84820000D02*
X149730000Y-84820000D01*
X149730000Y-84820000D02*
X149730000Y-82820000D01*
X149730000Y-82820000D02*
X152530000Y-82820000D01*
X152530000Y-82820000D02*
X152530000Y-84820000D01*
X158716000Y-97520000D02*
X155916000Y-97520000D01*
X155916000Y-97520000D02*
X155916000Y-95520000D01*
X155916000Y-95520000D02*
X158716000Y-95520000D01*
X158716000Y-95520000D02*
X158716000Y-97520000D01*
X142240000Y-81220000D02*
X143350000Y-81220000D01*
X143350000Y-81220000D02*
X143350000Y-82550000D01*
X129610000Y-81220000D02*
X129610000Y-106740000D01*
X129610000Y-106740000D02*
X138240000Y-106740000D01*
X138240000Y-81220000D02*
X138240000Y-106740000D01*
X129610000Y-81220000D02*
X138240000Y-81220000D01*
X129610000Y-104140000D02*
X138240000Y-104140000D01*
X129610000Y-101600000D02*
X138240000Y-101600000D01*
X129610000Y-99060000D02*
X138240000Y-99060000D01*
X129610000Y-96520000D02*
X138240000Y-96520000D01*
X129610000Y-93980000D02*
X138240000Y-93980000D01*
X129610000Y-91440000D02*
X138240000Y-91440000D01*
X129610000Y-88900000D02*
X138240000Y-88900000D01*
X129610000Y-86360000D02*
X138240000Y-86360000D01*
X129610000Y-83820000D02*
X138240000Y-83820000D01*
X140750000Y-105770000D02*
X141190000Y-105770000D01*
X138240000Y-105770000D02*
X138650000Y-105770000D01*
X140750000Y-105050000D02*
X141190000Y-105050000D01*
X138240000Y-105050000D02*
X138650000Y-105050000D01*
X140750000Y-103230000D02*
X141190000Y-103230000D01*
X138240000Y-103230000D02*
X138650000Y-103230000D01*
X140750000Y-102510000D02*
X141190000Y-102510000D01*
X138240000Y-102510000D02*
X138650000Y-102510000D01*
X140750000Y-100690000D02*
X141190000Y-100690000D01*
X138240000Y-100690000D02*
X138650000Y-100690000D01*
X140750000Y-99970000D02*
X141190000Y-99970000D01*
X138240000Y-99970000D02*
X138650000Y-99970000D01*
X140750000Y-98150000D02*
X141190000Y-98150000D01*
X138240000Y-98150000D02*
X138650000Y-98150000D01*
X140750000Y-97430000D02*
X141190000Y-97430000D01*
X138240000Y-97430000D02*
X138650000Y-97430000D01*
X140750000Y-95610000D02*
X141190000Y-95610000D01*
X138240000Y-95610000D02*
X138650000Y-95610000D01*
X140750000Y-94890000D02*
X141190000Y-94890000D01*
X138240000Y-94890000D02*
X138650000Y-94890000D01*
X140750000Y-93070000D02*
X141190000Y-93070000D01*
X138240000Y-93070000D02*
X138650000Y-93070000D01*
X140750000Y-92350000D02*
X141190000Y-92350000D01*
X138240000Y-92350000D02*
X138650000Y-92350000D01*
X140750000Y-90530000D02*
X141190000Y-90530000D01*
X138240000Y-90530000D02*
X138650000Y-90530000D01*
X140750000Y-89810000D02*
X141190000Y-89810000D01*
X138240000Y-89810000D02*
X138650000Y-89810000D01*
X140750000Y-87990000D02*
X141190000Y-87990000D01*
X138240000Y-87990000D02*
X138650000Y-87990000D01*
X140750000Y-87270000D02*
X141190000Y-87270000D01*
X138240000Y-87270000D02*
X138650000Y-87270000D01*
X140750000Y-85450000D02*
X141190000Y-85450000D01*
X138240000Y-85450000D02*
X138650000Y-85450000D01*
X140750000Y-84730000D02*
X141190000Y-84730000D01*
X138240000Y-84730000D02*
X138650000Y-84730000D01*
X140750000Y-82910000D02*
X141130000Y-82910000D01*
X138240000Y-82910000D02*
X138650000Y-82910000D01*
X140750000Y-82190000D02*
X141130000Y-82190000D01*
X138240000Y-82190000D02*
X138650000Y-82190000D01*
X129610000Y-83701900D02*
X138240000Y-83701900D01*
X129610000Y-83583805D02*
X138240000Y-83583805D01*
X129610000Y-83465710D02*
X138240000Y-83465710D01*
X129610000Y-83347615D02*
X138240000Y-83347615D01*
X129610000Y-83229520D02*
X138240000Y-83229520D01*
X129610000Y-83111425D02*
X138240000Y-83111425D01*
X129610000Y-82993330D02*
X138240000Y-82993330D01*
X129610000Y-82875235D02*
X138240000Y-82875235D01*
X129610000Y-82757140D02*
X138240000Y-82757140D01*
X129610000Y-82639045D02*
X138240000Y-82639045D01*
X129610000Y-82520950D02*
X138240000Y-82520950D01*
X129610000Y-82402855D02*
X138240000Y-82402855D01*
X129610000Y-82284760D02*
X138240000Y-82284760D01*
X129610000Y-82166665D02*
X138240000Y-82166665D01*
X129610000Y-82048570D02*
X138240000Y-82048570D01*
X129610000Y-81930475D02*
X138240000Y-81930475D01*
X129610000Y-81812380D02*
X138240000Y-81812380D01*
X129610000Y-81694285D02*
X138240000Y-81694285D01*
X129610000Y-81576190D02*
X138240000Y-81576190D01*
X129610000Y-81458095D02*
X138240000Y-81458095D01*
X129610000Y-81340000D02*
X138240000Y-81340000D01*
X147260000Y-91380000D02*
X148590000Y-91380000D01*
X147260000Y-92710000D02*
X147260000Y-91380000D01*
X147260000Y-93980000D02*
X149920000Y-93980000D01*
X149920000Y-93980000D02*
X149920000Y-106740000D01*
X147260000Y-93980000D02*
X147260000Y-106740000D01*
X147260000Y-106740000D02*
X149920000Y-106740000D01*
X155715000Y-78745000D02*
X155715000Y-78680000D01*
X159245000Y-78745000D02*
X159245000Y-78680000D01*
X155715000Y-91500000D02*
X155715000Y-91435000D01*
X159245000Y-91500000D02*
X159245000Y-91435000D01*
X160570000Y-91435000D02*
X159245000Y-91435000D01*
X159245000Y-78680000D02*
X155715000Y-78680000D01*
X159245000Y-91500000D02*
X155715000Y-91500000D01*
X155715000Y-102240000D02*
X155715000Y-102175000D01*
X159245000Y-102240000D02*
X159245000Y-102175000D01*
X155715000Y-108645000D02*
X155715000Y-108580000D01*
X159245000Y-108645000D02*
X159245000Y-108580000D01*
X160570000Y-108580000D02*
X159245000Y-108580000D01*
X159245000Y-102175000D02*
X155715000Y-102175000D01*
X159245000Y-108645000D02*
X155715000Y-108645000D01*
D10*
X150296666Y-85072380D02*
X150296666Y-85786666D01*
X150249047Y-85929523D01*
X150153809Y-86024761D01*
X150010952Y-86072380D01*
X149915714Y-86072380D01*
X150772857Y-86072380D02*
X150772857Y-85072380D01*
X151153809Y-85072380D01*
X151249047Y-85120000D01*
X151296666Y-85167619D01*
X151344285Y-85262857D01*
X151344285Y-85405714D01*
X151296666Y-85500952D01*
X151249047Y-85548571D01*
X151153809Y-85596190D01*
X150772857Y-85596190D01*
X151725238Y-85167619D02*
X151772857Y-85120000D01*
X151868095Y-85072380D01*
X152106190Y-85072380D01*
X152201428Y-85120000D01*
X152249047Y-85167619D01*
X152296666Y-85262857D01*
X152296666Y-85358095D01*
X152249047Y-85500952D01*
X151677619Y-86072380D01*
X152296666Y-86072380D01*
X156482666Y-97772380D02*
X156482666Y-98486666D01*
X156435047Y-98629523D01*
X156339809Y-98724761D01*
X156196952Y-98772380D01*
X156101714Y-98772380D01*
X156958857Y-98772380D02*
X156958857Y-97772380D01*
X157339809Y-97772380D01*
X157435047Y-97820000D01*
X157482666Y-97867619D01*
X157530285Y-97962857D01*
X157530285Y-98105714D01*
X157482666Y-98200952D01*
X157435047Y-98248571D01*
X157339809Y-98296190D01*
X156958857Y-98296190D01*
X158482666Y-98772380D02*
X157911238Y-98772380D01*
X158196952Y-98772380D02*
X158196952Y-97772380D01*
X158101714Y-97915238D01*
X158006476Y-98010476D01*
X157911238Y-98058095D01*
D12*
X143597380Y-81613333D02*
X144311666Y-81613333D01*
X144454523Y-81660952D01*
X144549761Y-81756190D01*
X144597380Y-81899047D01*
X144597380Y-81994285D01*
X143930714Y-80708571D02*
X144597380Y-80708571D01*
X143549761Y-80946666D02*
X144264047Y-81184761D01*
X144264047Y-80565714D01*
X145502380Y-107013333D02*
X146216666Y-107013333D01*
X146359523Y-107060952D01*
X146454761Y-107156190D01*
X146502380Y-107299047D01*
X146502380Y-107394285D01*
X145502380Y-106632380D02*
X145502380Y-106013333D01*
X145883333Y-106346666D01*
X145883333Y-106203809D01*
X145930952Y-106108571D01*
X145978571Y-106060952D01*
X146073809Y-106013333D01*
X146311904Y-106013333D01*
X146407142Y-106060952D01*
X146454761Y-106108571D01*
X146502380Y-106203809D01*
X146502380Y-106489523D01*
X146454761Y-106584761D01*
X146407142Y-106632380D01*
X152614380Y-91265333D02*
X153328666Y-91265333D01*
X153471523Y-91312952D01*
X153566761Y-91408190D01*
X153614380Y-91551047D01*
X153614380Y-91646285D01*
X152709619Y-90836761D02*
X152662000Y-90789142D01*
X152614380Y-90693904D01*
X152614380Y-90455809D01*
X152662000Y-90360571D01*
X152709619Y-90312952D01*
X152804857Y-90265333D01*
X152900095Y-90265333D01*
X153042952Y-90312952D01*
X153614380Y-90884380D01*
X153614380Y-90265333D01*
X152614380Y-108283333D02*
X153328666Y-108283333D01*
X153471523Y-108330952D01*
X153566761Y-108426190D01*
X153614380Y-108569047D01*
X153614380Y-108664285D01*
X153614380Y-107283333D02*
X153614380Y-107854761D01*
X153614380Y-107569047D02*
X152614380Y-107569047D01*
X152757238Y-107664285D01*
X152852476Y-107759523D01*
X152900095Y-107854761D01*
M02*
