G04 #@! TF.GenerationSoftware,KiCad,Pcbnew,(5.1.4)-1*
G04 #@! TF.CreationDate,2020-04-26T19:25:10+02:00*
G04 #@! TF.ProjectId,JtagArm20Adapter,4a746167-4172-46d3-9230-416461707465,rev?*
G04 #@! TF.SameCoordinates,Original*
G04 #@! TF.FileFunction,Legend,Top*
G04 #@! TF.FilePolarity,Positive*
%FSLAX46Y46*%
G04 Gerber Fmt 4.6, Leading zero omitted, Abs format (unit mm)*
G04 Created by KiCad (PCBNEW (5.1.4)-1) date 2020-04-26 19:25:10*
%MOMM*%
%LPD*%
G04 APERTURE LIST*
%ADD10C,0.160000*%
%ADD11C,0.200000*%
%ADD12C,0.050000*%
%ADD13C,0.120000*%
G04 APERTURE END LIST*
D10*
X150281476Y-105814761D02*
X150424333Y-105862380D01*
X150662428Y-105862380D01*
X150757666Y-105814761D01*
X150805285Y-105767142D01*
X150852904Y-105671904D01*
X150852904Y-105576666D01*
X150805285Y-105481428D01*
X150757666Y-105433809D01*
X150662428Y-105386190D01*
X150471952Y-105338571D01*
X150376714Y-105290952D01*
X150329095Y-105243333D01*
X150281476Y-105148095D01*
X150281476Y-105052857D01*
X150329095Y-104957619D01*
X150376714Y-104910000D01*
X150471952Y-104862380D01*
X150710047Y-104862380D01*
X150852904Y-104910000D01*
X151186238Y-104862380D02*
X151424333Y-105862380D01*
X151614809Y-105148095D01*
X151805285Y-105862380D01*
X152043380Y-104862380D01*
X152614809Y-104862380D02*
X152805285Y-104862380D01*
X152900523Y-104910000D01*
X152995761Y-105005238D01*
X153043380Y-105195714D01*
X153043380Y-105529047D01*
X152995761Y-105719523D01*
X152900523Y-105814761D01*
X152805285Y-105862380D01*
X152614809Y-105862380D01*
X152519571Y-105814761D01*
X152424333Y-105719523D01*
X152376714Y-105529047D01*
X152376714Y-105195714D01*
X152424333Y-105005238D01*
X152519571Y-104910000D01*
X152614809Y-104862380D01*
X150900523Y-103322380D02*
X150567190Y-102846190D01*
X150329095Y-103322380D02*
X150329095Y-102322380D01*
X150710047Y-102322380D01*
X150805285Y-102370000D01*
X150852904Y-102417619D01*
X150900523Y-102512857D01*
X150900523Y-102655714D01*
X150852904Y-102750952D01*
X150805285Y-102798571D01*
X150710047Y-102846190D01*
X150329095Y-102846190D01*
X151281476Y-103274761D02*
X151424333Y-103322380D01*
X151662428Y-103322380D01*
X151757666Y-103274761D01*
X151805285Y-103227142D01*
X151852904Y-103131904D01*
X151852904Y-103036666D01*
X151805285Y-102941428D01*
X151757666Y-102893809D01*
X151662428Y-102846190D01*
X151471952Y-102798571D01*
X151376714Y-102750952D01*
X151329095Y-102703333D01*
X151281476Y-102608095D01*
X151281476Y-102512857D01*
X151329095Y-102417619D01*
X151376714Y-102370000D01*
X151471952Y-102322380D01*
X151710047Y-102322380D01*
X151852904Y-102370000D01*
X152138619Y-102322380D02*
X152710047Y-102322380D01*
X152424333Y-103322380D02*
X152424333Y-102322380D01*
X150281476Y-100734761D02*
X150424333Y-100782380D01*
X150662428Y-100782380D01*
X150757666Y-100734761D01*
X150805285Y-100687142D01*
X150852904Y-100591904D01*
X150852904Y-100496666D01*
X150805285Y-100401428D01*
X150757666Y-100353809D01*
X150662428Y-100306190D01*
X150471952Y-100258571D01*
X150376714Y-100210952D01*
X150329095Y-100163333D01*
X150281476Y-100068095D01*
X150281476Y-99972857D01*
X150329095Y-99877619D01*
X150376714Y-99830000D01*
X150471952Y-99782380D01*
X150710047Y-99782380D01*
X150852904Y-99830000D01*
X151186238Y-99782380D02*
X151424333Y-100782380D01*
X151614809Y-100068095D01*
X151805285Y-100782380D01*
X152043380Y-99782380D01*
X152424333Y-100782380D02*
X152424333Y-99782380D01*
X152662428Y-99782380D01*
X152805285Y-99830000D01*
X152900523Y-99925238D01*
X152948142Y-100020476D01*
X152995761Y-100210952D01*
X152995761Y-100353809D01*
X152948142Y-100544285D01*
X152900523Y-100639523D01*
X152805285Y-100734761D01*
X152662428Y-100782380D01*
X152424333Y-100782380D01*
X153424333Y-100782380D02*
X153424333Y-99782380D01*
X154091000Y-99782380D02*
X154281476Y-99782380D01*
X154376714Y-99830000D01*
X154471952Y-99925238D01*
X154519571Y-100115714D01*
X154519571Y-100449047D01*
X154471952Y-100639523D01*
X154376714Y-100734761D01*
X154281476Y-100782380D01*
X154091000Y-100782380D01*
X153995761Y-100734761D01*
X153900523Y-100639523D01*
X153852904Y-100449047D01*
X153852904Y-100115714D01*
X153900523Y-99925238D01*
X153995761Y-99830000D01*
X154091000Y-99782380D01*
X150852904Y-97290000D02*
X150757666Y-97242380D01*
X150614809Y-97242380D01*
X150471952Y-97290000D01*
X150376714Y-97385238D01*
X150329095Y-97480476D01*
X150281476Y-97670952D01*
X150281476Y-97813809D01*
X150329095Y-98004285D01*
X150376714Y-98099523D01*
X150471952Y-98194761D01*
X150614809Y-98242380D01*
X150710047Y-98242380D01*
X150852904Y-98194761D01*
X150900523Y-98147142D01*
X150900523Y-97813809D01*
X150710047Y-97813809D01*
X151329095Y-98242380D02*
X151329095Y-97242380D01*
X151900523Y-98242380D01*
X151900523Y-97242380D01*
X152376714Y-98242380D02*
X152376714Y-97242380D01*
X152614809Y-97242380D01*
X152757666Y-97290000D01*
X152852904Y-97385238D01*
X152900523Y-97480476D01*
X152948142Y-97670952D01*
X152948142Y-97813809D01*
X152900523Y-98004285D01*
X152852904Y-98099523D01*
X152757666Y-98194761D01*
X152614809Y-98242380D01*
X152376714Y-98242380D01*
X150281476Y-95527761D02*
X150424333Y-95575380D01*
X150662428Y-95575380D01*
X150757666Y-95527761D01*
X150805285Y-95480142D01*
X150852904Y-95384904D01*
X150852904Y-95289666D01*
X150805285Y-95194428D01*
X150757666Y-95146809D01*
X150662428Y-95099190D01*
X150471952Y-95051571D01*
X150376714Y-95003952D01*
X150329095Y-94956333D01*
X150281476Y-94861095D01*
X150281476Y-94765857D01*
X150329095Y-94670619D01*
X150376714Y-94623000D01*
X150471952Y-94575380D01*
X150710047Y-94575380D01*
X150852904Y-94623000D01*
X151186238Y-94575380D02*
X151424333Y-95575380D01*
X151614809Y-94861095D01*
X151805285Y-95575380D01*
X152043380Y-94575380D01*
X152424333Y-95575380D02*
X152424333Y-94575380D01*
X152662428Y-94575380D01*
X152805285Y-94623000D01*
X152900523Y-94718238D01*
X152948142Y-94813476D01*
X152995761Y-95003952D01*
X152995761Y-95146809D01*
X152948142Y-95337285D01*
X152900523Y-95432523D01*
X152805285Y-95527761D01*
X152662428Y-95575380D01*
X152424333Y-95575380D01*
X153995761Y-95480142D02*
X153948142Y-95527761D01*
X153805285Y-95575380D01*
X153710047Y-95575380D01*
X153567190Y-95527761D01*
X153471952Y-95432523D01*
X153424333Y-95337285D01*
X153376714Y-95146809D01*
X153376714Y-95003952D01*
X153424333Y-94813476D01*
X153471952Y-94718238D01*
X153567190Y-94623000D01*
X153710047Y-94575380D01*
X153805285Y-94575380D01*
X153948142Y-94623000D01*
X153995761Y-94670619D01*
X154900523Y-95575380D02*
X154424333Y-95575380D01*
X154424333Y-94575380D01*
X155233857Y-95575380D02*
X155233857Y-94575380D01*
X155805285Y-95575380D02*
X155376714Y-95003952D01*
X155805285Y-94575380D02*
X155233857Y-95146809D01*
X150186238Y-92162380D02*
X150519571Y-93162380D01*
X150852904Y-92162380D01*
X151043380Y-92162380D02*
X151614809Y-92162380D01*
X151329095Y-93162380D02*
X151329095Y-92162380D01*
X151948142Y-93162380D02*
X151948142Y-92495714D01*
X151948142Y-92686190D02*
X151995761Y-92590952D01*
X152043380Y-92543333D01*
X152138619Y-92495714D01*
X152233857Y-92495714D01*
X152948142Y-93114761D02*
X152852904Y-93162380D01*
X152662428Y-93162380D01*
X152567190Y-93114761D01*
X152519571Y-93019523D01*
X152519571Y-92638571D01*
X152567190Y-92543333D01*
X152662428Y-92495714D01*
X152852904Y-92495714D01*
X152948142Y-92543333D01*
X152995761Y-92638571D01*
X152995761Y-92733809D01*
X152519571Y-92829047D01*
X153281476Y-92495714D02*
X153662428Y-92495714D01*
X153424333Y-93162380D02*
X153424333Y-92305238D01*
X153471952Y-92210000D01*
X153567190Y-92162380D01*
X153662428Y-92162380D01*
D11*
X143958571Y-103622857D02*
X145030000Y-103622857D01*
X145244285Y-103694285D01*
X145387142Y-103837142D01*
X145458571Y-104051428D01*
X145458571Y-104194285D01*
X143958571Y-103122857D02*
X143958571Y-102265714D01*
X145458571Y-102694285D02*
X143958571Y-102694285D01*
X145030000Y-101837142D02*
X145030000Y-101122857D01*
X145458571Y-101980000D02*
X143958571Y-101480000D01*
X145458571Y-100980000D01*
X144030000Y-99694285D02*
X143958571Y-99837142D01*
X143958571Y-100051428D01*
X144030000Y-100265714D01*
X144172857Y-100408571D01*
X144315714Y-100480000D01*
X144601428Y-100551428D01*
X144815714Y-100551428D01*
X145101428Y-100480000D01*
X145244285Y-100408571D01*
X145387142Y-100265714D01*
X145458571Y-100051428D01*
X145458571Y-99908571D01*
X145387142Y-99694285D01*
X145315714Y-99622857D01*
X144815714Y-99622857D01*
X144815714Y-99908571D01*
X143887142Y-97908571D02*
X145815714Y-99194285D01*
X145387142Y-97480000D02*
X145458571Y-97265714D01*
X145458571Y-96908571D01*
X145387142Y-96765714D01*
X145315714Y-96694285D01*
X145172857Y-96622857D01*
X145030000Y-96622857D01*
X144887142Y-96694285D01*
X144815714Y-96765714D01*
X144744285Y-96908571D01*
X144672857Y-97194285D01*
X144601428Y-97337142D01*
X144530000Y-97408571D01*
X144387142Y-97480000D01*
X144244285Y-97480000D01*
X144101428Y-97408571D01*
X144030000Y-97337142D01*
X143958571Y-97194285D01*
X143958571Y-96837142D01*
X144030000Y-96622857D01*
X143958571Y-96122857D02*
X145458571Y-95765714D01*
X144387142Y-95480000D01*
X145458571Y-95194285D01*
X143958571Y-94837142D01*
X145458571Y-94265714D02*
X143958571Y-94265714D01*
X143958571Y-93908571D01*
X144030000Y-93694285D01*
X144172857Y-93551428D01*
X144315714Y-93480000D01*
X144601428Y-93408571D01*
X144815714Y-93408571D01*
X145101428Y-93480000D01*
X145244285Y-93551428D01*
X145387142Y-93694285D01*
X145458571Y-93908571D01*
X145458571Y-94265714D01*
X145030000Y-91694285D02*
X145030000Y-90980000D01*
X145458571Y-91837142D02*
X143958571Y-91337142D01*
X145458571Y-90837142D01*
X145458571Y-89694285D02*
X143958571Y-89694285D01*
X145387142Y-89694285D02*
X145458571Y-89837142D01*
X145458571Y-90122857D01*
X145387142Y-90265714D01*
X145315714Y-90337142D01*
X145172857Y-90408571D01*
X144744285Y-90408571D01*
X144601428Y-90337142D01*
X144530000Y-90265714D01*
X144458571Y-90122857D01*
X144458571Y-89837142D01*
X144530000Y-89694285D01*
X145458571Y-88337142D02*
X144672857Y-88337142D01*
X144530000Y-88408571D01*
X144458571Y-88551428D01*
X144458571Y-88837142D01*
X144530000Y-88980000D01*
X145387142Y-88337142D02*
X145458571Y-88480000D01*
X145458571Y-88837142D01*
X145387142Y-88980000D01*
X145244285Y-89051428D01*
X145101428Y-89051428D01*
X144958571Y-88980000D01*
X144887142Y-88837142D01*
X144887142Y-88480000D01*
X144815714Y-88337142D01*
X144458571Y-87622857D02*
X145958571Y-87622857D01*
X144530000Y-87622857D02*
X144458571Y-87480000D01*
X144458571Y-87194285D01*
X144530000Y-87051428D01*
X144601428Y-86980000D01*
X144744285Y-86908571D01*
X145172857Y-86908571D01*
X145315714Y-86980000D01*
X145387142Y-87051428D01*
X145458571Y-87194285D01*
X145458571Y-87480000D01*
X145387142Y-87622857D01*
X144458571Y-86480000D02*
X144458571Y-85908571D01*
X143958571Y-86265714D02*
X145244285Y-86265714D01*
X145387142Y-86194285D01*
X145458571Y-86051428D01*
X145458571Y-85908571D01*
X145387142Y-84837142D02*
X145458571Y-84980000D01*
X145458571Y-85265714D01*
X145387142Y-85408571D01*
X145244285Y-85480000D01*
X144672857Y-85480000D01*
X144530000Y-85408571D01*
X144458571Y-85265714D01*
X144458571Y-84980000D01*
X144530000Y-84837142D01*
X144672857Y-84765714D01*
X144815714Y-84765714D01*
X144958571Y-85480000D01*
X145458571Y-84122857D02*
X144458571Y-84122857D01*
X144744285Y-84122857D02*
X144601428Y-84051428D01*
X144530000Y-83980000D01*
X144458571Y-83837142D01*
X144458571Y-83694285D01*
D10*
X149494761Y-89852571D02*
X149494761Y-90995428D01*
X149494761Y-90424000D02*
X147494761Y-90424000D01*
X147780476Y-90614476D01*
X147970952Y-90804952D01*
X148066190Y-90995428D01*
X160924761Y-94297571D02*
X160924761Y-95440428D01*
X160924761Y-94869000D02*
X158924761Y-94869000D01*
X159210476Y-95059476D01*
X159400952Y-95249952D01*
X159496190Y-95440428D01*
D12*
X138430000Y-107950000D02*
X138430000Y-80010000D01*
X161290000Y-107950000D02*
X138430000Y-107950000D01*
X161290000Y-80010000D02*
X161290000Y-107950000D01*
X138430000Y-80010000D02*
X161290000Y-80010000D01*
D13*
X142240000Y-81220000D02*
X143350000Y-81220000D01*
X143350000Y-81220000D02*
X143350000Y-82550000D01*
X129610000Y-81220000D02*
X129610000Y-106740000D01*
X129610000Y-106740000D02*
X138240000Y-106740000D01*
X138240000Y-81220000D02*
X138240000Y-106740000D01*
X129610000Y-81220000D02*
X138240000Y-81220000D01*
X129610000Y-104140000D02*
X138240000Y-104140000D01*
X129610000Y-101600000D02*
X138240000Y-101600000D01*
X129610000Y-99060000D02*
X138240000Y-99060000D01*
X129610000Y-96520000D02*
X138240000Y-96520000D01*
X129610000Y-93980000D02*
X138240000Y-93980000D01*
X129610000Y-91440000D02*
X138240000Y-91440000D01*
X129610000Y-88900000D02*
X138240000Y-88900000D01*
X129610000Y-86360000D02*
X138240000Y-86360000D01*
X129610000Y-83820000D02*
X138240000Y-83820000D01*
X140750000Y-105770000D02*
X141190000Y-105770000D01*
X138240000Y-105770000D02*
X138650000Y-105770000D01*
X140750000Y-105050000D02*
X141190000Y-105050000D01*
X138240000Y-105050000D02*
X138650000Y-105050000D01*
X140750000Y-103230000D02*
X141190000Y-103230000D01*
X138240000Y-103230000D02*
X138650000Y-103230000D01*
X140750000Y-102510000D02*
X141190000Y-102510000D01*
X138240000Y-102510000D02*
X138650000Y-102510000D01*
X140750000Y-100690000D02*
X141190000Y-100690000D01*
X138240000Y-100690000D02*
X138650000Y-100690000D01*
X140750000Y-99970000D02*
X141190000Y-99970000D01*
X138240000Y-99970000D02*
X138650000Y-99970000D01*
X140750000Y-98150000D02*
X141190000Y-98150000D01*
X138240000Y-98150000D02*
X138650000Y-98150000D01*
X140750000Y-97430000D02*
X141190000Y-97430000D01*
X138240000Y-97430000D02*
X138650000Y-97430000D01*
X140750000Y-95610000D02*
X141190000Y-95610000D01*
X138240000Y-95610000D02*
X138650000Y-95610000D01*
X140750000Y-94890000D02*
X141190000Y-94890000D01*
X138240000Y-94890000D02*
X138650000Y-94890000D01*
X140750000Y-93070000D02*
X141190000Y-93070000D01*
X138240000Y-93070000D02*
X138650000Y-93070000D01*
X140750000Y-92350000D02*
X141190000Y-92350000D01*
X138240000Y-92350000D02*
X138650000Y-92350000D01*
X140750000Y-90530000D02*
X141190000Y-90530000D01*
X138240000Y-90530000D02*
X138650000Y-90530000D01*
X140750000Y-89810000D02*
X141190000Y-89810000D01*
X138240000Y-89810000D02*
X138650000Y-89810000D01*
X140750000Y-87990000D02*
X141190000Y-87990000D01*
X138240000Y-87990000D02*
X138650000Y-87990000D01*
X140750000Y-87270000D02*
X141190000Y-87270000D01*
X138240000Y-87270000D02*
X138650000Y-87270000D01*
X140750000Y-85450000D02*
X141190000Y-85450000D01*
X138240000Y-85450000D02*
X138650000Y-85450000D01*
X140750000Y-84730000D02*
X141190000Y-84730000D01*
X138240000Y-84730000D02*
X138650000Y-84730000D01*
X140750000Y-82910000D02*
X141130000Y-82910000D01*
X138240000Y-82910000D02*
X138650000Y-82910000D01*
X140750000Y-82190000D02*
X141130000Y-82190000D01*
X138240000Y-82190000D02*
X138650000Y-82190000D01*
X129610000Y-83701900D02*
X138240000Y-83701900D01*
X129610000Y-83583805D02*
X138240000Y-83583805D01*
X129610000Y-83465710D02*
X138240000Y-83465710D01*
X129610000Y-83347615D02*
X138240000Y-83347615D01*
X129610000Y-83229520D02*
X138240000Y-83229520D01*
X129610000Y-83111425D02*
X138240000Y-83111425D01*
X129610000Y-82993330D02*
X138240000Y-82993330D01*
X129610000Y-82875235D02*
X138240000Y-82875235D01*
X129610000Y-82757140D02*
X138240000Y-82757140D01*
X129610000Y-82639045D02*
X138240000Y-82639045D01*
X129610000Y-82520950D02*
X138240000Y-82520950D01*
X129610000Y-82402855D02*
X138240000Y-82402855D01*
X129610000Y-82284760D02*
X138240000Y-82284760D01*
X129610000Y-82166665D02*
X138240000Y-82166665D01*
X129610000Y-82048570D02*
X138240000Y-82048570D01*
X129610000Y-81930475D02*
X138240000Y-81930475D01*
X129610000Y-81812380D02*
X138240000Y-81812380D01*
X129610000Y-81694285D02*
X138240000Y-81694285D01*
X129610000Y-81576190D02*
X138240000Y-81576190D01*
X129610000Y-81458095D02*
X138240000Y-81458095D01*
X129610000Y-81340000D02*
X138240000Y-81340000D01*
X149432300Y-82419700D02*
X146632300Y-82419700D01*
X146632300Y-82419700D02*
X146632300Y-80419700D01*
X146632300Y-80419700D02*
X149432300Y-80419700D01*
X149432300Y-80419700D02*
X149432300Y-82419700D01*
X147260000Y-91380000D02*
X148590000Y-91380000D01*
X147260000Y-92710000D02*
X147260000Y-91380000D01*
X147260000Y-93980000D02*
X149920000Y-93980000D01*
X149920000Y-93980000D02*
X149920000Y-106740000D01*
X147260000Y-93980000D02*
X147260000Y-106740000D01*
X147260000Y-106740000D02*
X149920000Y-106740000D01*
X155715000Y-81285000D02*
X155715000Y-81220000D01*
X159245000Y-81285000D02*
X159245000Y-81220000D01*
X155715000Y-94040000D02*
X155715000Y-93975000D01*
X159245000Y-94040000D02*
X159245000Y-93975000D01*
X160570000Y-93975000D02*
X159245000Y-93975000D01*
X159245000Y-81220000D02*
X155715000Y-81220000D01*
X159245000Y-94040000D02*
X155715000Y-94040000D01*
X155715000Y-100970000D02*
X155715000Y-100905000D01*
X159245000Y-100970000D02*
X159245000Y-100905000D01*
X155715000Y-107375000D02*
X155715000Y-107310000D01*
X159245000Y-107375000D02*
X159245000Y-107310000D01*
X160570000Y-107310000D02*
X159245000Y-107310000D01*
X159245000Y-100905000D02*
X155715000Y-100905000D01*
X159245000Y-107375000D02*
X155715000Y-107375000D01*
D10*
X143597380Y-81613333D02*
X144311666Y-81613333D01*
X144454523Y-81660952D01*
X144549761Y-81756190D01*
X144597380Y-81899047D01*
X144597380Y-81994285D01*
X143930714Y-80708571D02*
X144597380Y-80708571D01*
X143549761Y-80946666D02*
X144264047Y-81184761D01*
X144264047Y-80565714D01*
X147198966Y-82672080D02*
X147198966Y-83386366D01*
X147151347Y-83529223D01*
X147056109Y-83624461D01*
X146913252Y-83672080D01*
X146818014Y-83672080D01*
X147675157Y-83672080D02*
X147675157Y-82672080D01*
X148056109Y-82672080D01*
X148151347Y-82719700D01*
X148198966Y-82767319D01*
X148246585Y-82862557D01*
X148246585Y-83005414D01*
X148198966Y-83100652D01*
X148151347Y-83148271D01*
X148056109Y-83195890D01*
X147675157Y-83195890D01*
X149198966Y-83672080D02*
X148627538Y-83672080D01*
X148913252Y-83672080D02*
X148913252Y-82672080D01*
X148818014Y-82814938D01*
X148722776Y-82910176D01*
X148627538Y-82957795D01*
X145502380Y-107013333D02*
X146216666Y-107013333D01*
X146359523Y-107060952D01*
X146454761Y-107156190D01*
X146502380Y-107299047D01*
X146502380Y-107394285D01*
X145502380Y-106632380D02*
X145502380Y-106013333D01*
X145883333Y-106346666D01*
X145883333Y-106203809D01*
X145930952Y-106108571D01*
X145978571Y-106060952D01*
X146073809Y-106013333D01*
X146311904Y-106013333D01*
X146407142Y-106060952D01*
X146454761Y-106108571D01*
X146502380Y-106203809D01*
X146502380Y-106489523D01*
X146454761Y-106584761D01*
X146407142Y-106632380D01*
X151852380Y-81613333D02*
X152566666Y-81613333D01*
X152709523Y-81660952D01*
X152804761Y-81756190D01*
X152852380Y-81899047D01*
X152852380Y-81994285D01*
X151947619Y-81184761D02*
X151900000Y-81137142D01*
X151852380Y-81041904D01*
X151852380Y-80803809D01*
X151900000Y-80708571D01*
X151947619Y-80660952D01*
X152042857Y-80613333D01*
X152138095Y-80613333D01*
X152280952Y-80660952D01*
X152852380Y-81232380D01*
X152852380Y-80613333D01*
X159853380Y-100028333D02*
X160567666Y-100028333D01*
X160710523Y-100075952D01*
X160805761Y-100171190D01*
X160853380Y-100314047D01*
X160853380Y-100409285D01*
X160853380Y-99028333D02*
X160853380Y-99599761D01*
X160853380Y-99314047D02*
X159853380Y-99314047D01*
X159996238Y-99409285D01*
X160091476Y-99504523D01*
X160139095Y-99599761D01*
M02*
