G04 #@! TF.GenerationSoftware,KiCad,Pcbnew,(5.1.4)-1*
G04 #@! TF.CreationDate,2020-04-26T19:25:10+02:00*
G04 #@! TF.ProjectId,JtagArm20Adapter,4a746167-4172-46d3-9230-416461707465,rev?*
G04 #@! TF.SameCoordinates,Original*
G04 #@! TF.FileFunction,Soldermask,Bot*
G04 #@! TF.FilePolarity,Negative*
%FSLAX46Y46*%
G04 Gerber Fmt 4.6, Leading zero omitted, Abs format (unit mm)*
G04 Created by KiCad (PCBNEW (5.1.4)-1) date 2020-04-26 19:25:10*
%MOMM*%
%LPD*%
G04 APERTURE LIST*
%ADD10C,0.050000*%
%ADD11C,0.100000*%
G04 APERTURE END LIST*
D10*
X138430000Y-107950000D02*
X138430000Y-80010000D01*
X161290000Y-107950000D02*
X138430000Y-107950000D01*
X161290000Y-80010000D02*
X161290000Y-107950000D01*
X138430000Y-80010000D02*
X161290000Y-80010000D01*
D11*
G36*
X148700443Y-104515519D02*
G01*
X148766627Y-104522037D01*
X148936466Y-104573557D01*
X149092991Y-104657222D01*
X149128729Y-104686552D01*
X149230186Y-104769814D01*
X149313448Y-104871271D01*
X149342778Y-104907009D01*
X149426443Y-105063534D01*
X149477963Y-105233373D01*
X149495359Y-105410000D01*
X149477963Y-105586627D01*
X149426443Y-105756466D01*
X149342778Y-105912991D01*
X149313448Y-105948729D01*
X149230186Y-106050186D01*
X149128729Y-106133448D01*
X149092991Y-106162778D01*
X148936466Y-106246443D01*
X148766627Y-106297963D01*
X148700442Y-106304482D01*
X148634260Y-106311000D01*
X148545740Y-106311000D01*
X148479558Y-106304482D01*
X148413373Y-106297963D01*
X148243534Y-106246443D01*
X148087009Y-106162778D01*
X148051271Y-106133448D01*
X147949814Y-106050186D01*
X147866552Y-105948729D01*
X147837222Y-105912991D01*
X147753557Y-105756466D01*
X147702037Y-105586627D01*
X147684641Y-105410000D01*
X147702037Y-105233373D01*
X147753557Y-105063534D01*
X147837222Y-104907009D01*
X147866552Y-104871271D01*
X147949814Y-104769814D01*
X148051271Y-104686552D01*
X148087009Y-104657222D01*
X148243534Y-104573557D01*
X148413373Y-104522037D01*
X148479557Y-104515519D01*
X148545740Y-104509000D01*
X148634260Y-104509000D01*
X148700443Y-104515519D01*
X148700443Y-104515519D01*
G37*
G36*
X139810443Y-104515519D02*
G01*
X139876627Y-104522037D01*
X140046466Y-104573557D01*
X140202991Y-104657222D01*
X140238729Y-104686552D01*
X140340186Y-104769814D01*
X140423448Y-104871271D01*
X140452778Y-104907009D01*
X140536443Y-105063534D01*
X140587963Y-105233373D01*
X140605359Y-105410000D01*
X140587963Y-105586627D01*
X140536443Y-105756466D01*
X140452778Y-105912991D01*
X140423448Y-105948729D01*
X140340186Y-106050186D01*
X140238729Y-106133448D01*
X140202991Y-106162778D01*
X140046466Y-106246443D01*
X139876627Y-106297963D01*
X139810442Y-106304482D01*
X139744260Y-106311000D01*
X139655740Y-106311000D01*
X139589558Y-106304482D01*
X139523373Y-106297963D01*
X139353534Y-106246443D01*
X139197009Y-106162778D01*
X139161271Y-106133448D01*
X139059814Y-106050186D01*
X138976552Y-105948729D01*
X138947222Y-105912991D01*
X138863557Y-105756466D01*
X138812037Y-105586627D01*
X138794641Y-105410000D01*
X138812037Y-105233373D01*
X138863557Y-105063534D01*
X138947222Y-104907009D01*
X138976552Y-104871271D01*
X139059814Y-104769814D01*
X139161271Y-104686552D01*
X139197009Y-104657222D01*
X139353534Y-104573557D01*
X139523373Y-104522037D01*
X139589557Y-104515519D01*
X139655740Y-104509000D01*
X139744260Y-104509000D01*
X139810443Y-104515519D01*
X139810443Y-104515519D01*
G37*
G36*
X142350443Y-104515519D02*
G01*
X142416627Y-104522037D01*
X142586466Y-104573557D01*
X142742991Y-104657222D01*
X142778729Y-104686552D01*
X142880186Y-104769814D01*
X142963448Y-104871271D01*
X142992778Y-104907009D01*
X143076443Y-105063534D01*
X143127963Y-105233373D01*
X143145359Y-105410000D01*
X143127963Y-105586627D01*
X143076443Y-105756466D01*
X142992778Y-105912991D01*
X142963448Y-105948729D01*
X142880186Y-106050186D01*
X142778729Y-106133448D01*
X142742991Y-106162778D01*
X142586466Y-106246443D01*
X142416627Y-106297963D01*
X142350442Y-106304482D01*
X142284260Y-106311000D01*
X142195740Y-106311000D01*
X142129558Y-106304482D01*
X142063373Y-106297963D01*
X141893534Y-106246443D01*
X141737009Y-106162778D01*
X141701271Y-106133448D01*
X141599814Y-106050186D01*
X141516552Y-105948729D01*
X141487222Y-105912991D01*
X141403557Y-105756466D01*
X141352037Y-105586627D01*
X141334641Y-105410000D01*
X141352037Y-105233373D01*
X141403557Y-105063534D01*
X141487222Y-104907009D01*
X141516552Y-104871271D01*
X141599814Y-104769814D01*
X141701271Y-104686552D01*
X141737009Y-104657222D01*
X141893534Y-104573557D01*
X142063373Y-104522037D01*
X142129557Y-104515519D01*
X142195740Y-104509000D01*
X142284260Y-104509000D01*
X142350443Y-104515519D01*
X142350443Y-104515519D01*
G37*
G36*
X139810442Y-101975518D02*
G01*
X139876627Y-101982037D01*
X140046466Y-102033557D01*
X140202991Y-102117222D01*
X140238729Y-102146552D01*
X140340186Y-102229814D01*
X140423448Y-102331271D01*
X140452778Y-102367009D01*
X140536443Y-102523534D01*
X140587963Y-102693373D01*
X140605359Y-102870000D01*
X140587963Y-103046627D01*
X140536443Y-103216466D01*
X140452778Y-103372991D01*
X140423448Y-103408729D01*
X140340186Y-103510186D01*
X140238729Y-103593448D01*
X140202991Y-103622778D01*
X140046466Y-103706443D01*
X139876627Y-103757963D01*
X139810443Y-103764481D01*
X139744260Y-103771000D01*
X139655740Y-103771000D01*
X139589557Y-103764481D01*
X139523373Y-103757963D01*
X139353534Y-103706443D01*
X139197009Y-103622778D01*
X139161271Y-103593448D01*
X139059814Y-103510186D01*
X138976552Y-103408729D01*
X138947222Y-103372991D01*
X138863557Y-103216466D01*
X138812037Y-103046627D01*
X138794641Y-102870000D01*
X138812037Y-102693373D01*
X138863557Y-102523534D01*
X138947222Y-102367009D01*
X138976552Y-102331271D01*
X139059814Y-102229814D01*
X139161271Y-102146552D01*
X139197009Y-102117222D01*
X139353534Y-102033557D01*
X139523373Y-101982037D01*
X139589558Y-101975518D01*
X139655740Y-101969000D01*
X139744260Y-101969000D01*
X139810442Y-101975518D01*
X139810442Y-101975518D01*
G37*
G36*
X148700442Y-101975518D02*
G01*
X148766627Y-101982037D01*
X148936466Y-102033557D01*
X149092991Y-102117222D01*
X149128729Y-102146552D01*
X149230186Y-102229814D01*
X149313448Y-102331271D01*
X149342778Y-102367009D01*
X149426443Y-102523534D01*
X149477963Y-102693373D01*
X149495359Y-102870000D01*
X149477963Y-103046627D01*
X149426443Y-103216466D01*
X149342778Y-103372991D01*
X149313448Y-103408729D01*
X149230186Y-103510186D01*
X149128729Y-103593448D01*
X149092991Y-103622778D01*
X148936466Y-103706443D01*
X148766627Y-103757963D01*
X148700443Y-103764481D01*
X148634260Y-103771000D01*
X148545740Y-103771000D01*
X148479557Y-103764481D01*
X148413373Y-103757963D01*
X148243534Y-103706443D01*
X148087009Y-103622778D01*
X148051271Y-103593448D01*
X147949814Y-103510186D01*
X147866552Y-103408729D01*
X147837222Y-103372991D01*
X147753557Y-103216466D01*
X147702037Y-103046627D01*
X147684641Y-102870000D01*
X147702037Y-102693373D01*
X147753557Y-102523534D01*
X147837222Y-102367009D01*
X147866552Y-102331271D01*
X147949814Y-102229814D01*
X148051271Y-102146552D01*
X148087009Y-102117222D01*
X148243534Y-102033557D01*
X148413373Y-101982037D01*
X148479558Y-101975518D01*
X148545740Y-101969000D01*
X148634260Y-101969000D01*
X148700442Y-101975518D01*
X148700442Y-101975518D01*
G37*
G36*
X142350442Y-101975518D02*
G01*
X142416627Y-101982037D01*
X142586466Y-102033557D01*
X142742991Y-102117222D01*
X142778729Y-102146552D01*
X142880186Y-102229814D01*
X142963448Y-102331271D01*
X142992778Y-102367009D01*
X143076443Y-102523534D01*
X143127963Y-102693373D01*
X143145359Y-102870000D01*
X143127963Y-103046627D01*
X143076443Y-103216466D01*
X142992778Y-103372991D01*
X142963448Y-103408729D01*
X142880186Y-103510186D01*
X142778729Y-103593448D01*
X142742991Y-103622778D01*
X142586466Y-103706443D01*
X142416627Y-103757963D01*
X142350443Y-103764481D01*
X142284260Y-103771000D01*
X142195740Y-103771000D01*
X142129557Y-103764481D01*
X142063373Y-103757963D01*
X141893534Y-103706443D01*
X141737009Y-103622778D01*
X141701271Y-103593448D01*
X141599814Y-103510186D01*
X141516552Y-103408729D01*
X141487222Y-103372991D01*
X141403557Y-103216466D01*
X141352037Y-103046627D01*
X141334641Y-102870000D01*
X141352037Y-102693373D01*
X141403557Y-102523534D01*
X141487222Y-102367009D01*
X141516552Y-102331271D01*
X141599814Y-102229814D01*
X141701271Y-102146552D01*
X141737009Y-102117222D01*
X141893534Y-102033557D01*
X142063373Y-101982037D01*
X142129558Y-101975518D01*
X142195740Y-101969000D01*
X142284260Y-101969000D01*
X142350442Y-101975518D01*
X142350442Y-101975518D01*
G37*
G36*
X139810443Y-99435519D02*
G01*
X139876627Y-99442037D01*
X140046466Y-99493557D01*
X140202991Y-99577222D01*
X140238729Y-99606552D01*
X140340186Y-99689814D01*
X140423448Y-99791271D01*
X140452778Y-99827009D01*
X140536443Y-99983534D01*
X140587963Y-100153373D01*
X140605359Y-100330000D01*
X140587963Y-100506627D01*
X140536443Y-100676466D01*
X140452778Y-100832991D01*
X140423448Y-100868729D01*
X140340186Y-100970186D01*
X140238729Y-101053448D01*
X140202991Y-101082778D01*
X140046466Y-101166443D01*
X139876627Y-101217963D01*
X139810443Y-101224481D01*
X139744260Y-101231000D01*
X139655740Y-101231000D01*
X139589558Y-101224482D01*
X139523373Y-101217963D01*
X139353534Y-101166443D01*
X139197009Y-101082778D01*
X139161271Y-101053448D01*
X139059814Y-100970186D01*
X138976552Y-100868729D01*
X138947222Y-100832991D01*
X138863557Y-100676466D01*
X138812037Y-100506627D01*
X138794641Y-100330000D01*
X138812037Y-100153373D01*
X138863557Y-99983534D01*
X138947222Y-99827009D01*
X138976552Y-99791271D01*
X139059814Y-99689814D01*
X139161271Y-99606552D01*
X139197009Y-99577222D01*
X139353534Y-99493557D01*
X139523373Y-99442037D01*
X139589558Y-99435518D01*
X139655740Y-99429000D01*
X139744260Y-99429000D01*
X139810443Y-99435519D01*
X139810443Y-99435519D01*
G37*
G36*
X148700443Y-99435519D02*
G01*
X148766627Y-99442037D01*
X148936466Y-99493557D01*
X149092991Y-99577222D01*
X149128729Y-99606552D01*
X149230186Y-99689814D01*
X149313448Y-99791271D01*
X149342778Y-99827009D01*
X149426443Y-99983534D01*
X149477963Y-100153373D01*
X149495359Y-100330000D01*
X149477963Y-100506627D01*
X149426443Y-100676466D01*
X149342778Y-100832991D01*
X149313448Y-100868729D01*
X149230186Y-100970186D01*
X149128729Y-101053448D01*
X149092991Y-101082778D01*
X148936466Y-101166443D01*
X148766627Y-101217963D01*
X148700443Y-101224481D01*
X148634260Y-101231000D01*
X148545740Y-101231000D01*
X148479558Y-101224482D01*
X148413373Y-101217963D01*
X148243534Y-101166443D01*
X148087009Y-101082778D01*
X148051271Y-101053448D01*
X147949814Y-100970186D01*
X147866552Y-100868729D01*
X147837222Y-100832991D01*
X147753557Y-100676466D01*
X147702037Y-100506627D01*
X147684641Y-100330000D01*
X147702037Y-100153373D01*
X147753557Y-99983534D01*
X147837222Y-99827009D01*
X147866552Y-99791271D01*
X147949814Y-99689814D01*
X148051271Y-99606552D01*
X148087009Y-99577222D01*
X148243534Y-99493557D01*
X148413373Y-99442037D01*
X148479558Y-99435518D01*
X148545740Y-99429000D01*
X148634260Y-99429000D01*
X148700443Y-99435519D01*
X148700443Y-99435519D01*
G37*
G36*
X142350443Y-99435519D02*
G01*
X142416627Y-99442037D01*
X142586466Y-99493557D01*
X142742991Y-99577222D01*
X142778729Y-99606552D01*
X142880186Y-99689814D01*
X142963448Y-99791271D01*
X142992778Y-99827009D01*
X143076443Y-99983534D01*
X143127963Y-100153373D01*
X143145359Y-100330000D01*
X143127963Y-100506627D01*
X143076443Y-100676466D01*
X142992778Y-100832991D01*
X142963448Y-100868729D01*
X142880186Y-100970186D01*
X142778729Y-101053448D01*
X142742991Y-101082778D01*
X142586466Y-101166443D01*
X142416627Y-101217963D01*
X142350443Y-101224481D01*
X142284260Y-101231000D01*
X142195740Y-101231000D01*
X142129558Y-101224482D01*
X142063373Y-101217963D01*
X141893534Y-101166443D01*
X141737009Y-101082778D01*
X141701271Y-101053448D01*
X141599814Y-100970186D01*
X141516552Y-100868729D01*
X141487222Y-100832991D01*
X141403557Y-100676466D01*
X141352037Y-100506627D01*
X141334641Y-100330000D01*
X141352037Y-100153373D01*
X141403557Y-99983534D01*
X141487222Y-99827009D01*
X141516552Y-99791271D01*
X141599814Y-99689814D01*
X141701271Y-99606552D01*
X141737009Y-99577222D01*
X141893534Y-99493557D01*
X142063373Y-99442037D01*
X142129558Y-99435518D01*
X142195740Y-99429000D01*
X142284260Y-99429000D01*
X142350443Y-99435519D01*
X142350443Y-99435519D01*
G37*
G36*
X139810442Y-96895518D02*
G01*
X139876627Y-96902037D01*
X140046466Y-96953557D01*
X140202991Y-97037222D01*
X140238729Y-97066552D01*
X140340186Y-97149814D01*
X140423448Y-97251271D01*
X140452778Y-97287009D01*
X140536443Y-97443534D01*
X140587963Y-97613373D01*
X140605359Y-97790000D01*
X140587963Y-97966627D01*
X140536443Y-98136466D01*
X140452778Y-98292991D01*
X140423448Y-98328729D01*
X140340186Y-98430186D01*
X140238729Y-98513448D01*
X140202991Y-98542778D01*
X140046466Y-98626443D01*
X139876627Y-98677963D01*
X139810442Y-98684482D01*
X139744260Y-98691000D01*
X139655740Y-98691000D01*
X139589558Y-98684482D01*
X139523373Y-98677963D01*
X139353534Y-98626443D01*
X139197009Y-98542778D01*
X139161271Y-98513448D01*
X139059814Y-98430186D01*
X138976552Y-98328729D01*
X138947222Y-98292991D01*
X138863557Y-98136466D01*
X138812037Y-97966627D01*
X138794641Y-97790000D01*
X138812037Y-97613373D01*
X138863557Y-97443534D01*
X138947222Y-97287009D01*
X138976552Y-97251271D01*
X139059814Y-97149814D01*
X139161271Y-97066552D01*
X139197009Y-97037222D01*
X139353534Y-96953557D01*
X139523373Y-96902037D01*
X139589558Y-96895518D01*
X139655740Y-96889000D01*
X139744260Y-96889000D01*
X139810442Y-96895518D01*
X139810442Y-96895518D01*
G37*
G36*
X148700442Y-96895518D02*
G01*
X148766627Y-96902037D01*
X148936466Y-96953557D01*
X149092991Y-97037222D01*
X149128729Y-97066552D01*
X149230186Y-97149814D01*
X149313448Y-97251271D01*
X149342778Y-97287009D01*
X149426443Y-97443534D01*
X149477963Y-97613373D01*
X149495359Y-97790000D01*
X149477963Y-97966627D01*
X149426443Y-98136466D01*
X149342778Y-98292991D01*
X149313448Y-98328729D01*
X149230186Y-98430186D01*
X149128729Y-98513448D01*
X149092991Y-98542778D01*
X148936466Y-98626443D01*
X148766627Y-98677963D01*
X148700442Y-98684482D01*
X148634260Y-98691000D01*
X148545740Y-98691000D01*
X148479558Y-98684482D01*
X148413373Y-98677963D01*
X148243534Y-98626443D01*
X148087009Y-98542778D01*
X148051271Y-98513448D01*
X147949814Y-98430186D01*
X147866552Y-98328729D01*
X147837222Y-98292991D01*
X147753557Y-98136466D01*
X147702037Y-97966627D01*
X147684641Y-97790000D01*
X147702037Y-97613373D01*
X147753557Y-97443534D01*
X147837222Y-97287009D01*
X147866552Y-97251271D01*
X147949814Y-97149814D01*
X148051271Y-97066552D01*
X148087009Y-97037222D01*
X148243534Y-96953557D01*
X148413373Y-96902037D01*
X148479558Y-96895518D01*
X148545740Y-96889000D01*
X148634260Y-96889000D01*
X148700442Y-96895518D01*
X148700442Y-96895518D01*
G37*
G36*
X142350442Y-96895518D02*
G01*
X142416627Y-96902037D01*
X142586466Y-96953557D01*
X142742991Y-97037222D01*
X142778729Y-97066552D01*
X142880186Y-97149814D01*
X142963448Y-97251271D01*
X142992778Y-97287009D01*
X143076443Y-97443534D01*
X143127963Y-97613373D01*
X143145359Y-97790000D01*
X143127963Y-97966627D01*
X143076443Y-98136466D01*
X142992778Y-98292991D01*
X142963448Y-98328729D01*
X142880186Y-98430186D01*
X142778729Y-98513448D01*
X142742991Y-98542778D01*
X142586466Y-98626443D01*
X142416627Y-98677963D01*
X142350442Y-98684482D01*
X142284260Y-98691000D01*
X142195740Y-98691000D01*
X142129558Y-98684482D01*
X142063373Y-98677963D01*
X141893534Y-98626443D01*
X141737009Y-98542778D01*
X141701271Y-98513448D01*
X141599814Y-98430186D01*
X141516552Y-98328729D01*
X141487222Y-98292991D01*
X141403557Y-98136466D01*
X141352037Y-97966627D01*
X141334641Y-97790000D01*
X141352037Y-97613373D01*
X141403557Y-97443534D01*
X141487222Y-97287009D01*
X141516552Y-97251271D01*
X141599814Y-97149814D01*
X141701271Y-97066552D01*
X141737009Y-97037222D01*
X141893534Y-96953557D01*
X142063373Y-96902037D01*
X142129558Y-96895518D01*
X142195740Y-96889000D01*
X142284260Y-96889000D01*
X142350442Y-96895518D01*
X142350442Y-96895518D01*
G37*
G36*
X142350442Y-94355518D02*
G01*
X142416627Y-94362037D01*
X142586466Y-94413557D01*
X142742991Y-94497222D01*
X142778729Y-94526552D01*
X142880186Y-94609814D01*
X142963448Y-94711271D01*
X142992778Y-94747009D01*
X143076443Y-94903534D01*
X143127963Y-95073373D01*
X143145359Y-95250000D01*
X143127963Y-95426627D01*
X143076443Y-95596466D01*
X142992778Y-95752991D01*
X142963448Y-95788729D01*
X142880186Y-95890186D01*
X142778729Y-95973448D01*
X142742991Y-96002778D01*
X142586466Y-96086443D01*
X142416627Y-96137963D01*
X142350443Y-96144481D01*
X142284260Y-96151000D01*
X142195740Y-96151000D01*
X142129558Y-96144482D01*
X142063373Y-96137963D01*
X141893534Y-96086443D01*
X141737009Y-96002778D01*
X141701271Y-95973448D01*
X141599814Y-95890186D01*
X141516552Y-95788729D01*
X141487222Y-95752991D01*
X141403557Y-95596466D01*
X141352037Y-95426627D01*
X141334641Y-95250000D01*
X141352037Y-95073373D01*
X141403557Y-94903534D01*
X141487222Y-94747009D01*
X141516552Y-94711271D01*
X141599814Y-94609814D01*
X141701271Y-94526552D01*
X141737009Y-94497222D01*
X141893534Y-94413557D01*
X142063373Y-94362037D01*
X142129557Y-94355519D01*
X142195740Y-94349000D01*
X142284260Y-94349000D01*
X142350442Y-94355518D01*
X142350442Y-94355518D01*
G37*
G36*
X148700442Y-94355518D02*
G01*
X148766627Y-94362037D01*
X148936466Y-94413557D01*
X149092991Y-94497222D01*
X149128729Y-94526552D01*
X149230186Y-94609814D01*
X149313448Y-94711271D01*
X149342778Y-94747009D01*
X149426443Y-94903534D01*
X149477963Y-95073373D01*
X149495359Y-95250000D01*
X149477963Y-95426627D01*
X149426443Y-95596466D01*
X149342778Y-95752991D01*
X149313448Y-95788729D01*
X149230186Y-95890186D01*
X149128729Y-95973448D01*
X149092991Y-96002778D01*
X148936466Y-96086443D01*
X148766627Y-96137963D01*
X148700443Y-96144481D01*
X148634260Y-96151000D01*
X148545740Y-96151000D01*
X148479558Y-96144482D01*
X148413373Y-96137963D01*
X148243534Y-96086443D01*
X148087009Y-96002778D01*
X148051271Y-95973448D01*
X147949814Y-95890186D01*
X147866552Y-95788729D01*
X147837222Y-95752991D01*
X147753557Y-95596466D01*
X147702037Y-95426627D01*
X147684641Y-95250000D01*
X147702037Y-95073373D01*
X147753557Y-94903534D01*
X147837222Y-94747009D01*
X147866552Y-94711271D01*
X147949814Y-94609814D01*
X148051271Y-94526552D01*
X148087009Y-94497222D01*
X148243534Y-94413557D01*
X148413373Y-94362037D01*
X148479557Y-94355519D01*
X148545740Y-94349000D01*
X148634260Y-94349000D01*
X148700442Y-94355518D01*
X148700442Y-94355518D01*
G37*
G36*
X139810442Y-94355518D02*
G01*
X139876627Y-94362037D01*
X140046466Y-94413557D01*
X140202991Y-94497222D01*
X140238729Y-94526552D01*
X140340186Y-94609814D01*
X140423448Y-94711271D01*
X140452778Y-94747009D01*
X140536443Y-94903534D01*
X140587963Y-95073373D01*
X140605359Y-95250000D01*
X140587963Y-95426627D01*
X140536443Y-95596466D01*
X140452778Y-95752991D01*
X140423448Y-95788729D01*
X140340186Y-95890186D01*
X140238729Y-95973448D01*
X140202991Y-96002778D01*
X140046466Y-96086443D01*
X139876627Y-96137963D01*
X139810443Y-96144481D01*
X139744260Y-96151000D01*
X139655740Y-96151000D01*
X139589558Y-96144482D01*
X139523373Y-96137963D01*
X139353534Y-96086443D01*
X139197009Y-96002778D01*
X139161271Y-95973448D01*
X139059814Y-95890186D01*
X138976552Y-95788729D01*
X138947222Y-95752991D01*
X138863557Y-95596466D01*
X138812037Y-95426627D01*
X138794641Y-95250000D01*
X138812037Y-95073373D01*
X138863557Y-94903534D01*
X138947222Y-94747009D01*
X138976552Y-94711271D01*
X139059814Y-94609814D01*
X139161271Y-94526552D01*
X139197009Y-94497222D01*
X139353534Y-94413557D01*
X139523373Y-94362037D01*
X139589557Y-94355519D01*
X139655740Y-94349000D01*
X139744260Y-94349000D01*
X139810442Y-94355518D01*
X139810442Y-94355518D01*
G37*
G36*
X149491000Y-93611000D02*
G01*
X147689000Y-93611000D01*
X147689000Y-91809000D01*
X149491000Y-91809000D01*
X149491000Y-93611000D01*
X149491000Y-93611000D01*
G37*
G36*
X142350442Y-91815518D02*
G01*
X142416627Y-91822037D01*
X142586466Y-91873557D01*
X142742991Y-91957222D01*
X142778729Y-91986552D01*
X142880186Y-92069814D01*
X142963448Y-92171271D01*
X142992778Y-92207009D01*
X143076443Y-92363534D01*
X143127963Y-92533373D01*
X143145359Y-92710000D01*
X143127963Y-92886627D01*
X143076443Y-93056466D01*
X142992778Y-93212991D01*
X142963448Y-93248729D01*
X142880186Y-93350186D01*
X142778729Y-93433448D01*
X142742991Y-93462778D01*
X142586466Y-93546443D01*
X142416627Y-93597963D01*
X142350442Y-93604482D01*
X142284260Y-93611000D01*
X142195740Y-93611000D01*
X142129557Y-93604481D01*
X142063373Y-93597963D01*
X141893534Y-93546443D01*
X141737009Y-93462778D01*
X141701271Y-93433448D01*
X141599814Y-93350186D01*
X141516552Y-93248729D01*
X141487222Y-93212991D01*
X141403557Y-93056466D01*
X141352037Y-92886627D01*
X141334641Y-92710000D01*
X141352037Y-92533373D01*
X141403557Y-92363534D01*
X141487222Y-92207009D01*
X141516552Y-92171271D01*
X141599814Y-92069814D01*
X141701271Y-91986552D01*
X141737009Y-91957222D01*
X141893534Y-91873557D01*
X142063373Y-91822037D01*
X142129558Y-91815518D01*
X142195740Y-91809000D01*
X142284260Y-91809000D01*
X142350442Y-91815518D01*
X142350442Y-91815518D01*
G37*
G36*
X139810442Y-91815518D02*
G01*
X139876627Y-91822037D01*
X140046466Y-91873557D01*
X140202991Y-91957222D01*
X140238729Y-91986552D01*
X140340186Y-92069814D01*
X140423448Y-92171271D01*
X140452778Y-92207009D01*
X140536443Y-92363534D01*
X140587963Y-92533373D01*
X140605359Y-92710000D01*
X140587963Y-92886627D01*
X140536443Y-93056466D01*
X140452778Y-93212991D01*
X140423448Y-93248729D01*
X140340186Y-93350186D01*
X140238729Y-93433448D01*
X140202991Y-93462778D01*
X140046466Y-93546443D01*
X139876627Y-93597963D01*
X139810442Y-93604482D01*
X139744260Y-93611000D01*
X139655740Y-93611000D01*
X139589557Y-93604481D01*
X139523373Y-93597963D01*
X139353534Y-93546443D01*
X139197009Y-93462778D01*
X139161271Y-93433448D01*
X139059814Y-93350186D01*
X138976552Y-93248729D01*
X138947222Y-93212991D01*
X138863557Y-93056466D01*
X138812037Y-92886627D01*
X138794641Y-92710000D01*
X138812037Y-92533373D01*
X138863557Y-92363534D01*
X138947222Y-92207009D01*
X138976552Y-92171271D01*
X139059814Y-92069814D01*
X139161271Y-91986552D01*
X139197009Y-91957222D01*
X139353534Y-91873557D01*
X139523373Y-91822037D01*
X139589558Y-91815518D01*
X139655740Y-91809000D01*
X139744260Y-91809000D01*
X139810442Y-91815518D01*
X139810442Y-91815518D01*
G37*
G36*
X139810443Y-89275519D02*
G01*
X139876627Y-89282037D01*
X140046466Y-89333557D01*
X140202991Y-89417222D01*
X140238729Y-89446552D01*
X140340186Y-89529814D01*
X140423448Y-89631271D01*
X140452778Y-89667009D01*
X140536443Y-89823534D01*
X140587963Y-89993373D01*
X140605359Y-90170000D01*
X140587963Y-90346627D01*
X140536443Y-90516466D01*
X140452778Y-90672991D01*
X140423448Y-90708729D01*
X140340186Y-90810186D01*
X140238729Y-90893448D01*
X140202991Y-90922778D01*
X140046466Y-91006443D01*
X139876627Y-91057963D01*
X139810442Y-91064482D01*
X139744260Y-91071000D01*
X139655740Y-91071000D01*
X139589558Y-91064482D01*
X139523373Y-91057963D01*
X139353534Y-91006443D01*
X139197009Y-90922778D01*
X139161271Y-90893448D01*
X139059814Y-90810186D01*
X138976552Y-90708729D01*
X138947222Y-90672991D01*
X138863557Y-90516466D01*
X138812037Y-90346627D01*
X138794641Y-90170000D01*
X138812037Y-89993373D01*
X138863557Y-89823534D01*
X138947222Y-89667009D01*
X138976552Y-89631271D01*
X139059814Y-89529814D01*
X139161271Y-89446552D01*
X139197009Y-89417222D01*
X139353534Y-89333557D01*
X139523373Y-89282037D01*
X139589557Y-89275519D01*
X139655740Y-89269000D01*
X139744260Y-89269000D01*
X139810443Y-89275519D01*
X139810443Y-89275519D01*
G37*
G36*
X142350443Y-89275519D02*
G01*
X142416627Y-89282037D01*
X142586466Y-89333557D01*
X142742991Y-89417222D01*
X142778729Y-89446552D01*
X142880186Y-89529814D01*
X142963448Y-89631271D01*
X142992778Y-89667009D01*
X143076443Y-89823534D01*
X143127963Y-89993373D01*
X143145359Y-90170000D01*
X143127963Y-90346627D01*
X143076443Y-90516466D01*
X142992778Y-90672991D01*
X142963448Y-90708729D01*
X142880186Y-90810186D01*
X142778729Y-90893448D01*
X142742991Y-90922778D01*
X142586466Y-91006443D01*
X142416627Y-91057963D01*
X142350442Y-91064482D01*
X142284260Y-91071000D01*
X142195740Y-91071000D01*
X142129558Y-91064482D01*
X142063373Y-91057963D01*
X141893534Y-91006443D01*
X141737009Y-90922778D01*
X141701271Y-90893448D01*
X141599814Y-90810186D01*
X141516552Y-90708729D01*
X141487222Y-90672991D01*
X141403557Y-90516466D01*
X141352037Y-90346627D01*
X141334641Y-90170000D01*
X141352037Y-89993373D01*
X141403557Y-89823534D01*
X141487222Y-89667009D01*
X141516552Y-89631271D01*
X141599814Y-89529814D01*
X141701271Y-89446552D01*
X141737009Y-89417222D01*
X141893534Y-89333557D01*
X142063373Y-89282037D01*
X142129557Y-89275519D01*
X142195740Y-89269000D01*
X142284260Y-89269000D01*
X142350443Y-89275519D01*
X142350443Y-89275519D01*
G37*
G36*
X139810442Y-86735518D02*
G01*
X139876627Y-86742037D01*
X140046466Y-86793557D01*
X140202991Y-86877222D01*
X140238729Y-86906552D01*
X140340186Y-86989814D01*
X140423448Y-87091271D01*
X140452778Y-87127009D01*
X140536443Y-87283534D01*
X140587963Y-87453373D01*
X140605359Y-87630000D01*
X140587963Y-87806627D01*
X140536443Y-87976466D01*
X140452778Y-88132991D01*
X140423448Y-88168729D01*
X140340186Y-88270186D01*
X140238729Y-88353448D01*
X140202991Y-88382778D01*
X140046466Y-88466443D01*
X139876627Y-88517963D01*
X139810442Y-88524482D01*
X139744260Y-88531000D01*
X139655740Y-88531000D01*
X139589558Y-88524482D01*
X139523373Y-88517963D01*
X139353534Y-88466443D01*
X139197009Y-88382778D01*
X139161271Y-88353448D01*
X139059814Y-88270186D01*
X138976552Y-88168729D01*
X138947222Y-88132991D01*
X138863557Y-87976466D01*
X138812037Y-87806627D01*
X138794641Y-87630000D01*
X138812037Y-87453373D01*
X138863557Y-87283534D01*
X138947222Y-87127009D01*
X138976552Y-87091271D01*
X139059814Y-86989814D01*
X139161271Y-86906552D01*
X139197009Y-86877222D01*
X139353534Y-86793557D01*
X139523373Y-86742037D01*
X139589558Y-86735518D01*
X139655740Y-86729000D01*
X139744260Y-86729000D01*
X139810442Y-86735518D01*
X139810442Y-86735518D01*
G37*
G36*
X142350442Y-86735518D02*
G01*
X142416627Y-86742037D01*
X142586466Y-86793557D01*
X142742991Y-86877222D01*
X142778729Y-86906552D01*
X142880186Y-86989814D01*
X142963448Y-87091271D01*
X142992778Y-87127009D01*
X143076443Y-87283534D01*
X143127963Y-87453373D01*
X143145359Y-87630000D01*
X143127963Y-87806627D01*
X143076443Y-87976466D01*
X142992778Y-88132991D01*
X142963448Y-88168729D01*
X142880186Y-88270186D01*
X142778729Y-88353448D01*
X142742991Y-88382778D01*
X142586466Y-88466443D01*
X142416627Y-88517963D01*
X142350442Y-88524482D01*
X142284260Y-88531000D01*
X142195740Y-88531000D01*
X142129558Y-88524482D01*
X142063373Y-88517963D01*
X141893534Y-88466443D01*
X141737009Y-88382778D01*
X141701271Y-88353448D01*
X141599814Y-88270186D01*
X141516552Y-88168729D01*
X141487222Y-88132991D01*
X141403557Y-87976466D01*
X141352037Y-87806627D01*
X141334641Y-87630000D01*
X141352037Y-87453373D01*
X141403557Y-87283534D01*
X141487222Y-87127009D01*
X141516552Y-87091271D01*
X141599814Y-86989814D01*
X141701271Y-86906552D01*
X141737009Y-86877222D01*
X141893534Y-86793557D01*
X142063373Y-86742037D01*
X142129558Y-86735518D01*
X142195740Y-86729000D01*
X142284260Y-86729000D01*
X142350442Y-86735518D01*
X142350442Y-86735518D01*
G37*
G36*
X139810442Y-84195518D02*
G01*
X139876627Y-84202037D01*
X140046466Y-84253557D01*
X140202991Y-84337222D01*
X140238729Y-84366552D01*
X140340186Y-84449814D01*
X140423448Y-84551271D01*
X140452778Y-84587009D01*
X140536443Y-84743534D01*
X140587963Y-84913373D01*
X140605359Y-85090000D01*
X140587963Y-85266627D01*
X140536443Y-85436466D01*
X140452778Y-85592991D01*
X140423448Y-85628729D01*
X140340186Y-85730186D01*
X140238729Y-85813448D01*
X140202991Y-85842778D01*
X140046466Y-85926443D01*
X139876627Y-85977963D01*
X139810442Y-85984482D01*
X139744260Y-85991000D01*
X139655740Y-85991000D01*
X139589558Y-85984482D01*
X139523373Y-85977963D01*
X139353534Y-85926443D01*
X139197009Y-85842778D01*
X139161271Y-85813448D01*
X139059814Y-85730186D01*
X138976552Y-85628729D01*
X138947222Y-85592991D01*
X138863557Y-85436466D01*
X138812037Y-85266627D01*
X138794641Y-85090000D01*
X138812037Y-84913373D01*
X138863557Y-84743534D01*
X138947222Y-84587009D01*
X138976552Y-84551271D01*
X139059814Y-84449814D01*
X139161271Y-84366552D01*
X139197009Y-84337222D01*
X139353534Y-84253557D01*
X139523373Y-84202037D01*
X139589558Y-84195518D01*
X139655740Y-84189000D01*
X139744260Y-84189000D01*
X139810442Y-84195518D01*
X139810442Y-84195518D01*
G37*
G36*
X142350442Y-84195518D02*
G01*
X142416627Y-84202037D01*
X142586466Y-84253557D01*
X142742991Y-84337222D01*
X142778729Y-84366552D01*
X142880186Y-84449814D01*
X142963448Y-84551271D01*
X142992778Y-84587009D01*
X143076443Y-84743534D01*
X143127963Y-84913373D01*
X143145359Y-85090000D01*
X143127963Y-85266627D01*
X143076443Y-85436466D01*
X142992778Y-85592991D01*
X142963448Y-85628729D01*
X142880186Y-85730186D01*
X142778729Y-85813448D01*
X142742991Y-85842778D01*
X142586466Y-85926443D01*
X142416627Y-85977963D01*
X142350442Y-85984482D01*
X142284260Y-85991000D01*
X142195740Y-85991000D01*
X142129558Y-85984482D01*
X142063373Y-85977963D01*
X141893534Y-85926443D01*
X141737009Y-85842778D01*
X141701271Y-85813448D01*
X141599814Y-85730186D01*
X141516552Y-85628729D01*
X141487222Y-85592991D01*
X141403557Y-85436466D01*
X141352037Y-85266627D01*
X141334641Y-85090000D01*
X141352037Y-84913373D01*
X141403557Y-84743534D01*
X141487222Y-84587009D01*
X141516552Y-84551271D01*
X141599814Y-84449814D01*
X141701271Y-84366552D01*
X141737009Y-84337222D01*
X141893534Y-84253557D01*
X142063373Y-84202037D01*
X142129558Y-84195518D01*
X142195740Y-84189000D01*
X142284260Y-84189000D01*
X142350442Y-84195518D01*
X142350442Y-84195518D01*
G37*
G36*
X139810443Y-81655519D02*
G01*
X139876627Y-81662037D01*
X140046466Y-81713557D01*
X140202991Y-81797222D01*
X140238729Y-81826552D01*
X140340186Y-81909814D01*
X140423448Y-82011271D01*
X140452778Y-82047009D01*
X140536443Y-82203534D01*
X140587963Y-82373373D01*
X140605359Y-82550000D01*
X140587963Y-82726627D01*
X140536443Y-82896466D01*
X140452778Y-83052991D01*
X140423448Y-83088729D01*
X140340186Y-83190186D01*
X140238729Y-83273448D01*
X140202991Y-83302778D01*
X140046466Y-83386443D01*
X139876627Y-83437963D01*
X139810443Y-83444481D01*
X139744260Y-83451000D01*
X139655740Y-83451000D01*
X139589557Y-83444481D01*
X139523373Y-83437963D01*
X139353534Y-83386443D01*
X139197009Y-83302778D01*
X139161271Y-83273448D01*
X139059814Y-83190186D01*
X138976552Y-83088729D01*
X138947222Y-83052991D01*
X138863557Y-82896466D01*
X138812037Y-82726627D01*
X138794641Y-82550000D01*
X138812037Y-82373373D01*
X138863557Y-82203534D01*
X138947222Y-82047009D01*
X138976552Y-82011271D01*
X139059814Y-81909814D01*
X139161271Y-81826552D01*
X139197009Y-81797222D01*
X139353534Y-81713557D01*
X139523373Y-81662037D01*
X139589557Y-81655519D01*
X139655740Y-81649000D01*
X139744260Y-81649000D01*
X139810443Y-81655519D01*
X139810443Y-81655519D01*
G37*
G36*
X143141000Y-83451000D02*
G01*
X141339000Y-83451000D01*
X141339000Y-81649000D01*
X143141000Y-81649000D01*
X143141000Y-83451000D01*
X143141000Y-83451000D01*
G37*
M02*
